<svg width="95" height="7" viewBox="0 0 95 7" fill="none" xmlns="http://www.w3.org/2000/svg">
<path d="M21.066 3.60756C21.066 1.93288 44.2411 1.53061 47.0149 1.52151C54.8595 1.49579 62.7052 1.52151 70.55 1.52151C74.4244 1.52151 71.395 1 69.2568 1C53.8378 1 38.6759 2.94074 23.3075 3.49167C16.3116 3.74246 -4.38038 2.80218 2.3156 4.18702C26.1484 9.11605 54.1706 2.48032 78.5674 2.04302C94.3712 1.75975 15.5585 5.1721 31.368 5.1721C46.9242 5.1721 62.5044 4.26714 78.0501 3.86832C86.8153 3.64345 101.722 3.21276 84.0848 4.12907C80.798 4.29983 54.2179 5.30888 69.8603 5.08518C72.8577 5.04231 94.1856 3.85867 93.9988 3.60756" stroke="#FF7A7A" stroke-linecap="round"/>
</svg>
