<svg width="1977" height="392" viewBox="0 0 1977 392" fill="none" xmlns="http://www.w3.org/2000/svg">
<g filter="url(#filter0_f_14_197)">
<path d="M260.003 31.8309L302.813 25V352.427L260.003 359.714V39.1172H67.8106V352.427L25 359.714V31.8309L67.8106 25V31.8309H260.003Z" fill="#CDD2C2" fill-opacity="0.1"/>
<path d="M620.47 361.08L568.551 247.232C548.815 247.839 519.668 252.545 481.108 261.349C442.548 270.153 412.641 274.707 391.388 275.011L352.676 361.535L346.3 358.348L481.563 55.0559L479.286 50.502L485.207 45.9481L514.354 25L655.538 335.578L620.47 361.08ZM394.576 268.18C414.919 267.573 443.762 263.019 481.108 254.518C518.453 246.017 546.538 241.16 565.363 239.945L485.207 63.7084L394.576 268.18Z" fill="#CDD2C2" fill-opacity="0.1"/>
<path d="M893.245 31.8309L935.6 25V352.427L893.245 359.714V39.1172H749.329C740.524 97.711 736.121 176.039 736.121 274.1C736.121 301.727 730.049 322.979 717.904 337.855C706.063 352.427 690.882 359.714 672.361 359.714L665.074 352.427C684.506 352.427 699.99 345.748 711.528 332.39C723.369 319.032 729.29 297.325 729.29 267.269C729.29 222.944 730.353 181.2 732.478 142.036C734.907 102.872 737.336 74.6378 739.765 57.3329L743.408 31.8309H893.245Z" fill="#CDD2C2" fill-opacity="0.1"/>
<path d="M1189.71 160.252C1206.1 160.252 1221.28 162.073 1235.25 165.716C1249.52 169.36 1262.27 175.128 1273.51 183.021C1285.04 190.611 1294.15 200.933 1300.83 213.988C1307.51 227.043 1310.85 242.374 1310.85 259.983C1310.85 283.967 1304.63 303.397 1292.18 318.273C1280.03 332.846 1261.51 343.471 1236.62 350.15C1212.02 356.526 1179.69 359.714 1139.61 359.714C1128.98 359.714 1115.93 359.107 1100.44 357.892C1084.96 356.678 1072.21 355.463 1062.19 354.249L1047.16 352.427L1004.35 359.714V31.8309L1047.16 25V188.031C1062.64 186.816 1085.26 181.959 1115.02 173.458C1144.77 164.654 1169.67 160.252 1189.71 160.252ZM1146.9 352.427C1168.45 352.427 1187.28 349.847 1203.37 344.686C1219.77 339.525 1232.52 332.39 1241.63 323.282C1250.73 314.174 1257.41 304.308 1261.66 293.682C1265.92 283.056 1268.04 271.823 1268.04 259.983C1268.04 232.963 1260.45 211.256 1245.27 194.862C1230.39 178.164 1211.87 169.056 1189.71 167.538C1169.67 167.538 1144.77 171.94 1115.02 180.744C1085.26 189.245 1062.64 194.103 1047.16 195.317V345.597C1089.36 350.15 1122.61 352.427 1146.9 352.427Z" fill="#CDD2C2" fill-opacity="0.1"/>
<path d="M1511.59 31.8309L1553.94 25V67.8069L1511.59 74.6378V39.1172H1440.08V352.427L1397.27 359.714V39.1172H1326.23V67.8069L1283.42 74.6378V31.8309L1326.23 25V31.8309H1397.27L1440.08 25V31.8309H1511.59Z" fill="#CDD2C2" fill-opacity="0.1"/>
<path d="M1952 240.401C1940.16 251.027 1927.41 259.224 1913.74 264.992C1900.38 270.76 1887.48 273.644 1875.03 273.644C1860.76 273.644 1847.86 271.519 1836.32 267.269C1826.6 279.413 1815.83 291.557 1803.98 303.7C1792.14 315.541 1779.39 326.166 1765.73 335.578C1752.37 344.989 1738.1 352.579 1722.92 358.348C1707.74 364.116 1691.95 367 1675.55 367C1660.37 367 1647.62 364.723 1637.3 360.169C1627.28 355.615 1619.08 349.543 1612.7 341.953C1606.63 334.06 1602.23 325.256 1599.5 315.541C1597.07 305.522 1595.85 295.048 1595.85 284.118C1595.85 267.421 1598.43 250.268 1603.59 232.659C1609.06 215.051 1616.5 198.049 1625.91 181.655C1635.63 164.957 1647.01 149.17 1660.07 134.294C1673.12 119.115 1687.24 105.756 1702.42 94.2197C1717.6 82.6831 1733.54 73.1198 1750.24 65.53C1767.25 57.9401 1784.25 53.3861 1801.25 51.8682C1810.97 42.7603 1819.77 36.992 1827.67 34.5632C1835.86 32.1345 1843.61 30.9201 1850.89 30.9201C1869.11 30.9201 1882.47 37.751 1890.97 51.4128C1899.78 65.0746 1904.18 82.5313 1904.18 103.783C1904.18 117.141 1902.21 131.107 1898.26 145.679C1894.62 159.948 1889.76 174.065 1883.69 188.031C1877.61 201.692 1870.78 215.051 1863.19 228.105C1855.6 240.856 1848.01 252.393 1840.42 262.715C1845.58 265.144 1850.89 266.662 1856.36 267.269C1862.13 267.876 1868.05 268.18 1874.12 268.18C1881.41 268.18 1888.54 267.269 1895.53 265.447C1902.81 263.626 1909.8 261.197 1916.48 258.161C1923.16 255.125 1929.23 251.786 1934.69 248.142C1940.46 244.499 1945.32 240.856 1949.27 237.213L1952 240.401ZM1757.53 153.876C1757.53 136.268 1760.87 119.266 1767.55 102.872C1774.53 86.1744 1783.95 71.4501 1795.79 58.6991L1794.88 57.7883C1779.69 60.8242 1765.42 66.7443 1752.07 75.5486C1738.71 84.0493 1726.26 94.5233 1714.72 106.971C1703.49 119.114 1693.31 132.776 1684.21 147.956C1675.4 163.136 1667.81 178.771 1661.43 194.862C1655.36 210.952 1650.66 227.043 1647.32 243.133C1643.98 258.92 1642.31 273.948 1642.31 288.217C1642.31 297.325 1643.07 306.129 1644.58 314.63C1646.1 323.13 1648.53 330.72 1651.87 337.399C1655.51 343.775 1660.22 348.936 1665.99 352.883C1672.06 356.83 1679.5 358.803 1688.3 358.803C1701.66 358.803 1714.87 355.615 1727.93 349.24C1740.98 342.561 1753.28 334.363 1764.82 324.648C1776.66 314.933 1787.13 304.308 1796.24 292.771C1805.65 280.931 1813.24 269.85 1819.01 259.527C1809.6 254.366 1801.1 248.142 1793.51 240.856C1785.92 233.266 1779.39 224.917 1773.93 215.81C1768.76 206.398 1764.67 196.531 1761.63 186.209C1758.9 175.583 1757.53 164.806 1757.53 153.876ZM1835.86 106.06C1836.47 104.238 1836.93 101.658 1837.23 98.3182C1837.53 94.9787 1837.69 91.9427 1837.69 89.2104C1837.69 84.96 1837.08 80.8615 1835.86 76.9148C1834.65 72.6644 1832.68 69.1731 1829.94 66.4407C1827.21 63.4048 1823.57 61.1278 1819.01 59.6098C1814.76 57.7883 1809.3 57.0293 1802.62 57.3329C1798.06 62.1904 1794.12 68.1105 1790.78 75.0932C1787.44 81.7723 1784.55 89.0586 1782.12 96.9521C1780 104.542 1778.33 112.435 1777.11 120.632C1776.2 128.526 1775.75 135.964 1775.75 142.947C1775.75 152.965 1776.51 163.439 1778.02 174.369C1779.54 185.298 1782.12 195.924 1785.77 206.246C1789.41 216.265 1794.12 225.525 1799.89 234.025C1805.96 242.526 1813.55 249.357 1822.66 254.518C1829.34 243.589 1835.41 231.748 1840.87 218.997C1846.64 205.943 1851.5 192.736 1855.45 179.378C1859.4 165.716 1862.43 152.206 1864.56 138.848C1866.68 125.186 1867.75 112.132 1867.75 99.6844C1867.75 91.7909 1867.14 84.3529 1865.92 77.3702C1864.71 70.3875 1862.74 64.3156 1860 59.1544C1857.27 53.6897 1853.63 49.4394 1849.07 46.4035C1844.52 43.3675 1838.9 41.8495 1832.22 41.8495C1826.76 41.8495 1822.05 42.7603 1818.1 44.5819C1814.16 46.4034 1810.66 48.8322 1807.63 51.8682C1814.31 52.1718 1819.92 53.3861 1824.48 55.5113C1829.03 57.6365 1832.68 60.5206 1835.41 64.1638C1838.14 67.5033 1840.12 71.4501 1841.33 76.004C1842.54 80.5579 1843.15 85.1118 1843.15 89.6658C1843.15 93.3089 1842.85 96.4967 1842.24 99.229C1841.94 101.658 1841.48 104.087 1840.87 106.515L1835.86 106.06Z" fill="#CDD2C2" fill-opacity="0.1"/>
</g>
<defs>
<filter id="filter0_f_14_197" x="0" y="0" width="1977" height="392" filterUnits="userSpaceOnUse" color-interpolation-filters="sRGB">
<feFlood flood-opacity="0" result="BackgroundImageFix"/>
<feBlend mode="normal" in="SourceGraphic" in2="BackgroundImageFix" result="shape"/>
<feGaussianBlur stdDeviation="12.5" result="effect1_foregroundBlur_14_197"/>
</filter>
</defs>
</svg>
