<svg width="1920" height="302" viewBox="0 0 1920 302" fill="none" xmlns="http://www.w3.org/2000/svg">
<g filter="url(#filter0_f_25_59)">
<path d="M-981.392 113.619C-966.711 117.291 -955.025 124.152 -946.333 134.203C-937.448 144.06 -933.005 157.202 -933.005 173.631C-933.005 196.438 -941.697 212.769 -959.082 222.626C-976.273 232.29 -1003.89 237.122 -1041.95 237.122C-1045.04 237.122 -1048.51 237.025 -1052.38 236.832C-1056.24 236.639 -1060.01 236.446 -1063.68 236.252C-1067.35 236.059 -1071.02 235.769 -1074.69 235.383C-1078.36 234.996 -1081.74 234.706 -1084.83 234.513C-1087.92 234.126 -1090.72 233.836 -1093.23 233.643C-1095.55 233.257 -1097.38 232.967 -1098.74 232.773L-1100.76 232.483L-1128 237.122V28.384L-1100.76 24.0353H-1023.69C-1016.35 24.0353 -1009.3 24.5184 -1002.54 25.4848C-995.782 26.4512 -989.311 28.0941 -983.13 30.4134C-976.756 32.7327 -971.251 35.6318 -966.615 39.1108C-961.979 42.5898 -958.309 47.0351 -955.605 52.4468C-952.707 57.8586 -951.259 63.9468 -951.259 70.7114C-951.259 83.6609 -954.156 93.6146 -959.951 100.573C-965.552 107.337 -972.699 111.686 -981.392 113.619ZM-1028.33 28.384H-1100.76V127.825C-1090.72 127.051 -1076.72 124.056 -1058.75 118.837C-1040.6 113.425 -1025.72 110.526 -1014.13 110.14H-1014.71C-1003.32 110.14 -994.43 106.371 -988.056 98.8331C-981.681 91.1021 -978.494 81.245 -978.494 69.2618C-978.494 62.3039 -979.943 56.1191 -982.84 50.7074C-985.738 45.2956 -989.697 41.0436 -994.72 37.9511C-999.549 34.8587 -1004.86 32.5394 -1010.66 30.9932C-1016.26 29.2537 -1022.15 28.384 -1028.33 28.384ZM-1037.31 232.483C-1023.6 232.483 -1011.62 230.841 -1001.38 227.555C-990.953 224.269 -982.84 219.727 -977.046 213.929C-971.251 208.131 -967.001 201.849 -964.297 195.085C-961.593 188.32 -960.241 181.169 -960.241 173.631C-960.241 156.429 -965.07 142.61 -974.728 132.173C-984.192 121.543 -995.975 115.745 -1010.08 114.778C-1022.82 114.778 -1038.66 117.581 -1057.59 123.186C-1076.52 128.598 -1090.91 131.69 -1100.76 132.463V228.135C-1073.92 231.034 -1052.76 232.483 -1037.31 232.483Z" fill="#CDD2C2" fill-opacity="0.1"/>
<path d="M-840.035 30.4134C-827.093 26.1613 -813.089 24.0353 -798.022 24.0353C-782.763 24.0353 -768.759 26.1613 -756.01 30.4134C-743.068 34.4722 -731.575 40.657 -721.531 48.9679C-711.487 57.0855 -703.567 68.0056 -697.772 81.7282C-691.978 95.2575 -689.08 110.816 -689.08 128.404C-689.08 145.992 -691.978 161.841 -697.772 175.95C-703.567 189.866 -711.487 201.269 -721.531 210.16C-731.575 218.858 -743.068 225.526 -756.01 230.164C-768.952 234.803 -782.956 237.122 -798.022 237.122C-812.896 237.122 -826.803 234.803 -839.745 230.164C-852.687 225.526 -864.18 218.858 -874.224 210.16C-884.268 201.269 -892.188 189.866 -897.983 175.95C-903.778 161.841 -906.675 145.992 -906.675 128.404C-906.675 110.816 -903.778 95.2575 -897.983 81.7282C-892.188 68.0056 -884.268 57.0855 -874.224 48.9679C-864.18 40.657 -852.783 34.4722 -840.035 30.4134ZM-788.751 232.483C-780.059 232.483 -772.042 231.131 -764.702 228.425C-757.362 225.526 -751.085 221.563 -745.869 216.538C-740.654 211.513 -736.115 205.715 -732.252 199.143C-728.388 192.572 -725.298 185.324 -722.98 177.4C-720.662 169.475 -719.02 161.455 -718.054 153.337C-716.895 145.219 -716.316 136.908 -716.316 128.404C-716.316 114.295 -718.151 101.539 -721.821 90.1357C-725.491 78.7324 -730.417 69.2618 -736.598 61.7241C-742.586 54.1863 -749.539 47.9048 -757.459 42.8797C-765.378 37.6612 -773.491 33.989 -781.797 31.8629C-790.103 29.5436 -798.505 28.384 -807.004 28.384C-817.435 28.384 -826.9 30.3167 -835.399 34.1822C-843.705 37.8545 -850.562 42.8797 -855.97 49.2578C-861.379 55.4426 -865.918 62.8837 -869.588 71.5812C-873.258 80.2786 -875.866 89.3626 -877.411 98.8331C-878.763 108.11 -879.439 117.967 -879.439 128.404C-879.439 142.32 -877.604 155.173 -873.934 166.963C-870.264 178.753 -865.435 188.61 -859.447 196.534C-853.266 204.458 -846.216 211.223 -838.296 216.828C-830.377 222.24 -822.264 226.202 -813.958 228.715C-805.652 231.227 -797.25 232.483 -788.751 232.483Z" fill="#CDD2C2" fill-opacity="0.1"/>
<path d="M-502.583 233.933L-479.983 233.643V260.895L-507.219 265.534V238.282H-670.342V260.895L-697.578 265.534V233.643H-674.978C-662.616 233.643 -652.765 229.391 -645.425 220.887C-637.891 212.383 -634.125 198.564 -634.125 179.429C-634.125 151.211 -633.352 124.635 -631.807 99.7028C-630.262 74.7702 -628.813 56.8922 -627.461 46.0687L-625.143 29.8335H-529.818L-502.583 25.1949V233.933ZM-652.378 233.643H-529.818V34.1822H-621.376C-626.785 71.4845 -629.489 121.35 -629.489 183.778C-629.489 196.341 -631.517 206.874 -635.573 215.379C-639.63 223.689 -645.231 229.778 -652.378 233.643Z" fill="#CDD2C2" fill-opacity="0.1"/>
<path d="M-397.785 30.4134C-384.844 26.1613 -370.839 24.0353 -355.773 24.0353C-340.513 24.0353 -326.509 26.1613 -313.761 30.4134C-300.819 34.4722 -289.326 40.657 -279.282 48.9679C-269.237 57.0855 -261.318 68.0056 -255.523 81.7282C-249.728 95.2575 -246.831 110.816 -246.831 128.404C-246.831 145.992 -249.728 161.841 -255.523 175.95C-261.318 189.866 -269.237 201.269 -279.282 210.16C-289.326 218.858 -300.819 225.526 -313.761 230.164C-326.702 234.803 -340.707 237.122 -355.773 237.122C-370.646 237.122 -384.554 234.803 -397.496 230.164C-410.437 225.526 -421.93 218.858 -431.975 210.16C-442.019 201.269 -449.938 189.866 -455.733 175.95C-461.528 161.841 -464.425 145.992 -464.425 128.404C-464.425 110.816 -461.528 95.2575 -455.733 81.7282C-449.938 68.0056 -442.019 57.0855 -431.975 48.9679C-421.93 40.657 -410.534 34.4722 -397.785 30.4134ZM-346.501 232.483C-337.809 232.483 -329.793 231.131 -322.453 228.425C-315.113 225.526 -308.835 221.563 -303.62 216.538C-298.405 211.513 -293.865 205.715 -290.002 199.143C-286.139 192.572 -283.048 185.324 -280.73 177.4C-278.412 169.475 -276.771 161.455 -275.805 153.337C-274.646 145.219 -274.066 136.908 -274.066 128.404C-274.066 114.295 -275.901 101.539 -279.571 90.1357C-283.241 78.7324 -288.167 69.2618 -294.348 61.7241C-300.336 54.1863 -307.29 47.9048 -315.209 42.8797C-323.129 37.6612 -331.242 33.989 -339.548 31.8629C-347.853 29.5436 -356.256 28.384 -364.755 28.384C-375.186 28.384 -384.65 30.3167 -393.149 34.1822C-401.455 37.8545 -408.312 42.8797 -413.721 49.2578C-419.129 55.4426 -423.669 62.8837 -427.339 71.5812C-431.009 80.2786 -433.616 89.3626 -435.162 98.8331C-436.514 108.11 -437.19 117.967 -437.19 128.404C-437.19 142.32 -435.355 155.173 -431.685 166.963C-428.015 178.753 -423.186 188.61 -417.198 196.534C-411.017 204.458 -403.966 211.223 -396.047 216.828C-388.127 222.24 -380.015 226.202 -371.709 228.715C-363.403 231.227 -355 232.483 -346.501 232.483Z" fill="#CDD2C2" fill-opacity="0.1"/>
<path d="M-60.8971 28.384L-33.6615 24.0353V232.483L-60.8971 237.122V114.778C-75.1909 114.778 -95.5692 117.774 -122.032 123.766C-148.495 129.757 -168.873 132.753 -183.167 132.753V232.483L-210.403 237.122V28.384L-183.167 24.0353V128.404C-168.873 128.404 -148.495 125.409 -122.032 119.417C-95.5692 113.232 -75.1909 110.14 -60.8971 110.14V28.384Z" fill="#CDD2C2" fill-opacity="0.1"/>
<path d="M123.303 28.384L150.538 24.0353V51.2872L123.303 55.6359V33.0226H37.2501V128.114C46.1354 127.535 59.4635 124.442 77.2341 118.837C95.0049 113.039 108.816 110.14 118.667 110.14V114.778C108.816 114.778 95.0049 117.678 77.2341 123.476C59.4635 129.081 46.1354 132.173 37.2501 132.753V228.135H123.303V218.858L150.538 214.509V232.483L123.303 237.122V232.483H37.2501L10.0145 237.122V28.384L37.2501 24.0353V28.384H123.303Z" fill="#CDD2C2" fill-opacity="0.1"/>
<path d="M332.409 28.384L359.645 24.0353V232.483L332.409 237.122V33.0226H210.139V232.483L182.903 237.122V28.384L210.139 24.0353V28.384H332.409Z" fill="#CDD2C2" fill-opacity="0.1"/>
<path d="M498.631 24.0353C510.994 24.0353 522.487 25.968 533.11 29.8335C543.927 33.6991 553.006 39.8839 560.346 48.388C567.686 56.8922 571.356 66.8459 571.356 78.2492C571.356 89.8457 567.783 99.8961 560.636 108.4C553.682 116.904 545.086 123.089 534.849 126.955C524.805 130.82 514.277 132.753 503.267 132.753H430.832V232.483L403.597 237.122V28.384L430.832 24.0353H498.631ZM503.267 128.404C510.8 128.404 517.368 126.955 522.97 124.056C528.571 120.963 532.821 116.904 535.718 111.879C538.615 106.854 540.74 101.636 542.092 96.2239C543.444 90.6189 544.121 84.6273 544.121 78.2492C544.121 64.5266 539.195 52.8334 529.344 43.1696C519.686 33.3125 508 28.384 494.285 28.384H430.832V128.404H503.267Z" fill="#CDD2C2" fill-opacity="0.1"/>
<path d="M659.878 30.4134C672.82 26.1613 686.824 24.0353 701.891 24.0353C717.15 24.0353 731.154 26.1613 743.903 30.4134C756.845 34.4722 768.338 40.657 778.382 48.9679C788.426 57.0855 796.346 68.0056 802.141 81.7282C807.936 95.2575 810.833 110.816 810.833 128.404C810.833 145.992 807.936 161.841 802.141 175.95C796.346 189.866 788.426 201.269 778.382 210.16C768.338 218.858 756.845 225.526 743.903 230.164C730.961 234.803 716.957 237.122 701.891 237.122C687.017 237.122 673.11 234.803 660.168 230.164C647.226 225.526 635.733 218.858 625.689 210.16C615.645 201.269 607.725 189.866 601.931 175.95C596.136 161.841 593.238 145.992 593.238 128.404C593.238 110.816 596.136 95.2575 601.931 81.7282C607.725 68.0056 615.645 57.0855 625.689 48.9679C635.733 40.657 647.13 34.4722 659.878 30.4134ZM711.162 232.483C719.855 232.483 727.871 231.131 735.211 228.425C742.551 225.526 748.829 221.563 754.044 216.538C759.259 211.513 763.799 205.715 767.662 199.143C771.525 192.572 774.615 185.324 776.933 177.4C779.251 169.475 780.893 161.455 781.859 153.337C783.018 145.219 783.597 136.908 783.597 128.404C783.597 114.295 781.762 101.539 778.092 90.1357C774.422 78.7324 769.497 69.2618 763.316 61.7241C757.328 54.1863 750.374 47.9048 742.454 42.8797C734.535 37.6612 726.422 33.989 718.116 31.8629C709.81 29.5436 701.408 28.384 692.909 28.384C682.478 28.384 673.013 30.3167 664.514 34.1822C656.208 37.8545 649.351 42.8797 643.943 49.2578C638.534 55.4426 633.995 62.8837 630.325 71.5812C626.655 80.2786 624.047 89.3626 622.502 98.8331C621.15 108.11 620.474 117.967 620.474 128.404C620.474 142.32 622.309 155.173 625.979 166.963C629.649 178.753 634.478 188.61 640.466 196.534C646.647 204.458 653.697 211.223 661.617 216.828C669.536 222.24 677.649 226.202 685.955 228.715C694.261 231.227 702.663 232.483 711.162 232.483Z" fill="#CDD2C2" fill-opacity="0.1"/>
<path d="M996.767 28.384L1024 24.0353V232.483L996.767 237.122V114.778C982.473 114.778 962.094 117.774 935.632 123.766C909.169 129.757 888.79 132.753 874.496 132.753V232.483L847.261 237.122V28.384L874.496 24.0353V128.404C888.79 128.404 909.169 125.409 935.632 119.417C962.094 113.232 982.473 110.14 996.767 110.14V28.384Z" fill="#CDD2C2" fill-opacity="0.1"/>
<path d="M1217.47 28.384L1244.71 24.0353V232.483L1217.47 237.122V74.1904L1095.2 231.904V232.483L1067.97 237.122V28.384L1095.2 24.0353V224.366L1217.47 66.9425V28.384Z" fill="#CDD2C2" fill-opacity="0.1"/>
<path d="M1465.69 228.135H1501.91V232.483C1495.54 232.483 1490.13 233.74 1485.68 236.252C1481.24 238.765 1477.96 242.341 1475.83 246.979C1473.71 251.618 1472.26 256.353 1471.49 261.185C1470.71 266.017 1470.33 271.622 1470.33 278L1456.71 268.723C1456.71 250.555 1463.18 238.475 1476.12 232.483H1316.19L1288.95 237.122V28.384L1316.19 24.0353V228.135H1438.46V28.384L1465.69 24.0353V228.135Z" fill="#CDD2C2" fill-opacity="0.1"/>
<path d="M1684.48 237.992L1651.45 165.513C1638.89 165.9 1620.35 168.896 1595.82 174.501C1571.28 180.106 1552.26 183.005 1538.74 183.198L1514.11 238.282L1510.05 236.252L1596.1 43.1696L1594.66 40.2704L1598.42 37.3713L1616.97 24.0353L1706.79 221.757L1684.48 237.992ZM1540.76 178.849C1553.71 178.463 1572.06 175.564 1595.82 170.152C1619.57 164.74 1637.44 161.648 1649.42 160.875L1598.42 48.6779L1540.76 178.849Z" fill="#CDD2C2" fill-opacity="0.1"/>
<path d="M1848.16 28.384L1875.4 24.0353V51.2872L1848.16 55.6359V33.0226H1762.11V128.114C1770.99 127.535 1784.32 124.442 1802.09 118.837C1819.86 113.039 1833.67 110.14 1843.52 110.14V114.778C1833.67 114.778 1819.86 117.678 1802.09 123.476C1784.32 129.081 1770.99 132.173 1762.11 132.753V228.135H1848.16V218.858L1875.4 214.509V232.483L1848.16 237.122V232.483H1762.11L1734.87 237.122V28.384L1762.11 24.0353V28.384H1848.16Z" fill="#CDD2C2" fill-opacity="0.1"/>
<path d="M2093.48 28.384L2120.72 24.0353V232.483L2093.48 237.122V38.8209L2016.99 171.312L2019.89 176.24L2012.07 180.879L1935 47.2284V232.483L1907.76 237.122V28.384L1935 24.0353V29.2537L2014.39 166.963L2093.48 29.5436V28.384Z" fill="#CDD2C2" fill-opacity="0.1"/>
<path d="M2224.59 30.4134C2237.53 26.1613 2251.53 24.0353 2266.6 24.0353C2281.86 24.0353 2295.86 26.1613 2308.61 30.4134C2321.55 34.4722 2333.05 40.657 2343.09 48.9679C2353.13 57.0855 2361.05 68.0056 2366.85 81.7282C2372.64 95.2575 2375.54 110.816 2375.54 128.404C2375.54 145.992 2372.64 161.841 2366.85 175.95C2361.05 189.866 2353.13 201.269 2343.09 210.16C2333.05 218.858 2321.55 225.526 2308.61 230.164C2295.67 234.803 2281.67 237.122 2266.6 237.122C2251.73 237.122 2237.82 234.803 2224.88 230.164C2211.94 225.526 2200.44 218.858 2190.4 210.16C2180.35 201.269 2172.43 189.866 2166.64 175.95C2160.84 161.841 2157.95 145.992 2157.95 128.404C2157.95 110.816 2160.84 95.2575 2166.64 81.7282C2172.43 68.0056 2180.35 57.0855 2190.4 48.9679C2200.44 40.657 2211.84 34.4722 2224.59 30.4134ZM2275.87 232.483C2284.56 232.483 2292.58 231.131 2299.92 228.425C2307.26 225.526 2313.54 221.563 2318.75 216.538C2323.97 211.513 2328.51 205.715 2332.37 199.143C2336.23 192.572 2339.32 185.324 2341.64 177.4C2343.96 169.475 2345.6 161.455 2346.57 153.337C2347.73 145.219 2348.31 136.908 2348.31 128.404C2348.31 114.295 2346.47 101.539 2342.8 90.1357C2339.13 78.7324 2334.21 69.2618 2328.02 61.7241C2322.04 54.1863 2315.08 47.9048 2307.16 42.8797C2299.24 37.6612 2291.13 33.989 2282.82 31.8629C2274.52 29.5436 2266.12 28.384 2257.62 28.384C2247.19 28.384 2237.72 30.3167 2229.22 34.1822C2220.92 37.8545 2214.06 42.8797 2208.65 49.2578C2203.24 55.4426 2198.7 62.8837 2195.03 71.5812C2191.36 80.2786 2188.76 89.3626 2187.21 98.8331C2185.86 108.11 2185.18 117.967 2185.18 128.404C2185.18 142.32 2187.02 155.173 2190.69 166.963C2194.36 178.753 2199.19 188.61 2205.17 196.534C2211.36 204.458 2218.41 211.223 2226.33 216.828C2234.24 222.24 2242.36 226.202 2250.66 228.715C2258.97 231.227 2267.37 232.483 2275.87 232.483Z" fill="#CDD2C2" fill-opacity="0.1"/>
<path d="M2584.07 191.896L2591.9 206.101C2581.08 216.538 2568.72 224.463 2554.81 229.874C2540.9 235.286 2526.42 237.702 2511.35 237.122C2496.48 237.122 2482.57 234.803 2469.63 230.164C2456.69 225.526 2445.19 218.858 2435.15 210.16C2425.1 201.269 2417.18 189.866 2411.39 175.95C2405.6 161.841 2402.7 145.992 2402.7 128.404C2402.7 110.816 2405.6 95.2575 2411.39 81.7282C2417.18 68.0056 2425.1 57.0855 2435.15 48.9679C2445.19 40.657 2456.59 34.4722 2469.34 30.4134C2482.28 26.1613 2496.28 24.0353 2511.35 24.0353C2535.88 23.4554 2558.38 30.0268 2578.86 43.7494L2570.75 62.014C2562.63 51.5771 2552.49 43.4595 2540.32 37.6612C2528.35 31.6697 2515.7 28.5772 2502.37 28.384C2491.94 28.384 2482.47 30.3167 2473.97 34.1822C2465.67 37.8545 2458.81 42.8797 2453.4 49.2578C2447.99 55.4426 2443.45 62.8837 2439.78 71.5812C2436.11 80.2786 2433.51 89.3626 2431.96 98.8331C2430.61 108.11 2429.93 117.967 2429.93 128.404C2429.93 142.32 2431.77 155.173 2435.44 166.963C2439.11 178.753 2443.94 188.61 2449.93 196.534C2456.11 204.458 2463.16 211.223 2471.08 216.828C2479 222.24 2487.11 226.202 2495.41 228.715C2503.72 231.227 2512.12 232.483 2520.62 232.483C2534.14 232.29 2546.6 228.521 2558 221.177C2569.39 213.832 2578.09 204.072 2584.07 191.896Z" fill="#CDD2C2" fill-opacity="0.1"/>
<path d="M2748.82 28.384L2775.76 24.0353V51.2872L2748.82 55.6359V33.0226H2703.33V232.483L2676.09 237.122V33.0226H2630.89V51.2872L2603.66 55.6359V28.384L2630.89 24.0353V28.384H2676.09L2703.33 24.0353V28.384H2748.82Z" fill="#CDD2C2" fill-opacity="0.1"/>
<path d="M2920.93 110.14C2931.36 110.14 2941.02 111.299 2949.9 113.619C2958.98 115.938 2967.09 119.61 2974.24 124.635C2981.58 129.467 2987.38 136.039 2991.63 144.35C2995.88 152.66 2998 162.421 2998 173.631C2998 188.9 2994.04 201.269 2986.12 210.74C2978.39 220.017 2966.61 226.782 2950.77 231.034C2935.13 235.093 2914.55 237.122 2889.06 237.122C2882.3 237.122 2873.99 236.736 2864.14 235.962C2854.29 235.189 2846.18 234.416 2839.8 233.643L2830.24 232.483L2803.01 237.122V28.384L2830.24 24.0353V127.825C2840.09 127.051 2854.48 123.959 2873.41 118.547C2892.34 112.942 2908.18 110.14 2920.93 110.14ZM2893.69 232.483C2907.41 232.483 2919.38 230.841 2929.62 227.555C2940.05 224.269 2948.16 219.727 2953.96 213.929C2959.75 208.131 2964 201.849 2966.71 195.085C2969.41 188.32 2970.76 181.169 2970.76 173.631C2970.76 156.429 2965.94 142.61 2956.28 132.173C2946.81 121.543 2935.03 115.745 2920.93 114.778C2908.18 114.778 2892.34 117.581 2873.41 123.186C2854.48 128.598 2840.09 131.69 2830.24 132.463V228.135C2857.09 231.034 2878.24 232.483 2893.69 232.483Z" fill="#CDD2C2" fill-opacity="0.1"/>
</g>
<defs>
<filter id="filter0_f_25_59" x="-1152" y="0" width="4174" height="302" filterUnits="userSpaceOnUse" color-interpolation-filters="sRGB">
<feFlood flood-opacity="0" result="BackgroundImageFix"/>
<feBlend mode="normal" in="SourceGraphic" in2="BackgroundImageFix" result="shape"/>
<feGaussianBlur stdDeviation="12" result="effect1_foregroundBlur_25_59"/>
</filter>
</defs>
</svg>
