<svg width="2973" height="408" viewBox="0 0 2973 408" fill="none" xmlns="http://www.w3.org/2000/svg">
<g filter="url(#filter0_f_14_22)">
<path d="M316.669 22L322.969 25.8775L136.863 348.679C128.462 363.866 115.7 373.398 98.5752 377.276C81.7739 380.83 66.265 377.599 52.0485 367.582L59.3183 352.557C65.4572 357.403 72.5655 361.281 80.643 364.189C89.0437 367.097 98.0905 367.259 107.784 364.674C117.477 362.089 124.908 355.465 130.078 344.802L183.874 252.226L153.341 276.945L22 51.0812L57.8643 22L187.751 245.441L316.669 22Z" fill="#CDD2C2" fill-opacity="0.1"/>
<path d="M616.824 29.2703L662.382 22V370.49L616.824 378.245V173.707C592.915 173.707 558.828 178.715 514.563 188.732C470.298 198.749 436.21 203.758 412.301 203.758V370.49L366.743 378.245V29.2703L412.301 22V196.487C436.21 196.487 470.298 191.479 514.563 181.462C558.828 171.122 592.915 165.952 616.824 165.952V29.2703Z" fill="#CDD2C2" fill-opacity="0.1"/>
<path d="M986.005 29.2703L1031.56 22V370.49L986.005 378.245V105.851L781.481 369.521V370.49L735.924 378.245V29.2703L781.481 22V356.919L986.005 93.7337V29.2703Z" fill="#CDD2C2" fill-opacity="0.1"/>
<path d="M1319.68 29.2703L1365.24 22V370.49L1319.68 378.245V264.344C1291.89 264.344 1267.02 263.213 1245.04 260.951C1223.07 258.689 1202.23 254.973 1182.52 249.803C1163.14 244.633 1146.98 237.847 1134.06 229.446C1121.13 220.722 1110.96 209.897 1103.53 196.972C1096.09 183.724 1092.38 168.375 1092.38 150.927V29.2703L1137.94 22V143.172C1137.94 165.467 1141.49 183.885 1148.6 198.426C1155.71 212.967 1167.02 224.599 1182.52 233.324C1198.36 241.725 1217.1 247.703 1238.74 251.257C1260.39 254.811 1287.37 256.75 1319.68 257.073V29.2703Z" fill="#CDD2C2" fill-opacity="0.1"/>
<path d="M1653.86 29.2703L1698.93 22V67.5606L1653.86 74.8309V37.0253H1577.77V370.49L1532.21 378.245V37.0253H1456.61V67.5606L1411.05 74.8309V29.2703L1456.61 22V29.2703H1532.21L1577.77 22V29.2703H1653.86Z" fill="#CDD2C2" fill-opacity="0.1"/>
<path d="M2122.53 251.257C2109.93 262.566 2096.36 271.291 2081.82 277.43C2067.6 283.569 2053.87 286.639 2040.62 286.639C2025.44 286.639 2011.71 284.377 1999.43 279.854C1989.09 292.779 1977.62 305.703 1965.02 318.628C1952.42 331.23 1938.85 342.54 1924.31 352.557C1910.09 362.573 1894.91 370.652 1878.75 376.791C1862.6 382.93 1845.79 386 1828.35 386C1812.19 386 1798.62 383.577 1787.64 378.73C1776.97 373.883 1768.25 367.42 1761.46 359.342C1755 350.941 1750.32 341.57 1747.41 331.23C1744.83 320.567 1743.53 309.419 1743.53 297.787C1743.53 280.015 1746.28 261.759 1751.77 243.017C1757.59 224.276 1765.5 206.181 1775.52 188.732C1785.86 170.96 1797.98 154.158 1811.87 138.325C1825.76 122.169 1840.79 107.951 1856.94 95.6724C1873.1 83.3937 1890.06 73.2152 1907.83 65.1371C1925.92 57.059 1944.02 52.2122 1962.11 50.5965C1972.45 40.9028 1981.82 34.7634 1990.22 32.1784C1998.94 29.5934 2007.18 28.3009 2014.94 28.3009C2034.32 28.3009 2048.54 35.5712 2057.59 50.1118C2066.96 64.6525 2071.64 83.2321 2071.64 105.851C2071.64 120.068 2069.54 134.932 2065.34 150.442C2061.46 165.629 2056.3 180.654 2049.83 195.518C2043.37 210.059 2036.1 224.276 2028.02 238.17C2019.95 251.742 2011.87 264.02 2003.79 275.007C2009.28 277.592 2014.94 279.207 2020.75 279.854C2026.89 280.5 2033.19 280.823 2039.66 280.823C2047.41 280.823 2055 279.854 2062.43 277.915C2070.19 275.976 2077.62 273.391 2084.73 270.16C2091.84 266.929 2098.3 263.374 2104.11 259.497C2110.25 255.619 2115.42 251.742 2119.62 247.864L2122.53 251.257ZM1915.58 159.166C1915.58 140.425 1919.14 122.33 1926.25 104.881C1933.68 87.1096 1943.69 71.4381 1956.3 57.8668L1955.33 56.8974C1939.17 60.1287 1923.99 66.4296 1909.77 75.8003C1895.55 84.8478 1882.31 95.9956 1870.03 109.244C1858.07 122.169 1847.25 136.709 1837.56 152.865C1828.19 169.022 1820.11 185.663 1813.32 202.788C1806.86 219.914 1801.85 237.039 1798.3 254.165C1794.74 270.968 1792.97 286.962 1792.97 302.149C1792.97 311.843 1793.78 321.213 1795.39 330.261C1797.01 339.308 1799.59 347.387 1803.15 354.495C1807.02 361.281 1812.03 366.774 1818.17 370.975C1824.63 375.175 1832.55 377.276 1841.92 377.276C1856.13 377.276 1870.19 373.883 1884.08 367.097C1897.98 359.988 1911.06 351.264 1923.34 340.924C1935.94 330.584 1947.09 319.275 1956.78 306.996C1966.8 294.394 1974.87 282.6 1981.01 271.614C1971 266.121 1961.95 259.497 1953.87 251.742C1945.79 243.664 1938.85 234.778 1933.03 225.084C1927.54 215.067 1923.18 204.565 1919.95 193.579C1917.04 182.27 1915.58 170.799 1915.58 159.166ZM1998.94 108.274C1999.59 106.336 2000.08 103.589 2000.4 100.035C2000.72 96.4802 2000.88 93.249 2000.88 90.3409C2000.88 85.8171 2000.24 81.4549 1998.94 77.2543C1997.65 72.7306 1995.55 69.0146 1992.64 66.1065C1989.74 62.8753 1985.86 60.4518 1981.01 58.8362C1976.49 56.8975 1970.67 56.0896 1963.57 56.4128C1958.72 61.5828 1954.52 67.8837 1950.96 75.3156C1947.41 82.4243 1944.34 90.1793 1941.76 98.5806C1939.49 106.659 1937.72 115.06 1936.42 123.784C1935.46 132.186 1934.97 140.102 1934.97 147.534C1934.97 158.197 1935.78 169.345 1937.39 180.977C1939.01 192.61 1941.76 203.919 1945.63 214.905C1949.51 225.569 1954.52 235.424 1960.66 244.471C1967.12 253.519 1975.2 260.789 1984.89 266.282C1992 254.65 1998.46 242.048 2004.28 228.477C2010.41 214.582 2015.58 200.526 2019.78 186.309C2023.99 171.768 2027.22 157.389 2029.48 143.172C2031.74 128.631 2032.87 114.737 2032.87 101.489C2032.87 93.0874 2032.22 85.1709 2030.93 77.739C2029.64 70.3071 2027.54 63.8446 2024.63 58.3515C2021.72 52.5353 2017.85 48.0115 2013 44.7803C2008.15 41.549 2002.18 39.9334 1995.07 39.9334C1989.25 39.9334 1984.24 40.9028 1980.04 42.8415C1975.84 44.7803 1972.13 47.3653 1968.9 50.5965C1976 50.9197 1981.98 52.2122 1986.83 54.474C1991.67 56.7359 1995.55 59.8056 1998.46 63.6831C2001.37 67.2375 2003.47 71.4381 2004.76 76.2849C2006.05 81.1318 2006.7 85.9787 2006.7 90.8255C2006.7 94.703 2006.38 98.0959 2005.73 101.004C2005.41 103.589 2004.92 106.174 2004.28 108.759L1998.94 108.274Z" fill="#CDD2C2" fill-opacity="0.1"/>
<path d="M2398.4 173.707C2420.7 174.353 2441.37 179.523 2460.44 189.217C2479.82 198.911 2495.82 211.028 2508.42 225.569C2521.34 239.786 2532.33 255.781 2541.37 273.553C2550.42 291.001 2556.88 308.127 2560.76 324.929C2564.96 341.409 2567.06 356.596 2567.06 370.49L2537.01 378.245C2537.01 370.167 2536.2 361.119 2534.59 351.103C2532.97 340.763 2530.39 329.453 2526.83 317.174C2523.28 304.573 2518.92 292.132 2513.75 279.854C2508.58 267.575 2501.96 255.619 2493.88 243.987C2485.8 232.031 2476.75 221.529 2466.74 212.482C2457.04 203.435 2445.41 196.164 2431.84 190.671C2418.59 184.855 2404.38 181.785 2389.19 181.462L2347.51 216.359V370.49L2301.96 378.245V214.421L2262.7 181.462C2244.93 181.785 2228.45 185.824 2213.26 193.579C2198.08 201.011 2185.32 210.705 2174.98 222.66C2164.64 234.293 2155.43 247.218 2147.35 261.435C2139.27 275.33 2132.97 289.709 2128.45 304.573C2123.93 319.436 2120.53 333.169 2118.27 345.771C2116.01 358.05 2114.88 368.874 2114.88 378.245L2084.83 370.49C2084.83 356.596 2086.77 341.409 2090.65 324.929C2094.85 308.127 2101.47 291.001 2110.52 273.553C2119.56 255.781 2130.39 239.786 2142.99 225.569C2155.91 211.028 2171.91 198.911 2190.97 189.217C2210.36 179.523 2231.2 174.353 2253.49 173.707L2079.5 27.8162L2084.35 22L2301.96 204.242V29.2703L2347.51 22V206.666L2567.54 22L2572.39 27.8162L2398.4 173.707Z" fill="#CDD2C2" fill-opacity="0.1"/>
<path d="M2822.08 165.952C2839.53 165.952 2855.68 167.891 2870.55 171.768C2885.73 175.646 2899.3 181.785 2911.26 190.186C2923.54 198.265 2933.23 209.251 2940.34 223.145C2947.45 237.039 2951 253.357 2951 272.099C2951 297.625 2944.38 318.305 2931.13 334.138C2918.21 349.648 2898.5 360.958 2872 368.067C2845.83 374.852 2811.42 378.245 2768.77 378.245C2757.46 378.245 2743.57 377.599 2727.09 376.306C2710.61 375.014 2697.04 373.721 2686.38 372.429L2670.39 370.49L2624.83 378.245V29.2703L2670.39 22V195.518C2686.86 194.225 2710.94 189.055 2742.6 180.008C2774.26 170.637 2800.76 165.952 2822.08 165.952ZM2776.53 370.49C2799.47 370.49 2819.5 367.743 2836.62 362.25C2854.07 356.757 2867.64 349.164 2877.33 339.47C2887.03 329.776 2894.13 319.275 2898.66 307.965C2903.18 296.656 2905.44 284.7 2905.44 272.099C2905.44 243.34 2897.37 220.237 2881.21 202.788C2865.38 185.016 2845.67 175.323 2822.08 173.707C2800.76 173.707 2774.26 178.392 2742.6 187.763C2710.94 196.81 2686.86 201.98 2670.39 203.273V363.22C2715.3 368.067 2750.68 370.49 2776.53 370.49Z" fill="#CDD2C2" fill-opacity="0.1"/>
</g>
<defs>
<filter id="filter0_f_14_22" x="0" y="0" width="2973" height="408" filterUnits="userSpaceOnUse" color-interpolation-filters="sRGB">
<feFlood flood-opacity="0" result="BackgroundImageFix"/>
<feBlend mode="normal" in="SourceGraphic" in2="BackgroundImageFix" result="shape"/>
<feGaussianBlur stdDeviation="11" result="effect1_foregroundBlur_14_22"/>
</filter>
</defs>
</svg>
