<svg width="3358" height="302" viewBox="0 0 3358 302" fill="none" xmlns="http://www.w3.org/2000/svg">
<g filter="url(#filter0_f_14_298)">
<path d="M181.433 28.6102L210.113 24.0371V243.244L181.433 248.122V119.464C166.382 119.464 144.923 122.614 117.057 128.915C89.1904 135.216 67.7315 138.366 52.6797 138.366V243.244L24 248.122V28.6102L52.6797 24.0371V133.793C67.7315 133.793 89.1904 130.643 117.057 124.342C144.923 117.838 166.382 114.586 181.433 114.586V28.6102Z" fill="#CDD2C2" fill-opacity="0.1"/>
<path d="M375.4 28.6102L404.08 24.0371V52.6956L375.4 57.2687V33.4883H284.785V133.488C294.141 132.878 308.176 129.626 326.889 123.732C345.602 117.634 360.145 114.586 370.519 114.586V119.464C360.145 119.464 345.602 122.512 326.889 128.61C308.176 134.504 294.141 137.756 284.785 138.366V238.671H375.4V228.915L404.08 224.342V243.244L375.4 248.122V243.244H284.785L256.105 248.122V28.6102L284.785 24.0371V28.6102H375.4Z" fill="#CDD2C2" fill-opacity="0.1"/>
<path d="M595.594 28.6102L624.274 24.0371V243.244L595.594 248.122V33.4883H466.841V243.244L438.161 248.122V28.6102L466.841 24.0371V28.6102H595.594Z" fill="#CDD2C2" fill-opacity="0.1"/>
<path d="M770.631 24.0371C783.649 24.0371 795.751 26.0696 806.938 30.1346C818.329 34.1997 827.889 40.7037 835.618 49.6468C843.347 58.5898 847.212 69.0573 847.212 81.0492C847.212 93.2443 843.449 103.813 835.923 112.756C828.601 121.699 819.549 128.204 808.769 132.269C798.192 136.334 787.106 138.366 775.513 138.366H699.237V243.244L670.557 248.122V28.6102L699.237 24.0371H770.631ZM775.513 133.793C783.445 133.793 790.361 132.269 796.26 129.22C802.158 125.968 806.633 121.699 809.684 116.415C812.735 111.13 814.973 105.643 816.396 99.9516C817.82 94.0573 818.532 87.7565 818.532 81.0492C818.532 66.6183 813.345 54.3216 802.972 44.159C792.802 33.7932 780.496 28.6102 766.054 28.6102H699.237V133.793H775.513Z" fill="#CDD2C2" fill-opacity="0.1"/>
<path d="M940.428 30.7444C954.056 26.2728 968.803 24.0371 984.668 24.0371C1000.74 24.0371 1015.48 26.2728 1028.91 30.7444C1042.54 35.0127 1054.64 41.5167 1065.22 50.2565C1075.79 58.7931 1084.13 70.2768 1090.23 84.7077C1096.34 98.9353 1099.39 115.297 1099.39 133.793C1099.39 152.289 1096.34 168.955 1090.23 183.793C1084.13 198.427 1075.79 210.419 1065.22 219.768C1054.64 228.915 1042.54 235.927 1028.91 240.805C1015.28 245.683 1000.53 248.122 984.668 248.122C969.006 248.122 954.361 245.683 940.733 240.805C927.105 235.927 915.003 228.915 904.426 219.768C893.849 210.419 885.509 198.427 879.407 183.793C873.305 168.955 870.254 152.289 870.254 133.793C870.254 115.297 873.305 98.9353 879.407 84.7077C885.509 70.2768 893.849 58.7931 904.426 50.2565C915.003 41.5167 927.003 35.0127 940.428 30.7444ZM994.431 243.244C1003.58 243.244 1012.03 241.821 1019.76 238.976C1027.48 235.927 1034.09 231.76 1039.59 226.476C1045.08 221.191 1049.86 215.094 1053.93 208.183C1057.99 201.273 1061.25 193.651 1063.69 185.317C1066.13 176.984 1067.86 168.549 1068.88 160.012C1070.1 151.476 1070.71 142.736 1070.71 133.793C1070.71 118.956 1068.77 105.541 1064.91 93.5491C1061.05 81.5573 1055.86 71.598 1049.35 63.6711C1043.04 55.7443 1035.72 49.1386 1027.38 43.8541C1019.04 38.3663 1010.5 34.5045 1001.75 32.2688C993.008 29.8297 984.16 28.6102 975.21 28.6102C964.226 28.6102 954.259 30.6428 945.31 34.7078C936.563 38.5696 929.343 43.8541 923.647 50.5614C917.952 57.0655 913.172 64.8906 909.308 74.037C905.443 83.1833 902.697 92.7361 901.07 102.695C899.646 112.452 898.934 122.817 898.934 133.793C898.934 148.427 900.866 161.943 904.731 174.342C908.596 186.74 913.681 197.106 919.986 205.439C926.495 213.772 933.919 220.886 942.259 226.781C950.598 232.472 959.141 236.638 967.887 239.281C976.634 241.923 985.482 243.244 994.431 243.244Z" fill="#CDD2C2" fill-opacity="0.1"/>
<path d="M1295.77 244.768L1319.57 244.463V273.122L1290.89 278V249.342H1119.12V273.122L1090.44 278V244.463H1114.24C1127.25 244.463 1137.63 239.992 1145.36 231.049C1153.29 222.106 1157.26 207.573 1157.26 187.451C1157.26 157.777 1158.07 129.83 1159.7 103.61C1161.32 77.3906 1162.85 58.5898 1164.27 47.2078L1166.71 30.1346H1267.09L1295.77 25.2566V244.768ZM1138.03 244.463H1267.09V34.7078H1170.68C1164.99 73.9353 1162.14 126.374 1162.14 192.025C1162.14 205.236 1160 216.313 1155.73 225.256C1151.46 233.996 1145.56 240.398 1138.03 244.463Z" fill="#CDD2C2" fill-opacity="0.1"/>
<path d="M1515.31 24.0371L1519.28 26.4761L1402.12 229.524C1396.83 239.077 1388.8 245.073 1378.02 247.512C1367.44 249.748 1357.68 247.715 1348.73 241.415L1353.3 231.964C1357.17 235.012 1361.64 237.451 1366.73 239.281C1372.02 241.11 1377.71 241.211 1383.81 239.585C1389.91 237.959 1394.59 233.793 1397.85 227.085L1431.71 168.854L1412.49 184.403L1329.81 42.3297L1352.39 24.0371L1434.15 164.586L1515.31 24.0371Z" fill="#CDD2C2" fill-opacity="0.1"/>
<path d="M1701.52 118.244C1716.98 122.106 1729.29 129.321 1738.44 139.891C1747.8 150.256 1752.48 164.077 1752.48 181.354C1752.48 205.338 1743.32 222.512 1725.02 232.878C1706.91 243.041 1677.83 248.122 1637.76 248.122C1634.5 248.122 1630.84 248.02 1626.77 247.817C1622.7 247.614 1618.74 247.411 1614.87 247.207C1611.01 247.004 1607.14 246.699 1603.28 246.293C1599.41 245.886 1595.86 245.581 1592.6 245.378C1589.35 244.972 1586.4 244.667 1583.75 244.463C1581.31 244.057 1579.38 243.752 1577.96 243.549L1575.82 243.244L1547.14 248.122V28.6102L1575.82 24.0371H1656.98C1664.71 24.0371 1672.13 24.5452 1679.25 25.5615C1686.37 26.5777 1693.18 28.3054 1699.69 30.7444C1706.4 33.1834 1712.2 36.2322 1717.08 39.8907C1721.96 43.5492 1725.83 48.224 1728.68 53.9151C1731.73 59.6061 1733.25 66.0085 1733.25 73.1224C1733.25 86.7402 1730.2 97.2077 1724.1 104.525C1718.2 111.639 1710.68 116.212 1701.52 118.244ZM1652.1 28.6102H1575.82V133.183C1586.4 132.37 1601.14 129.22 1620.06 123.732C1639.18 118.041 1654.84 114.992 1667.05 114.586H1666.44C1678.44 114.586 1687.79 110.622 1694.51 102.695C1701.22 94.5654 1704.57 84.1996 1704.57 71.5979C1704.57 64.2809 1703.05 57.7769 1700 52.0858C1696.95 46.3948 1692.78 41.9232 1687.49 38.6712C1682.4 35.4192 1676.81 32.9802 1670.71 31.3541C1664.81 29.5249 1658.6 28.6102 1652.1 28.6102ZM1642.64 243.244C1657.08 243.244 1669.69 241.516 1680.47 238.061C1691.45 234.606 1700 229.829 1706.1 223.732C1712.2 217.634 1716.68 211.029 1719.52 203.915C1722.37 196.801 1723.8 189.281 1723.8 181.354C1723.8 163.264 1718.71 148.732 1708.54 137.756C1698.57 126.578 1686.17 120.48 1671.32 119.464C1657.89 119.464 1641.21 122.411 1621.28 128.305C1601.35 133.996 1586.19 137.248 1575.82 138.061V238.671C1604.09 241.72 1626.37 243.244 1642.64 243.244Z" fill="#CDD2C2" fill-opacity="0.1"/>
<path d="M1950.83 249.037L1916.04 172.817C1902.82 173.224 1883.3 176.374 1857.46 182.268C1831.63 188.163 1811.6 191.212 1797.36 191.415L1771.42 249.342L1767.15 247.207L1857.77 44.159L1856.24 41.1102L1860.21 38.0614L1879.74 24.0371L1974.32 231.964L1950.83 249.037ZM1799.49 186.842C1813.12 186.435 1832.45 183.386 1857.46 177.695C1882.48 172.004 1901.3 168.752 1913.91 167.939L1860.21 49.9517L1799.49 186.842Z" fill="#CDD2C2" fill-opacity="0.1"/>
<path d="M2123.19 28.6102L2151.87 24.0371V52.6956L2123.19 57.2687V33.4883H2032.57V133.488C2041.93 132.878 2055.97 129.626 2074.68 123.732C2093.39 117.634 2107.93 114.586 2118.31 114.586V119.464C2107.93 119.464 2093.39 122.512 2074.68 128.61C2055.97 134.504 2041.93 137.756 2032.57 138.366V238.671H2123.19V228.915L2151.87 224.342V243.244L2123.19 248.122V243.244H2032.57L2003.89 248.122V28.6102L2032.57 24.0371V28.6102H2123.19Z" fill="#CDD2C2" fill-opacity="0.1"/>
<path d="M2381.52 28.6102L2410.2 24.0371V243.244L2381.52 248.122V39.5858L2300.97 178.915L2304.03 184.098L2295.79 188.976L2214.63 48.4273V243.244L2185.95 248.122V28.6102L2214.63 24.0371V29.5249L2298.23 174.342L2381.52 29.8297V28.6102Z" fill="#CDD2C2" fill-opacity="0.1"/>
<path d="M2519.58 30.7444C2533.2 26.2728 2547.95 24.0371 2563.82 24.0371C2579.89 24.0371 2594.63 26.2728 2608.06 30.7444C2621.68 35.0127 2633.79 41.5167 2644.36 50.2565C2654.94 58.7931 2663.28 70.2768 2669.38 84.7077C2675.48 98.9353 2678.54 115.297 2678.54 133.793C2678.54 152.289 2675.48 168.955 2669.38 183.793C2663.28 198.427 2654.94 210.419 2644.36 219.768C2633.79 228.915 2621.68 235.927 2608.06 240.805C2594.43 245.683 2579.68 248.122 2563.82 248.122C2548.15 248.122 2533.51 245.683 2519.88 240.805C2506.25 235.927 2494.15 228.915 2483.57 219.768C2473 210.419 2464.66 198.427 2458.56 183.793C2452.45 168.955 2449.4 152.289 2449.4 133.793C2449.4 115.297 2452.45 98.9353 2458.56 84.7077C2464.66 70.2768 2473 58.7931 2483.57 50.2565C2494.15 41.5167 2506.15 35.0127 2519.58 30.7444ZM2573.58 243.244C2582.73 243.244 2591.17 241.821 2598.9 238.976C2606.63 235.927 2613.24 231.76 2618.74 226.476C2624.23 221.191 2629.01 215.094 2633.07 208.183C2637.14 201.273 2640.4 193.651 2642.84 185.317C2645.28 176.984 2647.01 168.549 2648.02 160.012C2649.25 151.476 2649.86 142.736 2649.86 133.793C2649.86 118.956 2647.92 105.541 2644.06 93.5491C2640.19 81.5573 2635.01 71.598 2628.5 63.6711C2622.19 55.7443 2614.87 49.1386 2606.53 43.8541C2598.19 38.3663 2589.65 34.5045 2580.9 32.2688C2572.16 29.8297 2563.31 28.6102 2554.36 28.6102C2543.37 28.6102 2533.41 30.6428 2524.46 34.7078C2515.71 38.5696 2508.49 43.8541 2502.8 50.5614C2497.1 57.0655 2492.32 64.8906 2488.46 74.037C2484.59 83.1833 2481.85 92.7361 2480.22 102.695C2478.79 112.452 2478.08 122.817 2478.08 133.793C2478.08 148.427 2480.01 161.943 2483.88 174.342C2487.74 186.74 2492.83 197.106 2499.13 205.439C2505.64 213.772 2513.07 220.886 2521.41 226.781C2529.75 232.472 2538.29 236.638 2547.04 239.281C2555.78 241.923 2564.63 243.244 2573.58 243.244Z" fill="#CDD2C2" fill-opacity="0.1"/>
<path d="M2898.13 200.561L2906.36 215.5C2894.97 226.476 2881.96 234.809 2867.31 240.5C2852.67 246.191 2837.41 248.732 2821.55 248.122C2805.88 248.122 2791.24 245.683 2777.61 240.805C2763.98 235.927 2751.88 228.915 2741.3 219.768C2730.73 210.419 2722.39 198.427 2716.28 183.793C2710.18 168.955 2707.13 152.289 2707.13 133.793C2707.13 115.297 2710.18 98.9353 2716.28 84.7077C2722.39 70.2768 2730.73 58.7931 2741.3 50.2565C2751.88 41.5167 2763.88 35.0127 2777.31 30.7444C2790.93 26.2728 2805.68 24.0371 2821.55 24.0371C2847.38 23.4273 2871.07 30.3379 2892.63 44.7687L2884.09 63.976C2875.55 53.0004 2864.87 44.4639 2852.06 38.3663C2839.44 32.0655 2826.12 28.8135 2812.09 28.6102C2801.1 28.6102 2791.14 30.6428 2782.19 34.7078C2773.44 38.5696 2766.22 43.8541 2760.52 50.5614C2754.83 57.0655 2750.05 64.8906 2746.18 74.037C2742.32 83.1833 2739.57 92.7361 2737.95 102.695C2736.52 112.452 2735.81 122.817 2735.81 133.793C2735.81 148.427 2737.74 161.943 2741.61 174.342C2745.47 186.74 2750.56 197.106 2756.86 205.439C2763.37 213.772 2770.8 220.886 2779.14 226.781C2787.48 232.472 2796.02 236.638 2804.76 239.281C2813.51 241.923 2822.36 243.244 2831.31 243.244C2845.55 243.041 2858.67 239.077 2870.67 231.354C2882.67 223.63 2891.82 213.366 2898.13 200.561Z" fill="#CDD2C2" fill-opacity="0.1"/>
<path d="M3071.6 28.6102L3099.98 24.0371V52.6956L3071.6 57.2687V33.4883H3023.7V243.244L2995.02 248.122V33.4883H2947.43V52.6956L2918.75 57.2687V28.6102L2947.43 24.0371V28.6102H2995.02L3023.7 24.0371V28.6102H3071.6Z" fill="#CDD2C2" fill-opacity="0.1"/>
<path d="M3252.84 114.586C3263.83 114.586 3274 115.805 3283.35 118.244C3292.91 120.683 3301.46 124.545 3308.98 129.83C3316.71 134.911 3322.81 141.821 3327.29 150.561C3331.76 159.301 3334 169.565 3334 181.354C3334 197.411 3329.83 210.419 3321.49 220.378C3313.35 230.134 3300.95 237.248 3284.27 241.72C3267.79 245.988 3246.13 248.122 3219.28 248.122C3212.16 248.122 3203.42 247.715 3193.04 246.902C3182.67 246.089 3174.13 245.276 3167.41 244.463L3157.34 243.244L3128.67 248.122V28.6102L3157.34 24.0371V133.183C3167.72 132.37 3182.87 129.118 3202.81 123.427C3222.74 117.533 3239.42 114.586 3252.84 114.586ZM3224.16 243.244C3238.6 243.244 3251.22 241.516 3262 238.061C3272.98 234.606 3281.52 229.829 3287.62 223.732C3293.73 217.634 3298.2 211.029 3301.05 203.915C3303.9 196.801 3305.32 189.281 3305.32 181.354C3305.32 163.264 3300.24 148.732 3290.06 137.756C3280.1 126.578 3267.69 120.48 3252.84 119.464C3239.42 119.464 3222.74 122.411 3202.81 128.305C3182.87 133.996 3167.72 137.248 3157.34 138.061V238.671C3185.62 241.72 3207.89 243.244 3224.16 243.244Z" fill="#CDD2C2" fill-opacity="0.1"/>
</g>
<defs>
<filter id="filter0_f_14_298" x="0" y="0" width="3358" height="302" filterUnits="userSpaceOnUse" color-interpolation-filters="sRGB">
<feFlood flood-opacity="0" result="BackgroundImageFix"/>
<feBlend mode="normal" in="SourceGraphic" in2="BackgroundImageFix" result="shape"/>
<feGaussianBlur stdDeviation="12" result="effect1_foregroundBlur_14_298"/>
</filter>
</defs>
</svg>
