<svg width="3175" height="403" viewBox="0 0 3175 403" fill="none" xmlns="http://www.w3.org/2000/svg">
<g filter="url(#filter0_f_14_158)">
<path d="M145.077 22.6499C169.565 22.6499 192.463 26.4594 213.771 34.0785C235.397 41.6975 254.319 52.8086 270.539 67.4118C287.076 81.6975 300.115 100.428 309.656 123.602C319.197 146.459 323.968 172.332 323.968 201.221C323.968 230.11 319.197 255.825 309.656 278.364C300.434 300.586 287.394 318.523 270.539 332.174C254.001 345.507 235.079 355.666 213.771 362.65C192.781 369.317 169.883 372.65 145.077 372.65C125.677 372.65 104.528 368.364 81.6302 359.793C58.7322 350.904 38.8555 340.428 22 328.364L34.8801 305.507C50.7815 323.602 69.5452 337.888 91.1711 348.364C112.797 358.523 135.695 364.078 159.865 365.031C174.494 365.031 187.693 362.967 199.46 358.84C211.545 354.713 221.881 348.84 230.467 341.221C239.054 333.285 246.528 324.237 252.888 314.078C259.249 303.92 264.337 292.65 268.154 280.269C271.97 267.571 274.673 254.872 276.263 242.174C278.172 229.158 279.126 215.507 279.126 201.221C279.126 191.38 278.49 181.539 277.217 171.698C253.365 171.698 219.018 176.618 174.176 186.459C129.334 196.301 94.6694 201.221 70.1812 201.221V194.078C94.6694 194.078 129.175 189.158 173.699 179.317C218.541 169.475 252.729 164.396 276.263 164.078C272.447 141.856 265.45 122.015 255.274 104.555C245.415 86.7769 233.489 72.6499 219.495 62.1737C205.82 51.6975 191.35 43.761 176.085 38.3642C160.819 32.6499 145.395 29.7928 129.811 29.7928C122.497 29.7928 115.341 30.7451 108.345 32.6499C101.666 34.5547 95.6235 37.0943 90.217 40.2689C85.1286 43.4436 80.1991 46.9356 75.4287 50.7451C70.9763 54.2372 67.16 57.888 63.9797 61.6975C60.7994 65.507 57.9372 68.9991 55.3929 72.1737C53.1667 75.3483 51.4176 78.0467 50.1455 80.2689C48.8734 82.1737 48.0783 83.1261 47.7603 83.1261L34.8801 59.7928C60.0043 35.0309 96.7366 22.6499 145.077 22.6499Z" fill="#CDD2C2" fill-opacity="0.1"/>
<path d="M575.753 29.7928L620.117 22.6499V67.4118L575.753 74.5546V37.4118H500.857V365.031L456.015 372.65V37.4118H381.596V67.4118L336.755 74.5546V29.7928L381.596 22.6499V29.7928H456.015L500.857 22.6499V29.7928H575.753Z" fill="#CDD2C2" fill-opacity="0.1"/>
<path d="M738.461 33.1261C759.769 26.142 782.826 22.6499 807.632 22.6499C832.756 22.6499 855.813 26.142 876.803 33.1261C898.111 39.7927 917.034 49.9515 933.571 63.6023C950.109 76.9356 963.148 94.8721 972.689 117.412C982.23 139.634 987 165.19 987 194.078C987 222.967 982.23 248.999 972.689 272.174C963.148 295.031 950.109 313.761 933.571 328.364C917.034 342.65 898.111 353.602 876.803 361.221C855.495 368.84 832.438 372.65 807.632 372.65C783.144 372.65 760.246 368.84 738.938 361.221C717.63 353.602 698.708 342.65 682.17 328.364C665.633 313.761 652.594 295.031 643.053 272.174C633.512 248.999 628.741 222.967 628.741 194.078C628.741 165.19 633.512 139.634 643.053 117.412C652.594 94.8721 665.633 76.9356 682.17 63.6023C698.708 49.9515 717.471 39.7927 738.461 33.1261ZM822.898 365.031C837.209 365.031 850.407 362.809 862.492 358.364C874.577 353.602 884.913 347.094 893.5 338.84C902.086 330.586 909.56 321.063 915.921 310.269C922.281 299.475 927.37 287.571 931.186 274.555C935.002 261.539 937.706 248.364 939.296 235.031C941.204 221.698 942.158 208.047 942.158 194.078C942.158 170.904 939.137 149.951 933.094 131.221C927.052 112.491 918.942 96.9356 908.765 84.5547C898.906 72.1737 887.457 61.8562 874.418 53.6023C861.379 45.0308 848.022 38.9991 834.347 35.507C820.671 31.6975 806.837 29.7928 792.844 29.7928C775.67 29.7928 760.087 32.9674 746.094 39.3166C732.419 45.3483 721.129 53.6023 712.224 64.0785C703.319 74.2372 695.845 86.4594 689.803 100.745C683.76 115.031 679.467 129.951 676.923 145.507C674.697 160.745 673.583 176.936 673.583 194.078C673.583 216.936 676.605 238.047 682.647 257.412C688.69 276.777 696.64 292.967 706.499 305.983C716.676 318.999 728.284 330.11 741.323 339.317C754.362 348.205 767.72 354.713 781.395 358.84C795.07 362.967 808.904 365.031 822.898 365.031Z" fill="#CDD2C2" fill-opacity="0.1"/>
</g>
<g filter="url(#filter1_f_14_158)">
<path d="M1366.11 29.8004L1410.95 22.6499V365.396L1366.11 373.023V37.4275H1164.83V365.396L1120 373.023V29.8004L1164.83 22.6499V29.8004H1366.11Z" fill="#CDD2C2" fill-opacity="0.1"/>
<path d="M1743.63 374.453L1689.25 255.278C1668.58 255.914 1638.06 260.84 1597.67 270.056C1557.29 279.272 1525.97 284.039 1503.71 284.357L1463.17 374.93L1456.49 371.593L1598.15 54.1119L1595.77 49.345L1601.97 44.578L1632.49 22.6499L1780.35 347.758L1743.63 374.453ZM1507.05 277.206C1528.35 276.571 1558.56 271.804 1597.67 262.906C1636.79 254.007 1666.2 248.922 1685.91 247.651L1601.97 63.1692L1507.05 277.206Z" fill="#CDD2C2" fill-opacity="0.1"/>
<path d="M2029.3 29.8004L2073.66 22.6499V365.396L2029.3 373.023V37.4275H1878.58C1869.36 98.7626 1864.74 180.755 1864.74 283.404C1864.74 312.323 1858.39 334.569 1845.67 350.141C1833.27 365.396 1817.37 373.023 1797.97 373.023L1790.34 365.396C1810.69 365.396 1826.91 358.404 1838.99 344.421C1851.39 330.438 1857.59 307.715 1857.59 276.253C1857.59 229.855 1858.7 186.157 1860.93 145.161C1863.47 104.165 1866.02 74.6099 1868.56 56.4954L1872.38 29.8004H2029.3Z" fill="#CDD2C2" fill-opacity="0.1"/>
<path d="M2339.78 164.229C2356.95 164.229 2372.85 166.136 2387.47 169.949C2402.42 173.763 2415.77 179.801 2427.54 188.064C2439.62 196.009 2449.16 206.814 2456.16 220.479C2463.15 234.145 2466.65 250.194 2466.65 268.626C2466.65 293.732 2460.13 314.071 2447.09 329.643C2434.38 344.898 2414.98 356.021 2388.9 363.012C2363.15 369.686 2329.28 373.023 2287.31 373.023C2276.18 373.023 2262.51 372.387 2246.29 371.116C2230.07 369.845 2216.72 368.574 2206.23 367.302L2190.49 365.396L2145.65 373.023V29.8004L2190.49 22.6499V193.308C2206.7 192.036 2230.39 186.952 2261.55 178.053C2292.72 168.837 2318.79 164.229 2339.78 164.229ZM2294.94 365.396C2317.52 365.396 2337.23 362.694 2354.09 357.292C2371.26 351.889 2384.61 344.421 2394.15 334.887C2403.69 325.353 2410.69 315.025 2415.14 303.902C2419.59 292.779 2421.82 281.02 2421.82 268.626C2421.82 240.342 2413.87 217.619 2397.97 200.458C2382.39 182.979 2362.99 173.445 2339.78 171.856C2318.79 171.856 2292.72 176.464 2261.55 185.681C2230.39 194.579 2206.7 199.664 2190.49 200.935V358.245C2234.69 363.012 2269.5 365.396 2294.94 365.396Z" fill="#CDD2C2" fill-opacity="0.1"/>
<path d="M2676.88 29.8004L2721.23 22.6499V67.4595L2676.88 74.6099V37.4275H2601.99V365.396L2557.16 373.023V37.4275H2482.75V67.4595L2437.92 74.6099V29.8004L2482.75 22.6499V29.8004H2557.16L2601.99 22.6499V29.8004H2676.88Z" fill="#CDD2C2" fill-opacity="0.1"/>
<path d="M3138.11 248.128C3125.71 259.251 3112.36 267.831 3098.05 273.87C3084.06 279.908 3070.54 282.927 3057.51 282.927C3042.56 282.927 3029.05 280.702 3016.96 276.253C3006.79 288.965 2995.5 301.677 2983.1 314.389C2970.7 326.783 2957.34 337.906 2943.03 347.758C2929.04 357.61 2914.1 365.554 2898.2 371.593C2882.3 377.631 2865.77 380.65 2848.6 380.65C2832.7 380.65 2819.34 378.266 2808.53 373.499C2798.04 368.732 2789.45 362.376 2782.77 354.432C2776.41 346.169 2771.8 336.953 2768.94 326.783C2766.4 316.296 2765.13 305.332 2765.13 293.891C2765.13 276.412 2767.83 258.456 2773.23 240.024C2778.96 221.592 2786.75 203.795 2796.61 186.634C2806.78 169.155 2818.71 152.629 2832.38 137.057C2846.05 121.167 2860.84 107.184 2876.74 95.108C2892.64 83.0316 2909.33 73.0209 2926.82 65.076C2944.62 57.131 2962.43 52.3641 2980.24 50.775C2990.41 41.2411 2999.63 35.2029 3007.9 32.6605C3016.49 30.1181 3024.6 28.8469 3032.23 28.8469C3051.31 28.8469 3065.3 35.9974 3074.2 50.2984C3083.42 64.5993 3088.03 82.8727 3088.03 105.119C3088.03 119.102 3085.97 133.72 3081.83 148.975C3078.02 163.911 3072.93 178.689 3066.57 193.308C3060.21 207.609 3053.05 221.592 3045.11 235.257C3037.16 248.605 3029.21 260.681 3021.26 271.486C3026.66 274.029 3032.23 275.617 3037.95 276.253C3043.99 276.889 3050.19 277.206 3056.55 277.206C3064.18 277.206 3071.66 276.253 3078.97 274.346C3086.6 272.44 3093.91 269.897 3100.91 266.719C3107.91 263.541 3114.27 260.045 3119.99 256.232C3126.03 252.418 3131.12 248.605 3135.25 244.791L3138.11 248.128ZM2934.45 157.555C2934.45 139.123 2937.95 121.326 2944.94 104.165C2952.26 86.6863 2962.11 71.2731 2974.51 57.9255L2973.56 56.9721C2957.66 60.1501 2942.72 66.3472 2928.73 75.5633C2914.73 84.4617 2901.7 95.4258 2889.61 108.455C2877.85 121.167 2867.2 135.468 2857.66 151.358C2848.44 167.248 2840.49 183.615 2833.81 200.458C2827.45 217.301 2822.52 234.145 2819.02 250.988C2815.53 267.514 2813.78 283.245 2813.78 298.181C2813.78 307.715 2814.57 316.931 2816.16 325.83C2817.75 334.728 2820.3 342.673 2823.79 349.665C2827.61 356.338 2832.54 361.741 2838.58 365.872C2844.94 370.004 2852.73 372.069 2861.95 372.069C2875.94 372.069 2889.77 368.732 2903.45 362.059C2917.12 355.067 2930 346.487 2942.08 336.317C2954.48 326.147 2965.45 315.025 2974.99 302.948C2984.85 290.554 2992.8 278.954 2998.84 268.149C2988.98 262.747 2980.08 256.232 2972.13 248.605C2964.18 240.66 2957.34 231.92 2951.62 222.386C2946.21 212.535 2941.92 202.206 2938.74 191.401C2935.88 180.278 2934.45 168.996 2934.45 157.555ZM3016.49 107.502C3017.12 105.595 3017.6 102.894 3017.92 99.3982C3018.24 95.9025 3018.4 92.7245 3018.4 89.8643C3018.4 85.4151 3017.76 81.1248 3016.49 76.9934C3015.22 72.5442 3013.15 68.8896 3010.29 66.0294C3007.42 62.8514 3003.61 60.4679 2998.84 58.8789C2994.39 56.9721 2988.66 56.1776 2981.67 56.4954C2976.9 61.5802 2972.77 67.7773 2969.27 75.0867C2965.77 82.0782 2962.75 89.7054 2960.21 97.9681C2957.98 105.913 2956.23 114.176 2954.96 122.756C2954 131.019 2953.53 138.805 2953.53 146.115C2953.53 156.602 2954.32 167.566 2955.91 179.007C2957.5 190.447 2960.21 201.57 2964.02 212.376C2967.84 222.863 2972.77 232.556 2978.81 241.454C2985.17 250.353 2993.12 257.503 3002.66 262.906C3009.65 251.465 3016.01 239.071 3021.73 225.723C3027.78 212.058 3032.86 198.234 3037 184.25C3041.13 169.95 3044.31 155.807 3046.54 141.824C3048.76 127.523 3049.87 113.858 3049.87 100.828C3049.87 92.5656 3049.24 84.7795 3047.97 77.4701C3046.69 70.1608 3044.63 63.8048 3041.77 58.4022C3038.9 52.6818 3035.09 48.2327 3030.32 45.0547C3025.55 41.8767 3019.67 40.2877 3012.67 40.2877C3006.95 40.2877 3002.02 41.2411 2997.89 43.1479C2993.75 45.0547 2990.1 47.5971 2986.92 50.775C2993.91 51.0929 2999.79 52.3641 3004.56 54.5886C3009.33 56.8132 3013.15 59.8323 3016.01 63.6459C3018.87 67.1417 3020.94 71.2731 3022.21 76.04C3023.48 80.807 3024.12 85.574 3024.12 90.341C3024.12 94.1545 3023.8 97.4914 3023.16 100.352C3022.85 102.894 3022.37 105.436 3021.73 107.979L3016.49 107.502Z" fill="#CDD2C2" fill-opacity="0.1"/>
<path d="M3146.32 366.349C3141.87 370.798 3136.47 373.023 3130.11 373.023C3124.06 373.023 3118.82 370.798 3114.37 366.349C3110.23 361.9 3108.17 356.656 3108.17 350.618C3108.17 344.58 3110.23 339.336 3114.37 334.887C3118.82 330.438 3124.06 328.213 3130.11 328.213C3136.47 328.213 3141.87 330.438 3146.32 334.887C3150.77 339.336 3153 344.58 3153 350.618C3153 356.656 3150.77 361.9 3146.32 366.349ZM3146.32 142.778C3141.87 147.227 3136.47 149.451 3130.11 149.451C3124.06 149.451 3118.82 147.227 3114.37 142.778C3110.23 138.329 3108.17 133.085 3108.17 127.047C3108.17 120.691 3110.23 115.447 3114.37 111.316C3118.82 106.867 3124.06 104.642 3130.11 104.642C3136.47 104.642 3141.87 106.867 3146.32 111.316C3150.77 115.447 3153 120.691 3153 127.047C3153 133.085 3150.77 138.329 3146.32 142.778Z" fill="#CDD2C2" fill-opacity="0.1"/>
</g>
<defs>
<filter id="filter0_f_14_158" x="0" y="0.649902" width="1009" height="394" filterUnits="userSpaceOnUse" color-interpolation-filters="sRGB">
<feFlood flood-opacity="0" result="BackgroundImageFix"/>
<feBlend mode="normal" in="SourceGraphic" in2="BackgroundImageFix" result="shape"/>
<feGaussianBlur stdDeviation="11" result="effect1_foregroundBlur_14_158"/>
</filter>
<filter id="filter1_f_14_158" x="1098" y="0.649902" width="2077" height="402" filterUnits="userSpaceOnUse" color-interpolation-filters="sRGB">
<feFlood flood-opacity="0" result="BackgroundImageFix"/>
<feBlend mode="normal" in="SourceGraphic" in2="BackgroundImageFix" result="shape"/>
<feGaussianBlur stdDeviation="11" result="effect1_foregroundBlur_14_158"/>
</filter>
</defs>
</svg>
