<svg width="2227" height="437" viewBox="0 0 2227 437" fill="none" xmlns="http://www.w3.org/2000/svg">
<g filter="url(#filter0_f_14_397)">
<path d="M128.805 188.759C153.031 189.461 175.502 195.076 196.217 205.604C217.283 216.131 234.663 229.291 248.356 245.083C262.4 260.523 274.337 277.894 284.168 297.195C293.999 316.145 301.197 334.744 305.761 352.992C310.326 370.889 312.432 387.382 312.081 402.472L279.428 410.894C279.428 402.121 278.551 392.295 276.795 381.417C275.04 370.187 272.231 357.905 268.369 344.57C264.506 330.884 259.767 317.373 254.149 304.038C248.531 290.703 241.334 277.719 232.556 265.085C223.778 252.101 213.947 240.696 203.063 230.87C192.53 221.044 179.89 213.148 165.144 207.183C150.749 200.866 135.3 197.532 118.798 197.181L73.5057 235.081V402.472L24 410.894V31.8958L73.5057 24V224.553L312.608 24L317.874 30.3166L128.805 188.759Z" fill="#CDD2C2" fill-opacity="0.1"/>
<path d="M599.105 31.8958L648.084 24V402.472L599.105 410.894V40.318H432.681C422.499 108.046 417.408 198.585 417.408 311.934C417.408 343.868 410.386 368.433 396.342 385.628C382.649 402.472 365.094 410.894 343.676 410.894L335.25 402.472C357.721 402.472 375.627 394.752 388.969 379.311C402.662 363.871 409.508 338.779 409.508 304.038C409.508 252.803 410.737 204.551 413.195 159.281C416.004 114.012 418.813 81.3762 421.621 61.3735L425.835 31.8958H599.105Z" fill="#CDD2C2" fill-opacity="0.1"/>
<path d="M999.862 31.8958L1049.37 24V402.472L999.862 410.894V115.065L777.612 401.419V402.472L728.107 410.894V31.8958L777.612 24V387.733L999.862 101.905V31.8958Z" fill="#CDD2C2" fill-opacity="0.1"/>
<path d="M1467.37 31.8958L1516.88 24V402.472L1467.37 410.894V50.8457L1328.33 291.405L1333.6 300.353L1319.38 308.775L1179.29 66.111V402.472L1129.79 410.894V31.8958L1179.29 24V33.475L1323.59 283.509L1467.37 34.0013V31.8958Z" fill="#CDD2C2" fill-opacity="0.1"/>
<path d="M1884.21 412.474L1824.17 280.877C1801.35 281.579 1767.65 287.018 1723.06 297.195C1678.47 307.372 1643.88 312.636 1619.3 312.986L1574.54 413L1567.17 409.315L1723.58 58.7415L1720.95 53.4777L1727.8 48.2138L1761.5 24L1924.76 382.996L1884.21 412.474ZM1622.99 305.091C1646.51 304.389 1679.87 299.125 1723.06 289.299C1766.24 279.473 1798.72 273.858 1820.49 272.455L1727.8 68.7429L1622.99 305.091Z" fill="#CDD2C2" fill-opacity="0.1"/>
<path d="M2154.02 31.8958L2203 24V73.4804L2154.02 81.3762V40.318H2071.34V402.472L2021.83 410.894V40.318H1939.67V73.4804L1890.17 81.3762V31.8958L1939.67 24V31.8958H2021.83L2071.34 24V31.8958H2154.02Z" fill="#CDD2C2" fill-opacity="0.1"/>
</g>
<defs>
<filter id="filter0_f_14_397" x="0" y="0" width="2227" height="437" filterUnits="userSpaceOnUse" color-interpolation-filters="sRGB">
<feFlood flood-opacity="0" result="BackgroundImageFix"/>
<feBlend mode="normal" in="SourceGraphic" in2="BackgroundImageFix" result="shape"/>
<feGaussianBlur stdDeviation="12" result="effect1_foregroundBlur_14_397"/>
</filter>
</defs>
</svg>
