<svg width="1292" height="275" viewBox="0 0 1292 275" fill="none" xmlns="http://www.w3.org/2000/svg">
<g filter="url(#filter0_f_16_309)">
<path d="M212.841 199.025L220.77 213.411C209.806 223.981 197.276 232.005 183.179 237.486C169.083 242.966 154.399 245.413 139.128 244.826C124.053 244.826 109.956 242.477 96.839 237.779C83.7215 233.082 72.0724 226.329 61.8916 217.522C51.7109 208.518 43.6838 196.97 37.8103 182.878C31.9368 168.59 29 152.54 29 134.729C29 116.917 31.9368 101.161 37.8103 87.4605C43.6838 73.5638 51.7109 62.5052 61.8916 54.2846C72.0724 45.8683 83.6236 39.605 96.5453 35.4947C109.663 31.1887 123.857 29.0357 139.128 29.0357C163.993 28.4485 186.801 35.1033 207.554 48.9999L199.332 67.4962C191.109 56.9269 180.83 48.7063 168.496 42.8345C156.357 36.767 143.533 33.6353 130.024 33.4396C119.452 33.4396 109.859 35.3969 101.244 39.3114C92.8254 43.0302 85.8751 48.1192 80.3932 54.5782C74.9112 60.8415 70.3103 68.377 66.5904 77.1847C62.8705 85.9925 60.2275 95.1917 58.6612 104.782C57.2907 114.177 56.6055 124.159 56.6055 134.729C56.6055 148.821 58.4654 161.837 62.1853 173.776C65.9052 185.716 70.7998 195.698 76.869 203.723C83.1341 211.748 90.2802 218.598 98.3073 224.274C106.334 229.755 114.557 233.767 122.976 236.311C131.395 238.856 139.911 240.128 148.526 240.128C162.231 239.932 174.859 236.116 186.41 228.678C197.961 221.24 206.771 211.356 212.841 199.025Z" fill="#CDD2C2" fill-opacity="0.1"/>
<path d="M299.02 35.4947C312.138 31.1887 326.332 29.0357 341.603 29.0357C357.07 29.0357 371.265 31.1887 384.186 35.4947C397.304 39.605 408.953 45.8683 419.134 54.2846C429.314 62.5052 437.341 73.5638 443.215 87.4605C449.088 101.161 452.025 116.917 452.025 134.729C452.025 152.54 449.088 168.59 443.215 182.878C437.341 196.97 429.314 208.518 419.134 217.522C408.953 226.329 397.304 233.082 384.186 237.779C371.069 242.477 356.874 244.826 341.603 244.826C326.528 244.826 312.432 242.477 299.314 237.779C286.197 233.082 274.548 226.329 264.367 217.522C254.186 208.518 246.159 196.97 240.285 182.878C234.412 168.59 231.475 152.54 231.475 134.729C231.475 116.917 234.412 101.161 240.285 87.4605C246.159 73.5638 254.186 62.5052 264.367 54.2846C274.548 45.8683 286.099 39.605 299.02 35.4947ZM351.001 240.128C359.811 240.128 367.936 238.758 375.376 236.018C382.816 233.082 389.179 229.07 394.465 223.981C399.751 218.892 404.352 213.02 408.268 206.365C412.183 199.71 415.316 192.371 417.665 184.346C420.015 176.321 421.679 168.198 422.658 159.978C423.832 151.757 424.42 143.341 424.42 134.729C424.42 120.441 422.56 107.523 418.84 95.9746C415.12 84.4267 410.128 74.836 403.862 67.2026C397.793 59.5692 390.745 53.2081 382.718 48.1192C374.691 42.8345 366.468 39.1157 358.049 36.9627C349.63 34.6139 341.114 33.4396 332.499 33.4396C321.927 33.4396 312.334 35.3969 303.719 39.3114C295.301 43.0302 288.35 48.1192 282.868 54.5782C277.386 60.8415 272.786 68.377 269.066 77.1847C265.346 85.9925 262.703 95.1917 261.136 104.782C259.766 114.177 259.081 124.159 259.081 134.729C259.081 148.821 260.941 161.837 264.66 173.776C268.38 185.716 273.275 195.698 279.344 203.723C285.609 211.748 292.755 218.598 300.783 224.274C308.81 229.755 317.033 233.767 325.451 236.311C333.87 238.856 342.386 240.128 351.001 240.128Z" fill="#CDD2C2" fill-opacity="0.1"/>
<path d="M663.391 199.025L671.32 213.411C660.356 223.981 647.826 232.005 633.73 237.486C619.633 242.966 604.95 245.413 589.678 244.826C574.603 244.826 560.507 242.477 547.389 237.779C534.272 233.082 522.623 226.329 512.442 217.522C502.261 208.518 494.234 196.97 488.361 182.878C482.487 168.59 479.55 152.54 479.55 134.729C479.55 116.917 482.487 101.161 488.361 87.4605C494.234 73.5638 502.261 62.5052 512.442 54.2846C522.623 45.8683 534.174 39.605 547.096 35.4947C560.213 31.1887 574.407 29.0357 589.678 29.0357C614.543 28.4485 637.352 35.1033 658.105 48.9999L649.882 67.4962C641.659 56.9269 631.38 48.7063 619.046 42.8345C606.907 36.767 594.083 33.6353 580.574 33.4396C570.002 33.4396 560.409 35.3969 551.794 39.3114C543.376 43.0302 536.425 48.1192 530.943 54.5782C525.462 60.8415 520.861 68.377 517.141 77.1847C513.421 85.9925 510.778 95.1917 509.212 104.782C507.841 114.177 507.156 124.159 507.156 134.729C507.156 148.821 509.016 161.837 512.736 173.776C516.456 185.716 521.35 195.698 527.419 203.723C533.684 211.748 540.831 218.598 548.858 224.274C556.885 229.755 565.108 233.767 573.526 236.311C581.945 238.856 590.462 240.128 599.076 240.128C612.781 239.932 625.409 236.116 636.96 228.678C648.511 221.24 657.322 211.356 663.391 199.025Z" fill="#CDD2C2" fill-opacity="0.1"/>
<path d="M830.37 33.4396L857.682 29.0357V56.6333L830.37 61.0372V38.137H784.263V240.128L756.658 244.826V38.137H710.845V56.6333L683.239 61.0372V33.4396L710.845 29.0357V33.4396H756.658L784.263 29.0357V33.4396H830.37Z" fill="#CDD2C2" fill-opacity="0.1"/>
<path d="M1013.17 245.706L979.693 172.308C966.967 172.7 948.172 175.734 923.307 181.41C898.443 187.086 879.158 190.022 865.453 190.218L840.491 246L836.379 243.945L923.601 48.4128L922.132 45.4768L925.95 42.5409L944.745 29.0357L1035.78 229.265L1013.17 245.706ZM867.509 185.814C880.626 185.422 899.226 182.486 923.307 177.006C947.388 171.526 965.498 168.394 977.637 167.611L925.95 53.991L867.509 185.814Z" fill="#CDD2C2" fill-opacity="0.1"/>
<path d="M1213.15 119.756C1228.03 123.474 1239.87 130.423 1248.68 140.601C1257.69 150.583 1262.19 163.892 1262.19 180.529C1262.19 203.625 1253.38 220.164 1235.76 230.146C1218.33 239.932 1190.34 244.826 1151.77 244.826C1148.64 244.826 1145.11 244.728 1141.2 244.532C1137.28 244.336 1133.46 244.141 1129.74 243.945C1126.02 243.749 1122.3 243.456 1118.58 243.064C1114.86 242.673 1111.44 242.379 1108.3 242.183C1105.17 241.792 1102.33 241.498 1099.79 241.303C1097.44 240.911 1095.58 240.617 1094.21 240.422L1092.15 240.128L1064.55 244.826V33.4396L1092.15 29.0357H1170.27C1177.71 29.0357 1184.86 29.525 1191.71 30.5037C1198.56 31.4823 1205.12 33.146 1211.38 35.4947C1217.84 37.8435 1223.42 40.7794 1228.12 44.3025C1232.82 47.8256 1236.54 52.3273 1239.28 57.8077C1242.22 63.2881 1243.69 69.4535 1243.69 76.304C1243.69 89.4177 1240.75 99.4977 1234.88 106.544C1229.2 113.394 1221.96 117.798 1213.15 119.756ZM1165.57 33.4396H1092.15V134.142C1102.33 133.359 1116.53 130.325 1134.73 125.04C1153.14 119.56 1168.21 116.624 1179.96 116.232H1179.37C1190.92 116.232 1199.93 112.416 1206.39 104.782C1212.85 96.9533 1216.08 86.9711 1216.08 74.836C1216.08 67.7898 1214.61 61.5265 1211.68 56.0461C1208.74 50.5658 1204.73 46.2598 1199.64 43.1281C1194.74 39.9965 1189.36 37.6477 1183.48 36.0819C1177.81 34.3204 1171.84 33.4396 1165.57 33.4396ZM1156.47 240.128C1170.37 240.128 1182.51 238.464 1192.88 235.137C1203.45 231.81 1211.68 227.21 1217.55 221.338C1223.42 215.466 1227.73 209.105 1230.47 202.255C1233.21 195.404 1234.58 188.162 1234.58 180.529C1234.58 163.109 1229.69 149.115 1219.9 138.545C1210.31 127.78 1198.36 121.909 1184.07 120.93C1171.15 120.93 1155.1 123.768 1135.91 129.444C1116.72 134.924 1102.14 138.056 1092.15 138.839V235.724C1119.37 238.66 1140.8 240.128 1156.47 240.128Z" fill="#CDD2C2" fill-opacity="0.1"/>
</g>
<defs>
<filter id="filter0_f_16_309" x="0" y="0" width="1291.19" height="275" filterUnits="userSpaceOnUse" color-interpolation-filters="sRGB">
<feFlood flood-opacity="0" result="BackgroundImageFix"/>
<feBlend mode="normal" in="SourceGraphic" in2="BackgroundImageFix" result="shape"/>
<feGaussianBlur stdDeviation="14.5" result="effect1_foregroundBlur_16_309"/>
</filter>
</defs>
</svg>
