<svg width="882" height="320" viewBox="0 0 882 320" fill="none" xmlns="http://www.w3.org/2000/svg">
<g filter="url(#filter0_f_16_302)">
<path d="M87.3702 167.049C100.863 167.441 113.378 170.574 124.915 176.448C136.648 182.323 146.327 189.666 153.953 198.478C161.775 207.093 168.424 216.786 173.899 227.556C179.374 238.13 183.383 248.508 185.925 258.691C188.467 268.677 189.64 277.88 189.445 286.3L171.259 291C171.259 286.105 170.77 280.622 169.792 274.552C168.815 268.285 167.25 261.432 165.099 253.991C162.948 246.354 160.308 238.815 157.18 231.374C154.051 223.933 150.042 216.688 145.154 209.639C140.265 202.394 134.79 196.03 128.728 190.547C122.862 185.064 115.822 180.658 107.609 177.33C99.5918 173.805 90.9878 171.945 81.7972 171.749L56.5718 192.897V286.3L29 291V79.5202L56.5718 75.1143V187.022L189.738 75.1143L192.671 78.639L87.3702 167.049Z" fill="#CDD2C2" fill-opacity="0.1"/>
<path d="M320.849 75.1143C333.364 75.1143 344.998 77.0725 355.753 80.9888C366.704 84.9051 375.895 91.1711 383.325 99.787C390.756 108.403 394.471 118.487 394.471 130.04C394.471 141.789 390.854 151.972 383.619 160.587C376.579 169.203 367.877 175.469 357.513 179.386C347.345 183.302 336.688 185.26 325.542 185.26H252.212V286.3L224.641 291V79.5202L252.212 75.1143H320.849ZM325.542 180.854C333.168 180.854 339.817 179.386 345.487 176.448C351.158 173.315 355.46 169.203 358.393 164.112C361.326 159.021 363.477 153.734 364.846 148.251C366.215 142.572 366.9 136.502 366.9 130.04C366.9 116.138 361.913 104.291 351.94 94.5C342.163 84.5135 330.333 79.5202 316.449 79.5202H252.212V180.854H325.542Z" fill="#CDD2C2" fill-opacity="0.1"/>
<path d="M484.087 81.5762C497.188 77.2683 511.365 75.1143 526.618 75.1143C542.066 75.1143 556.243 77.2683 569.149 81.5762C582.25 85.6883 593.885 91.9544 604.054 100.374C614.222 108.599 622.239 119.662 628.106 133.565C633.972 147.272 636.905 163.035 636.905 180.854C636.905 198.673 633.972 214.73 628.106 229.025C622.239 243.123 614.222 254.676 604.054 263.684C593.885 272.496 582.25 279.251 569.149 283.951C556.047 288.65 541.87 291 526.618 291C511.561 291 497.482 288.65 484.38 283.951C471.279 279.251 459.644 272.496 449.475 263.684C439.307 254.676 431.29 243.123 425.423 229.025C419.557 214.73 416.624 198.673 416.624 180.854C416.624 163.035 419.557 147.272 425.423 133.565C431.29 119.662 439.307 108.599 449.475 100.374C459.644 91.9544 471.181 85.6883 484.087 81.5762ZM536.004 286.3C544.803 286.3 552.919 284.93 560.349 282.188C567.78 279.251 574.135 275.237 579.415 270.146C584.695 265.055 589.29 259.18 593.201 252.522C597.112 245.865 600.24 238.522 602.587 230.493C604.934 222.465 606.596 214.339 607.573 206.114C608.747 197.89 609.333 189.47 609.333 180.854C609.333 166.56 607.476 153.636 603.76 142.083C600.045 130.53 595.059 120.935 588.801 113.298C582.739 105.661 575.7 99.2974 567.682 94.2063C559.665 88.9193 551.452 85.1988 543.044 83.0448C534.635 80.6951 526.129 79.5202 517.525 79.5202C506.966 79.5202 497.384 81.4783 488.78 85.3946C480.371 89.1151 473.43 94.2063 467.954 100.668C462.479 106.934 457.884 114.473 454.168 123.285C450.453 132.096 447.813 141.3 446.249 150.895C444.88 160.294 444.196 170.28 444.196 180.854C444.196 194.953 446.053 207.975 449.769 219.919C453.484 231.864 458.373 241.851 464.434 249.879C470.692 257.907 477.829 264.761 485.847 270.439C493.864 275.922 502.077 279.936 510.485 282.482C518.894 285.028 527.4 286.3 536.004 286.3Z" fill="#CDD2C2" fill-opacity="0.1"/>
<path d="M797.856 29L802.549 47.5045C778.106 51.225 753.663 52.7915 729.22 52.204V42.8049C738.606 42.8049 747.406 42.4133 755.619 41.63C763.831 40.651 770.382 39.4761 775.271 38.1054C780.159 36.7347 784.364 35.364 787.883 33.9933C791.599 32.6226 794.239 31.4477 795.803 30.4686L797.856 29ZM825.428 79.5202L853 75.1143V286.3L825.428 291V125.928L701.648 285.713V286.3L674.076 291V79.5202L701.648 75.1143V278.076L825.428 118.585V79.5202Z" fill="#CDD2C2" fill-opacity="0.1"/>
</g>
<defs>
<filter id="filter0_f_16_302" x="0" y="0" width="882" height="320" filterUnits="userSpaceOnUse" color-interpolation-filters="sRGB">
<feFlood flood-opacity="0" result="BackgroundImageFix"/>
<feBlend mode="normal" in="SourceGraphic" in2="BackgroundImageFix" result="shape"/>
<feGaussianBlur stdDeviation="14.5" result="effect1_foregroundBlur_16_302"/>
</filter>
</defs>
</svg>
