<svg width="240" height="83" viewBox="0 0 240 83" fill="none" xmlns="http://www.w3.org/2000/svg">
<path d="M86.3196 47.7826L87.1296 49.2526C86.0096 50.3326 84.7296 51.1526 83.2896 51.7126C81.8496 52.2726 80.3496 52.5226 78.7896 52.4626C77.2496 52.4626 75.8096 52.2226 74.4696 51.7426C73.1296 51.2626 71.9396 50.5726 70.8996 49.6726C69.8596 48.7526 69.0396 47.5726 68.4396 46.1326C67.8396 44.6726 67.5396 43.0326 67.5396 41.2126C67.5396 39.3926 67.8396 37.7826 68.4396 36.3826C69.0396 34.9626 69.8596 33.8326 70.8996 32.9926C71.9396 32.1326 73.1196 31.4926 74.4396 31.0726C75.7796 30.6326 77.2296 30.4126 78.7896 30.4126C81.3296 30.3526 83.6596 31.0326 85.7796 32.4526L84.9396 34.3426C84.0996 33.2626 83.0496 32.4226 81.7896 31.8226C80.5496 31.2026 79.2396 30.8826 77.8596 30.8626C76.7796 30.8626 75.7996 31.0626 74.9196 31.4626C74.0596 31.8426 73.3496 32.3626 72.7896 33.0226C72.2296 33.6626 71.7596 34.4326 71.3796 35.3326C70.9996 36.2326 70.7296 37.1726 70.5696 38.1526C70.4296 39.1126 70.3596 40.1326 70.3596 41.2126C70.3596 42.6526 70.5496 43.9826 70.9296 45.2026C71.3096 46.4226 71.8096 47.4426 72.4296 48.2626C73.0696 49.0826 73.7996 49.7826 74.6196 50.3626C75.4396 50.9226 76.2796 51.3326 77.1396 51.5926C77.9996 51.8526 78.8696 51.9826 79.7496 51.9826C81.1496 51.9626 82.4396 51.5726 83.6196 50.8126C84.7996 50.0526 85.6996 49.0426 86.3196 47.7826Z" fill="white"/>
<path d="M103.377 30.8626L106.167 30.4126V33.2326L103.377 33.6826V31.3426H98.6671V51.9826L95.8471 52.4626V31.3426H91.1671V33.2326L88.3471 33.6826V30.8626L91.1671 30.4126V30.8626H95.8471L98.6671 30.4126V30.8626H103.377Z" fill="white"/>
<path d="M124.498 30.8626L127.318 30.4126V51.9826L124.498 52.4626V35.6026L111.838 51.9226V51.9826L109.018 52.4626V30.8626L111.838 30.4126V51.1426L124.498 34.8526V30.8626Z" fill="white"/>
<path d="M144.882 30.8626L147.672 30.4126V51.9826L144.882 52.4626V31.3426H135.402C134.822 35.2026 134.532 40.3626 134.532 46.8226C134.532 48.6426 134.132 50.0426 133.332 51.0226C132.552 51.9826 131.552 52.4626 130.332 52.4626L129.852 51.9826C131.132 51.9826 132.152 51.5426 132.912 50.6626C133.692 49.7826 134.082 48.3526 134.082 46.3726C134.082 43.4526 134.152 40.7026 134.292 38.1226C134.452 35.5426 134.612 33.6826 134.772 32.5426L135.012 30.8626H144.882Z" fill="white"/>
<path d="M164.411 39.3226C165.491 39.3226 166.491 39.4426 167.411 39.6826C168.351 39.9226 169.191 40.3026 169.931 40.8226C170.691 41.3226 171.291 42.0026 171.731 42.8626C172.171 43.7226 172.391 44.7326 172.391 45.8926C172.391 47.4726 171.981 48.7526 171.161 49.7326C170.361 50.6926 169.141 51.3926 167.501 51.8326C165.881 52.2526 163.751 52.4626 161.111 52.4626C160.411 52.4626 159.551 52.4226 158.531 52.3426C157.511 52.2626 156.671 52.1826 156.011 52.1026L155.021 51.9826L152.201 52.4626V30.8626L155.021 30.4126V41.1526C156.041 41.0726 157.531 40.7526 159.491 40.1926C161.451 39.6126 163.091 39.3226 164.411 39.3226ZM161.591 51.9826C163.011 51.9826 164.251 51.8126 165.311 51.4726C166.391 51.1326 167.231 50.6626 167.831 50.0626C168.431 49.4626 168.871 48.8126 169.151 48.1126C169.431 47.4126 169.571 46.6726 169.571 45.8926C169.571 44.1126 169.071 42.6826 168.071 41.6026C167.091 40.5026 165.871 39.9026 164.411 39.8026C163.091 39.8026 161.451 40.0926 159.491 40.6726C157.531 41.2326 156.041 41.5526 155.021 41.6326V51.5326C157.801 51.8326 159.991 51.9826 161.591 51.9826Z" fill="white"/>
</svg>
