<svg width="510" height="91" viewBox="0 0 510 91" fill="none" xmlns="http://www.w3.org/2000/svg">
<path d="M62.1959 1.81806L73.5261 0.000488281V87.123L62.1959 89.0617V3.75681H11.3303V87.123L0 89.0617V1.81806L11.3303 0.000488281V1.81806H62.1959Z" fill="#FF7A7A"/>
<path d="M157.597 89.4253L143.856 59.1323C138.633 59.2939 130.919 60.546 120.714 62.8886C110.508 65.2313 102.593 66.443 96.9682 66.5238L86.7228 89.5464L85.0353 88.6982L120.834 7.99782L120.231 6.78611L121.798 5.57439L129.513 0.000488281L166.878 82.6396L157.597 89.4253ZM97.812 64.7062C103.196 64.5446 110.83 63.3329 120.714 61.0711C130.597 58.8092 138.03 57.5167 143.012 57.1936L121.798 10.3001L97.812 64.7062Z" fill="#FF7A7A"/>
<path d="M229.79 1.81806L241 0.000488281V87.123L229.79 89.0617V3.75681H191.701C189.371 19.3476 188.205 40.1891 188.205 66.2814C188.205 73.6325 186.598 79.2872 183.384 83.2455C180.25 87.123 176.232 89.0617 171.331 89.0617L169.402 87.123C174.545 87.123 178.643 85.3458 181.697 81.7914C184.83 78.2371 186.397 72.4612 186.397 64.4639C186.397 52.6698 186.679 41.5624 187.241 31.1416C187.884 20.7209 188.527 13.2082 189.17 8.60368L190.134 1.81806H229.79Z" fill="#FF7A7A"/>
<path d="M308.251 35.9885C312.591 35.9885 316.608 36.4732 320.305 37.4426C324.082 38.4119 327.457 39.9468 330.43 42.0471C333.483 44.0666 335.894 46.8132 337.662 50.2868C339.43 53.7604 340.314 57.8398 340.314 62.5251C340.314 68.9068 338.666 74.0768 335.372 78.0351C332.157 81.9126 327.256 84.7399 320.666 86.5171C314.158 88.2135 305.6 89.0617 294.993 89.0617C292.18 89.0617 288.725 88.9002 284.627 88.577C280.528 88.2539 277.153 87.9308 274.502 87.6077L270.524 87.123L259.194 89.0617V1.81806L270.524 0.000488281V43.38C274.622 43.0569 280.609 41.7644 288.484 39.5025C296.359 37.1598 302.948 35.9885 308.251 35.9885ZM296.921 87.123C302.626 87.123 307.609 86.4364 311.867 85.0631C316.207 83.6898 319.582 81.7914 321.992 79.368C324.403 76.9446 326.171 74.3192 327.296 71.4918C328.421 68.6645 328.983 65.6756 328.983 62.5251C328.983 55.3356 326.974 49.5597 322.957 45.1976C319.019 40.7546 314.117 38.3312 308.251 37.9273C302.948 37.9273 296.359 39.0986 288.484 41.4412C280.609 43.7031 274.622 44.9956 270.524 45.3187V85.3054C281.694 86.5171 290.493 87.123 296.921 87.123Z" fill="#FF7A7A"/>
<path d="M393.44 1.81806L404.65 0.000488281V11.3906L393.44 13.2082V3.75681H374.516V87.123L363.186 89.0617V3.75681H344.383V11.3906L333.052 13.2082V1.81806L344.383 0.000488281V1.81806H363.186L374.516 0.000488281V1.81806H393.44Z" fill="#FF7A7A"/>
<path d="M510 57.3147C506.866 60.1421 503.491 62.3232 499.875 63.858C496.339 65.3929 492.924 66.1603 489.63 66.1603C485.853 66.1603 482.438 65.5948 479.384 64.4639C476.813 67.6951 473.96 70.9264 470.826 74.1576C467.692 77.3081 464.317 80.1354 460.701 82.6396C457.166 85.1439 453.389 87.1634 449.371 88.6982C445.353 90.2331 441.175 91.0005 436.835 91.0005C432.818 91.0005 429.443 90.3946 426.711 89.1829C424.059 87.9712 421.889 86.3556 420.202 84.336C418.595 82.2357 417.429 79.8931 416.706 77.3081C416.063 74.6423 415.742 71.8553 415.742 68.9472C415.742 64.5043 416.425 59.9401 417.791 55.2548C419.237 50.5695 421.206 46.0458 423.697 41.6836C426.269 37.2406 429.282 33.04 432.737 29.0817C436.193 25.0427 439.929 21.4883 443.947 18.4186C447.965 15.3489 452.184 12.8043 456.603 10.7848C461.103 8.76525 465.603 7.55353 470.103 7.14962C472.674 4.72618 475.005 3.19134 477.094 2.54509C479.264 1.89884 481.313 1.57572 483.241 1.57572C488.063 1.57572 491.598 3.39329 493.848 7.02845C496.179 10.6636 497.344 15.3085 497.344 20.9632C497.344 24.5176 496.822 28.2335 495.777 32.111C494.813 35.9077 493.527 39.664 491.92 43.38C490.313 47.0151 488.505 50.5695 486.496 54.0431C484.487 57.4359 482.478 60.5056 480.469 63.2522C481.835 63.8984 483.241 64.3023 484.688 64.4639C486.215 64.6254 487.781 64.7062 489.389 64.7062C491.317 64.7062 493.206 64.4639 495.054 63.9792C496.982 63.4945 498.831 62.8482 500.598 62.0404C502.366 61.2326 503.973 60.344 505.42 59.3747C506.947 58.4053 508.232 57.4359 509.277 56.4665L510 57.3147ZM458.532 34.2921C458.532 29.6068 459.416 25.083 461.183 20.7209C463.032 16.2779 465.523 12.36 468.657 8.9672L468.416 8.72485C464.398 9.53266 460.621 11.1079 457.085 13.4506C453.55 15.7124 450.255 18.4994 447.201 21.8114C444.228 25.0427 441.536 28.6778 439.126 32.7169C436.795 36.7559 434.786 40.9162 433.099 45.1976C431.492 49.479 430.246 53.7604 429.362 58.0418C428.478 62.2424 428.036 66.2411 428.036 70.0378C428.036 72.4612 428.237 74.8039 428.639 77.0657C429.041 79.3276 429.684 81.3471 430.568 83.1243C431.532 84.8207 432.777 86.194 434.304 87.2442C435.911 88.2943 437.88 88.8194 440.21 88.8194C443.746 88.8194 447.242 87.9712 450.697 86.2748C454.152 84.4976 457.407 82.3165 460.46 79.7315C463.594 77.1465 466.366 74.3192 468.777 71.2495C471.268 68.099 473.277 65.1505 474.804 62.4039C472.313 61.0307 470.063 59.3747 468.054 57.4359C466.045 55.4164 464.317 53.1949 462.871 50.7715C461.505 48.2672 460.42 45.6419 459.617 42.8953C458.893 40.068 458.532 37.2002 458.532 34.2921ZM479.264 21.5691C479.424 21.0844 479.545 20.3977 479.625 19.5091C479.706 18.6205 479.746 17.8127 479.746 17.0857C479.746 15.9548 479.585 14.8642 479.264 13.8141C478.942 12.6831 478.42 11.7541 477.697 11.0271C476.974 10.2193 476.009 9.61345 474.804 9.20954C473.679 8.72485 472.233 8.5229 470.465 8.60368C469.259 9.89618 468.215 11.4714 467.331 13.3294C466.447 15.1066 465.683 17.0453 465.041 19.1456C464.478 21.1652 464.036 23.2655 463.715 25.4466C463.474 27.5469 463.353 29.526 463.353 31.384C463.353 34.0498 463.554 36.8367 463.956 39.7448C464.358 42.653 465.041 45.4803 466.005 48.2269C466.969 50.8926 468.215 53.3565 469.741 55.6183C471.349 57.8802 473.357 59.6978 475.768 61.0711C477.536 58.1629 479.143 55.0125 480.59 51.6197C482.116 48.1461 483.402 44.6321 484.447 41.0777C485.491 37.4426 486.295 33.8478 486.857 30.2934C487.42 26.6583 487.701 23.1847 487.701 19.8727C487.701 17.7723 487.54 15.7932 487.219 13.9352C486.898 12.0773 486.375 10.4617 485.652 9.08837C484.929 7.63431 483.965 6.50337 482.759 5.69556C481.554 4.88775 480.067 4.48384 478.299 4.48384C476.853 4.48384 475.607 4.72619 474.563 5.21087C473.518 5.69556 472.594 6.34181 471.791 7.14962C473.558 7.2304 475.045 7.55353 476.25 8.11899C477.456 8.68446 478.42 9.45189 479.143 10.4213C479.866 11.3099 480.389 12.36 480.71 13.5717C481.032 14.7834 481.192 15.9952 481.192 17.2069C481.192 18.1763 481.112 19.0245 480.951 19.7515C480.871 20.3977 480.75 21.044 480.59 21.6902L479.264 21.5691Z" fill="#FF7A7A"/>
</svg>
