<svg width="191" height="40" viewBox="0 0 191 40" fill="none" xmlns="http://www.w3.org/2000/svg">
<path d="M34.2102 31.4992L35.6857 34.1643C33.6455 36.1224 31.3138 37.6091 28.6907 38.6244C26.0675 39.6397 23.3351 40.093 20.4933 39.9842C17.688 39.9842 15.0649 39.5491 12.6239 38.6788C10.1829 37.8086 8.01517 36.5576 6.12068 34.9258C4.22618 33.2578 2.73244 31.1184 1.63947 28.5076C0.546489 25.8606 0 22.8872 0 19.5875C0 16.2877 0.546489 13.3687 1.63947 10.8305C2.73244 8.25596 4.22618 6.20722 6.12068 4.68426C8.01517 3.12505 10.1647 1.9647 12.5692 1.20322C15.0102 0.405484 17.6516 0.00661525 20.4933 0.00661525C25.1203 -0.102168 29.3647 1.1307 33.2265 3.70522L31.6964 7.13187C30.1662 5.17379 28.2535 3.65083 25.9582 2.56301C23.6994 1.43892 21.3131 0.858744 18.7992 0.822484C16.8319 0.822484 15.0467 1.18509 13.4436 1.91031C11.877 2.59926 10.5837 3.54205 9.56356 4.73866C8.54344 5.899 7.68728 7.29505 6.99506 8.92678C6.30284 10.5585 5.811 12.2628 5.51954 14.0396C5.26451 15.7801 5.137 17.6294 5.137 19.5875C5.137 22.1983 5.4831 24.6096 6.17532 26.8215C6.86754 29.0334 7.77836 30.8827 8.90777 32.3694C10.0736 33.8561 11.4034 35.1253 12.8971 36.1768C14.3909 37.1921 15.921 37.9355 17.4876 38.4069C19.0542 38.8783 20.6391 39.1139 22.2421 39.1139C24.7924 39.0777 27.1423 38.3706 29.2918 36.9927C31.4413 35.6148 33.0808 33.7836 34.2102 31.4992Z" fill="white"/>
<path d="M65.2828 0.822484L70.3651 0.00661525V5.1194L65.2828 5.93526V1.69274H56.7029V39.1139L51.5659 39.9842V1.69274H43.0407V5.1194L37.9037 5.93526V0.822484L43.0407 0.00661525V0.822484H51.5659L56.7029 0.00661525V0.822484H65.2828Z" fill="white"/>
<path d="M103.757 0.822484L108.894 0.00661525V39.1139L103.757 39.9842V9.41631L80.6951 39.0052V39.1139L75.5581 39.9842V0.822484L80.6951 0.00661525V37.591L103.757 8.05653V0.822484Z" fill="white"/>
<path d="M140.89 0.822484L145.972 0.00661525V39.1139L140.89 39.9842V1.69274H123.621C122.564 8.69109 122.036 18.0464 122.036 29.7586C122.036 33.0584 121.307 35.5966 119.85 37.3734C118.429 39.114 116.608 39.9842 114.385 39.9842L113.511 39.1139C115.843 39.1139 117.701 38.3162 119.085 36.7207C120.506 35.1253 121.216 32.5326 121.216 28.9428C121.216 23.6487 121.344 18.6628 121.599 13.9852C121.89 9.30752 122.182 5.93526 122.473 3.8684L122.91 0.822484H140.89Z" fill="white"/>
<path d="M176.463 16.1608C178.431 16.1608 180.252 16.3784 181.928 16.8135C183.641 17.2487 185.171 17.9376 186.519 18.8804C187.903 19.7869 188.996 21.0198 189.798 22.579C190.599 24.1382 191 25.9694 191 28.0725C191 30.9371 190.253 33.2578 188.759 35.0346C187.302 36.7751 185.08 38.0443 182.092 38.842C179.141 39.6035 175.261 39.9842 170.452 39.9842C169.177 39.9842 167.61 39.9117 165.752 39.7666C163.894 39.6216 162.364 39.4766 161.162 39.3315L159.358 39.1139L154.221 39.9842V0.822484L159.358 0.00661525V19.4787C161.216 19.3337 163.931 18.7535 167.501 17.7382C171.071 16.6866 174.059 16.1608 176.463 16.1608ZM171.326 39.1139C173.913 39.1139 176.172 38.8057 178.103 38.1893C180.07 37.5729 181.6 36.7207 182.693 35.6329C183.786 34.5451 184.588 33.3666 185.098 32.0975C185.608 30.8283 185.863 29.4867 185.863 28.0725C185.863 24.8453 184.952 22.2527 183.131 20.2946C181.345 18.3002 179.123 17.2124 176.463 17.0311C174.059 17.0311 171.071 17.5569 167.501 18.6084C163.931 19.6237 161.216 20.2039 159.358 20.349V38.2981C164.422 38.842 168.412 39.1139 171.326 39.1139Z" fill="white"/>
</svg>
