<svg width="188" height="115" viewBox="0 0 188 115" fill="none" xmlns="http://www.w3.org/2000/svg">
<path d="M32.7449 41.4299C34.3472 41.0089 35.9292 40.9441 37.4908 41.2356C39.0754 41.5202 40.469 42.0486 41.6716 42.8208C42.8904 43.5632 44.0083 44.4729 45.0253 45.5498C46.0355 46.6036 46.8663 47.6852 47.5176 48.7946C48.1621 49.8809 48.6184 50.9225 48.8864 51.9194L46.9075 53.1015C46.7383 52.5258 46.4912 51.898 46.1662 51.2181C45.8345 50.5151 45.4134 49.7634 44.9029 48.9628C44.3857 48.1393 43.8142 47.3442 43.1886 46.5775C42.563 45.8108 41.8405 45.0976 41.0212 44.4379C40.1951 43.7551 39.3304 43.1963 38.4271 42.7614C37.5468 42.3198 36.5656 42.0454 35.4834 41.9382C34.4176 41.8012 33.3401 41.8803 32.2511 42.1754L30.0118 45.5353L33.2404 56.5186L30.1562 58.0256L22.8462 33.1578L25.9405 31.6853L29.8088 44.8446L41.6211 27.0759L42.0883 27.3889L32.7449 41.4299Z" fill="white"/>
<path d="M57.0596 22.5377C58.5332 22.1045 59.971 21.932 61.3727 22.0203C62.7976 22.1017 64.0964 22.5204 65.2692 23.2764C66.442 24.0323 67.228 25.0895 67.6274 26.448C68.0335 27.8296 67.9595 29.1521 67.4053 30.4157C66.8742 31.6725 66.0662 32.7105 64.9812 33.5298C63.9192 34.3423 62.732 34.9414 61.4195 35.3272L52.7849 37.8655L56.2775 49.7468L53.1933 51.2537L45.8832 26.3859L48.9775 24.9135L57.0596 22.5377ZM61.2672 34.8092C62.1652 34.5452 62.8974 34.1424 63.4636 33.6007C64.023 33.036 64.3875 32.4035 64.5569 31.7033C64.7263 31.0031 64.7968 30.307 64.7684 29.6149C64.7333 28.8997 64.6041 28.1623 64.3807 27.4024C63.9002 25.7676 62.9035 24.5471 61.3908 23.741C59.8943 22.9051 58.3286 22.7275 56.6938 23.2081L49.1298 25.4315L52.6326 37.3474L61.2672 34.8092Z" fill="white"/>
<path d="M76.5045 17.6472C77.8983 16.6872 79.4932 15.9432 81.2893 15.4152C83.1083 14.8805 84.8521 14.643 86.5207 14.7029C88.2056 14.7329 89.7922 15.067 91.2806 15.7052C92.7622 16.3203 94.0887 17.3437 95.2601 18.7755C96.4246 20.1843 97.3149 21.9363 97.9308 24.0316C98.5468 26.127 98.7564 28.1166 98.5597 30.0006C98.3563 31.8615 97.8116 33.4975 96.9256 34.9087C96.0329 36.2968 94.8963 37.4939 93.5161 38.5C92.1358 39.5061 90.5476 40.2732 88.7516 40.8011C86.9786 41.3223 85.2396 41.5333 83.5344 41.4342C81.8292 41.3351 80.2257 40.9434 78.7237 40.2592C77.215 39.552 75.8716 38.471 74.6935 37.0162C73.5086 35.5384 72.6082 33.7518 71.9923 31.6565C71.3764 29.5611 71.1769 27.606 71.3938 25.7911C71.604 23.9533 72.1657 22.3748 73.0787 21.0557C73.985 19.7137 75.127 18.5775 76.5045 17.6472ZM89.6944 39.9236C90.7306 39.619 91.6388 39.1769 92.419 38.5974C93.1924 37.9948 93.802 37.3028 94.2477 36.5214C94.6934 35.7399 95.0315 34.8901 95.2619 33.9719C95.4923 33.0536 95.6068 32.0818 95.6056 31.0566C95.6044 30.0313 95.5193 29.0182 95.3501 28.0173C95.204 27.0096 94.982 25.9991 94.6842 24.986C94.1901 23.3051 93.5246 21.8497 92.6878 20.6198C91.851 19.3899 90.9321 18.4342 89.9313 17.7528C88.9536 17.0646 87.9047 16.56 86.7846 16.2388C85.6578 15.8946 84.5621 15.7414 83.4976 15.7792C82.4262 15.7939 81.384 15.9502 80.3709 16.248C79.1275 16.6135 78.0669 17.1754 77.1891 17.9338C76.3276 18.6623 75.6862 19.5013 75.2648 20.4506C74.8367 21.377 74.5562 22.4225 74.4233 23.5873C74.2904 24.7521 74.2977 25.9257 74.4451 27.1081C74.6088 28.2607 74.8734 29.4587 75.2389 30.7021C75.7263 32.3599 76.3951 33.8268 77.2455 35.1028C78.0959 36.3788 79.0167 37.3839 80.008 38.1181C81.0224 38.8456 82.0997 39.4044 83.2401 39.7947C84.3736 40.1619 85.4795 40.3496 86.5576 40.3579C87.6357 40.3662 88.6813 40.2214 89.6944 39.9236Z" fill="white"/>
<path d="M111.634 0.604004L112.826 2.61749C110.077 3.90105 107.253 4.93133 104.354 5.70833L104.029 4.60309C105.134 4.2782 106.157 3.92756 107.097 3.55118C108.03 3.15177 108.761 2.78687 109.289 2.45647C109.818 2.12608 110.265 1.81937 110.632 1.53636C111.022 1.24657 111.293 1.01704 111.443 0.847767L111.634 0.604004ZM116.627 5.59028L119.721 4.11783L127.021 28.9511L123.937 30.4581L118.231 11.0474L109.179 34.1209L109.199 34.19L106.115 35.697L98.8051 10.8292L101.899 9.35672L108.915 33.2229L117.977 10.1839L116.627 5.59028Z" fill="white"/>
<path d="M18.1159 84.5792L21.2102 83.1067L28.5102 107.94L25.426 109.447L19.72 90.0363L10.6679 113.11L10.6882 113.179L7.60401 114.686L0.293945 89.8181L3.38829 88.3456L10.4039 112.212L19.4662 89.1728L18.1159 84.5792Z" fill="white"/>
<path d="M64.5481 92.0932L65.9781 93.5115C65.0542 95.1339 63.858 96.5111 62.3897 97.6432C60.9214 98.7753 59.279 99.5707 57.4627 100.03C55.6897 100.551 53.9507 100.762 52.2455 100.663C50.5403 100.564 48.9368 100.172 47.4348 99.4877C45.9262 98.7805 44.5827 97.6995 43.4046 96.2447C42.2198 94.7669 41.3193 92.9803 40.7034 90.8849C40.0875 88.7896 39.888 86.8345 40.105 85.0196C40.3152 83.1817 40.8768 81.6032 41.7898 80.2842C42.6961 78.9421 43.8381 77.806 45.2156 76.8757C46.6094 75.9156 48.2044 75.1716 50.0004 74.6437C52.9043 73.715 55.817 73.7093 58.7383 74.6267L58.4108 77.0869C57.0782 76.1278 55.5851 75.5161 53.9314 75.2517C52.294 74.9576 50.6775 75.0325 49.082 75.4765C47.8386 75.842 46.778 76.4039 45.9002 77.1622C45.0387 77.8908 44.3973 78.7297 43.9759 79.6791C43.5478 80.6055 43.2673 81.651 43.1344 82.8158C43.0015 83.9805 43.0088 85.1541 43.1562 86.3365C43.3199 87.4892 43.5845 88.6872 43.95 89.9305C44.4374 91.5884 45.1062 93.0553 45.9566 94.3313C46.807 95.6073 47.7278 96.6124 48.7191 97.3466C49.7335 98.0741 50.8108 98.6329 51.9512 99.0231C53.0847 99.3903 54.1906 99.5781 55.2687 99.5864C56.3468 99.5947 57.3924 99.4499 58.4055 99.1521C60.0106 98.6553 61.3637 97.7697 62.465 96.4954C63.5664 95.221 64.2607 93.7536 64.5481 92.0932Z" fill="white"/>
<path d="M69.0284 69.8758C70.4222 68.9157 72.0171 68.1717 73.8132 67.6437C75.6322 67.109 77.376 66.8716 79.0446 66.9314C80.7295 66.9615 82.3161 67.2956 83.8045 67.9337C85.2861 68.5488 86.6126 69.5723 87.784 71.004C88.9485 72.4128 89.8388 74.1648 90.4547 76.2602C91.0707 78.3555 91.2803 80.3452 91.0836 82.2291C90.8802 84.09 90.3355 85.7261 89.4495 87.1372C88.5568 88.5253 87.4202 89.7225 86.04 90.7286C84.6597 91.7347 83.0715 92.5017 81.2755 93.0297C79.5025 93.5508 77.7635 93.7619 76.0583 93.6628C74.3531 93.5636 72.7496 93.172 71.2476 92.4878C69.7389 91.7805 68.3955 90.6995 67.2174 89.2447C66.0325 87.7669 65.1321 85.9803 64.5162 83.885C63.9002 81.7896 63.7008 79.8345 63.9177 78.0197C64.1279 76.1818 64.6896 74.6033 65.6026 73.2843C66.5089 71.9422 67.6508 70.806 69.0284 69.8758ZM82.2183 92.1522C83.2545 91.8476 84.1627 91.4055 84.9429 90.8259C85.7163 90.2233 86.3259 89.5313 86.7716 88.7499C87.2173 87.9685 87.5554 87.1186 87.7858 86.2004C88.0162 85.2821 88.1307 84.3104 88.1295 83.2851C88.1283 82.2598 88.0432 81.2467 87.874 80.2458C87.7279 79.2381 87.5059 78.2277 87.2081 77.2146C86.714 75.5337 86.0485 74.0783 85.2117 72.8484C84.3748 71.6184 83.456 70.6628 82.4552 69.9814C81.4775 69.2932 80.4286 68.7885 79.3085 68.4674C78.1817 68.1232 77.086 67.97 76.0215 68.0077C74.9501 68.0225 73.9079 68.1787 72.8948 68.4766C71.6514 68.8421 70.5908 69.404 69.713 70.1623C68.8515 70.8909 68.2101 71.7298 67.7887 72.6792C67.3606 73.6055 67.0801 74.6511 66.9472 75.8158C66.8143 76.9806 66.8215 78.1542 66.969 79.3366C67.1327 80.4892 67.3973 81.6872 67.7628 82.9306C68.2502 84.5885 68.919 86.0554 69.7694 87.3314C70.6198 88.6073 71.5406 89.6124 72.5319 90.3467C73.5463 91.0741 74.6236 91.633 75.7639 92.0232C76.8975 92.3904 78.0034 92.5782 79.0815 92.5864C80.1596 92.5947 81.2052 92.45 82.2183 92.1522Z" fill="white"/>
<path d="M117.537 76.5169L118.967 77.9351C118.043 79.5576 116.847 80.9348 115.378 82.0669C113.91 83.1989 112.268 83.9944 110.451 84.4533C108.678 84.9744 106.939 85.1855 105.234 85.0863C103.529 84.9872 101.925 84.5956 100.423 83.9114C98.9147 83.2041 97.5713 82.1231 96.3932 80.6683C95.2083 79.1905 94.3079 77.4039 93.6919 75.3086C93.076 73.2132 92.8765 71.2581 93.0935 69.4433C93.3037 67.6054 93.8653 66.0269 94.7784 64.7079C95.6846 63.3658 96.8266 62.2296 98.2041 61.2994C99.598 60.3393 101.193 59.5953 102.989 59.0673C105.893 58.1387 108.805 58.133 111.727 59.0504L111.399 61.5106C110.067 60.5515 108.574 59.9397 106.92 59.6754C105.283 59.3812 103.666 59.4562 102.07 59.9002C100.827 60.2657 99.7665 60.8276 98.8887 61.5859C98.0272 62.3145 97.3858 63.1534 96.9644 64.1028C96.5363 65.0291 96.2558 66.0747 96.1229 67.2394C95.99 68.4042 95.9973 69.5778 96.1447 70.7602C96.3084 71.9128 96.5731 73.1108 96.9386 74.3542C97.4259 76.0121 98.0947 77.479 98.9451 78.755C99.7955 80.0309 100.716 81.036 101.708 81.7703C102.722 82.4977 103.799 83.0566 104.94 83.4468C106.073 83.814 107.179 84.0018 108.257 84.01C109.335 84.0183 110.381 83.8736 111.394 83.5758C112.999 83.0789 114.352 82.1933 115.454 80.919C116.555 79.6447 117.249 78.1773 117.537 76.5169Z" fill="white"/>
<path d="M131.449 51.2643L134.508 49.802L135.463 53.0486L132.403 54.5109L131.611 51.8169L126.188 53.4109L133.174 77.1735L130.089 78.6805L122.942 54.3653L117.554 55.9491L118.193 58.125L115.099 59.5975L114.145 56.3509L117.239 54.8784L117.391 55.3965L122.779 53.8126L125.874 52.3402L126.026 52.8583L131.449 51.2643Z" fill="white"/>
<path d="M160.288 69.916L153.812 62.4387C152.329 62.9247 150.224 63.9314 147.496 65.4588C144.768 66.9861 142.601 67.9982 140.996 68.495L139.989 75.9204L139.435 75.8208L142.931 49.8026L142.657 49.508L143.004 49.0306L144.748 46.792L162.379 67.2L160.288 69.916ZM141.086 67.9059C142.615 67.4063 144.701 66.4179 147.343 64.9407C149.986 63.4634 152.008 62.4689 153.408 61.9572L143.4 50.3776L141.086 67.9059Z" fill="white"/>
<path d="M179.451 48.1854C181.33 48.1085 182.963 48.5164 184.351 49.4091C185.756 50.2721 186.745 51.6822 187.321 53.6394C188.119 56.3564 187.655 58.6067 185.928 60.3902C184.217 62.1439 181.094 63.6874 176.558 65.0208C176.189 65.1291 175.771 65.2394 175.304 65.3518C174.837 65.4641 174.381 65.5731 173.937 65.6787C173.493 65.7842 173.045 65.8783 172.594 65.9609C172.143 66.0434 171.73 66.1273 171.355 66.2126C170.973 66.2748 170.629 66.3385 170.323 66.4034C170.033 66.4386 169.804 66.4684 169.636 66.4927L169.384 66.5292L166.3 68.0362L158.99 43.1684L162.084 41.6959L171.271 38.9953C172.146 38.7381 173.004 38.5486 173.843 38.4268C174.683 38.305 175.512 38.274 176.33 38.3337C177.171 38.3867 177.929 38.5392 178.603 38.7912C179.278 39.0432 179.871 39.4442 180.383 39.9941C180.918 40.5373 181.304 41.2119 181.541 42.0178C181.994 43.5605 181.997 44.8479 181.55 45.8798C181.119 46.882 180.42 47.6506 179.451 48.1854ZM170.871 39.6758L162.236 42.214L165.719 54.0608C166.889 53.6167 168.453 52.7691 170.412 51.5179C172.387 50.2369 174.058 49.3704 175.426 48.9182L175.357 48.9385C176.716 48.5392 177.643 47.7788 178.139 46.6574C178.628 45.5131 178.663 44.2271 178.243 42.7995C177.999 41.9705 177.61 41.2845 177.075 40.7413C176.54 40.1981 175.919 39.8303 175.212 39.6378C174.529 39.4386 173.814 39.3485 173.069 39.3673C172.341 39.3564 171.608 39.4592 170.871 39.6758ZM176.948 64.3058C178.583 63.8252 179.953 63.2098 181.058 62.4596C182.186 61.7027 182.994 60.8773 183.482 59.9835C183.97 59.0897 184.256 58.1924 184.342 57.2917C184.427 56.3911 184.338 55.4918 184.074 54.5937C183.472 52.5445 182.412 51.0673 180.895 50.1624C179.395 49.2276 177.787 48.9497 176.072 49.3287C174.553 49.7754 172.763 50.6643 170.703 51.9954C168.636 53.3034 167.028 54.1761 165.881 54.6134L169.232 66.0112C172.534 65.4157 175.106 64.8472 176.948 64.3058Z" fill="white"/>
</svg>
