<svg width="210" height="74" viewBox="0 0 210 74" fill="none" xmlns="http://www.w3.org/2000/svg">
<path d="M29.5562 11.5075C31.2534 11.5565 32.8277 11.9487 34.279 12.684C35.7548 13.4193 36.9724 14.3384 37.9318 15.4413C38.9157 16.5198 39.752 17.733 40.4407 19.0811C41.1295 20.4046 41.6337 21.7037 41.9535 22.9782C42.2733 24.2282 42.4209 25.3802 42.3963 26.4341L40.1087 27.0224C40.1087 26.4096 40.0472 25.7233 39.9242 24.9635C39.8012 24.1792 39.6044 23.3213 39.3338 22.39C39.0633 21.4341 38.7312 20.4904 38.3376 19.559C37.9441 18.6277 37.4398 17.7208 36.8249 16.8384C36.2099 15.9316 35.5212 15.135 34.7586 14.4487C34.0207 13.7624 33.1352 13.2109 32.1021 12.7943C31.0936 12.3531 30.0113 12.1202 28.8552 12.0957L25.682 14.7428V26.4341L22.2137 27.0224V0.551476L25.682 0V14.0075L42.4332 0L42.8021 0.44118L29.5562 11.5075Z" fill="white"/>
<path d="M62.5047 0.551476L65.9361 0V26.4341L62.5047 27.0224V1.13972H50.8453C50.132 5.87016 49.7753 12.1938 49.7753 20.1105C49.7753 22.3409 49.2834 24.0566 48.2995 25.2576C47.3401 26.4341 46.1103 27.0224 44.6098 27.0224L44.0194 26.4341C45.5937 26.4341 46.8482 25.8949 47.7829 24.8165C48.7422 23.738 49.2219 21.9855 49.2219 19.559C49.2219 15.9806 49.308 12.6104 49.4802 9.44863C49.6769 6.28683 49.8737 4.0074 50.0705 2.61032L50.3657 0.551476H62.5047Z" fill="white"/>
<path d="M90.5811 0.551476L94.0494 0V26.4341L90.5811 27.0224V6.36036L75.0107 26.3606V26.4341L71.5424 27.0224V0.551476L75.0107 0V25.4047L90.5811 5.44124V0.551476Z" fill="white"/>
<path d="M123.334 0.551476L126.803 0V26.4341L123.334 27.0224V1.87502L113.594 18.6767L113.962 19.3017L112.966 19.8899L103.152 2.94121V26.4341L99.6834 27.0224V0.551476L103.152 0V0.661772L113.261 18.1252L123.334 0.698537V0.551476Z" fill="white"/>
<path d="M152.537 27.1327L148.331 17.9414C146.732 17.9904 144.371 18.3703 141.247 19.0811C138.123 19.7919 135.7 20.1595 133.978 20.184L130.842 27.1694L130.326 26.9121L141.284 2.4265L141.099 2.05885L141.579 1.6912L143.941 0L155.379 25.0738L152.537 27.1327ZM134.237 19.6326C135.885 19.5835 138.222 19.2159 141.247 18.5296C144.273 17.8433 146.548 17.4512 148.073 17.3531L141.579 3.12503L134.237 19.6326Z" fill="white"/>
<path d="M171.44 0.551476L174.871 0V3.45592L171.44 4.0074V1.13972H165.647V26.4341L162.179 27.0224V1.13972H156.423V3.45592L152.955 4.0074V0.551476L156.423 0V0.551476H162.179L165.647 0V0.551476H171.44Z" fill="white"/>
<path d="M187.417 17.0958H177.012V14.7796H187.417V17.0958Z" fill="white"/>
<path d="M7.34246 58.4851C9.03971 58.5341 10.614 58.9263 12.0652 59.6616C13.5411 60.3969 14.7587 61.316 15.718 62.419C16.7019 63.4974 17.5383 64.7107 18.227 66.0587C18.9157 67.3823 19.42 68.6813 19.7398 69.9558C20.0595 71.2059 20.2071 72.3578 20.1825 73.4118L17.8949 74C17.8949 73.3872 17.8334 72.701 17.7105 71.9412C17.5875 71.1568 17.3907 70.299 17.1201 69.3676C16.8495 68.4117 16.5175 67.4681 16.1239 66.5367C15.7303 65.6053 15.2261 64.6984 14.6111 63.8161C13.9962 62.9092 13.3074 62.1126 12.5449 61.4263C11.807 60.74 10.9214 60.1886 9.88834 59.7719C8.87982 59.3307 7.79752 59.0979 6.64142 59.0734L3.4683 61.7205V73.4118L0 74V47.5291L3.4683 46.9776V60.9851L20.2194 46.9776L20.5884 47.4188L7.34246 58.4851Z" fill="white"/>
<path d="M30.7984 47.7865C32.4465 47.2473 34.2298 46.9776 36.1485 46.9776C38.0917 46.9776 39.875 47.2473 41.4985 47.7865C43.1466 48.3012 44.6101 49.0855 45.8892 50.1394C47.1683 51.1689 48.1768 52.5537 48.9147 54.2939C49.6527 56.0096 50.0217 57.9827 50.0217 60.2131C50.0217 62.4435 49.6527 64.4533 48.9147 66.2426C48.1768 68.0073 47.1683 69.4534 45.8892 70.5808C44.6101 71.6838 43.1466 72.5294 41.4985 73.1176C39.8504 73.7059 38.0671 74 36.1485 74C34.2544 74 32.4834 73.7059 30.8353 73.1176C29.1873 72.5294 27.7237 71.6838 26.4446 70.5808C25.1655 69.4534 24.157 68.0073 23.4191 66.2426C22.6811 64.4533 22.3122 62.4435 22.3122 60.2131C22.3122 57.9827 22.6811 56.0096 23.4191 54.2939C24.157 52.5537 25.1655 51.1689 26.4446 50.1394C27.7237 49.0855 29.175 48.3012 30.7984 47.7865ZM37.3292 73.4118C38.4361 73.4118 39.4569 73.2402 40.3916 72.897C41.3263 72.5294 42.1257 72.0269 42.7899 71.3897C43.454 70.7524 44.0321 70.0171 44.524 69.1838C45.016 68.3504 45.4096 67.4313 45.7047 66.4264C45.9999 65.4215 46.209 64.4043 46.332 63.3749C46.4796 62.3455 46.5534 61.2915 46.5534 60.2131C46.5534 58.4238 46.3197 56.8062 45.8523 55.3601C45.385 53.914 44.7577 52.713 43.9706 51.7571C43.208 50.8012 42.3225 50.0046 41.314 49.3674C40.3055 48.7056 39.2724 48.2399 38.2147 47.9703C37.157 47.6762 36.087 47.5291 35.0047 47.5291C33.6764 47.5291 32.4711 47.7742 31.3888 48.2644C30.3311 48.7301 29.4578 49.3674 28.7691 50.1762C28.0804 50.9605 27.5023 51.9042 27.035 53.0071C26.5676 54.1101 26.2355 55.262 26.0387 56.463C25.8666 57.6395 25.7805 58.8895 25.7805 60.2131C25.7805 61.9778 26.0141 63.6077 26.4815 65.1028C26.9489 66.598 27.5638 67.848 28.3263 68.8529C29.1135 69.8578 30.0113 70.7157 31.0198 71.4264C32.0283 72.1127 33.0614 72.6152 34.1191 72.9338C35.1768 73.2524 36.2469 73.4118 37.3292 73.4118Z" fill="white"/>
<path d="M73.6993 47.5291L77.1676 46.9776V73.4118L73.6993 74V58.4851C71.8791 58.4851 69.284 58.865 65.9141 59.6248C62.5442 60.3847 59.9491 60.7646 58.1289 60.7646V73.4118L54.6606 74V47.5291L58.1289 46.9776V60.2131C59.9491 60.2131 62.5442 59.8332 65.9141 59.0734C69.284 58.289 71.8791 57.8969 73.6993 57.8969V47.5291Z" fill="white"/>
<path d="M99.1416 47.5291L102.573 46.9776V50.4336L99.1416 50.985V48.1174H93.3488V73.4118L89.8805 74V48.1174H84.1246V50.4336L80.6563 50.985V47.5291L84.1246 46.9776V47.5291H89.8805L93.3488 46.9776V47.5291H99.1416Z" fill="white"/>
<path d="M118.144 46.9776C119.719 46.9776 121.182 47.2227 122.535 47.7129C123.913 48.2031 125.069 48.9875 126.003 50.0659C126.938 51.1444 127.405 52.4066 127.405 53.8527C127.405 55.3233 126.95 56.5978 126.04 57.6763C125.155 58.7547 124.06 59.5391 122.756 60.0293C121.477 60.5195 120.137 60.7646 118.735 60.7646H109.51V73.4118L106.042 74V47.5291L109.51 46.9776H118.144ZM118.735 60.2131C119.694 60.2131 120.53 60.0293 121.244 59.6616C121.957 59.2694 122.498 58.7547 122.867 58.1175C123.236 57.4802 123.507 56.8184 123.679 56.1322C123.851 55.4214 123.937 54.6616 123.937 53.8527C123.937 52.1125 123.31 50.6296 122.055 49.4041C120.826 48.1541 119.337 47.5291 117.591 47.5291H109.51V60.2131H118.735Z" fill="white"/>
<path d="M138.678 47.7865C140.326 47.2473 142.11 46.9776 144.028 46.9776C145.972 46.9776 147.755 47.2473 149.378 47.7865C151.026 48.3012 152.49 49.0855 153.769 50.1394C155.048 51.1689 156.057 52.5537 156.795 54.2939C157.533 56.0096 157.901 57.9827 157.901 60.2131C157.901 62.4435 157.533 64.4533 156.795 66.2426C156.057 68.0073 155.048 69.4534 153.769 70.5808C152.49 71.6838 151.026 72.5294 149.378 73.1176C147.73 73.7059 145.947 74 144.028 74C142.134 74 140.363 73.7059 138.715 73.1176C137.067 72.5294 135.604 71.6838 134.324 70.5808C133.045 69.4534 132.037 68.0073 131.299 66.2426C130.561 64.4533 130.192 62.4435 130.192 60.2131C130.192 57.9827 130.561 56.0096 131.299 54.2939C132.037 52.5537 133.045 51.1689 134.324 50.1394C135.604 49.0855 137.055 48.3012 138.678 47.7865ZM145.209 73.4118C146.316 73.4118 147.337 73.2402 148.271 72.897C149.206 72.5294 150.006 72.0269 150.67 71.3897C151.334 70.7524 151.912 70.0171 152.404 69.1838C152.896 68.3504 153.289 67.4313 153.585 66.4264C153.88 65.4215 154.089 64.4043 154.212 63.3749C154.359 62.3455 154.433 61.2915 154.433 60.2131C154.433 58.4238 154.2 56.8062 153.732 55.3601C153.265 53.914 152.638 52.713 151.85 51.7571C151.088 50.8012 150.202 50.0046 149.194 49.3674C148.185 48.7056 147.152 48.2399 146.095 47.9703C145.037 47.6762 143.967 47.5291 142.884 47.5291C141.556 47.5291 140.351 47.7742 139.269 48.2644C138.211 48.7301 137.338 49.3674 136.649 50.1762C135.96 50.9605 135.382 51.9042 134.915 53.0071C134.447 54.1101 134.115 55.262 133.919 56.463C133.746 57.6395 133.66 58.8895 133.66 60.2131C133.66 61.9778 133.894 63.6077 134.361 65.1028C134.829 66.598 135.444 67.848 136.206 68.8529C136.993 69.8578 137.891 70.7157 138.9 71.4264C139.908 72.1127 140.941 72.6152 141.999 72.9338C143.057 73.2524 144.127 73.4118 145.209 73.4118Z" fill="white"/>
<path d="M176.168 47.5291L179.599 46.9776V73.4118L176.168 74V48.1174H164.508C163.795 52.8478 163.438 59.1714 163.438 67.0882C163.438 69.3186 162.946 71.0343 161.962 72.2353C161.003 73.4118 159.773 74 158.273 74L157.682 73.4118C159.257 73.4118 160.511 72.8725 161.446 71.7941C162.405 70.7157 162.885 68.9632 162.885 66.5367C162.885 62.9582 162.971 59.5881 163.143 56.4263C163.34 53.2645 163.537 50.985 163.733 49.588L164.029 47.5291H176.168Z" fill="white"/>
<path d="M200.185 57.8969C201.514 57.8969 202.744 58.0439 203.875 58.3381C205.031 58.6322 206.064 59.0979 206.974 59.7351C207.909 60.3479 208.647 61.1812 209.188 62.2352C209.729 63.2891 210 64.5269 210 65.9484C210 67.8847 209.496 69.4534 208.487 70.6544C207.503 71.8309 206.003 72.6887 203.986 73.2279C201.993 73.7426 199.374 74 196.127 74C195.266 74 194.208 73.951 192.954 73.8529C191.699 73.7549 190.666 73.6569 189.854 73.5588L188.637 73.4118L185.168 74V47.5291L188.637 46.9776V60.1396C189.891 60.0415 191.724 59.6494 194.134 58.9631C196.545 58.2523 198.562 57.8969 200.185 57.8969ZM196.717 73.4118C198.464 73.4118 199.989 73.2034 201.292 72.7868C202.621 72.3701 203.654 71.7941 204.392 71.0588C205.13 70.3235 205.671 69.5269 206.015 68.6691C206.36 67.8112 206.532 66.9043 206.532 65.9484C206.532 63.767 205.917 62.0146 204.687 60.691C203.482 59.343 201.981 58.6077 200.185 58.4851C198.562 58.4851 196.545 58.8405 194.134 59.5513C191.724 60.2376 189.891 60.6298 188.637 60.7278V72.8603C192.056 73.2279 194.749 73.4118 196.717 73.4118Z" fill="white"/>
</svg>
