<svg width="221" height="59" viewBox="0 0 221 59" fill="none" xmlns="http://www.w3.org/2000/svg">
<path d="M15.8501 1.40019L18.6701 0.950195V22.5202L15.8501 23.0002V10.3402C14.3701 10.3402 12.2601 10.6502 9.52012 11.2702C6.78012 11.8902 4.67012 12.2002 3.19012 12.2002V22.5202L0.370117 23.0002V1.40019L3.19012 0.950195V11.7502C4.67012 11.7502 6.78012 11.4402 9.52012 10.8202C12.2601 10.1802 14.3701 9.8602 15.8501 9.8602V1.40019Z" fill="white"/>
<path d="M34.9224 1.40019L37.7424 0.950195V3.77019L34.9224 4.22019V1.88019H26.0124V11.7202C26.9324 11.6602 28.3124 11.3402 30.1524 10.7602C31.9924 10.1602 33.4224 9.8602 34.4424 9.8602V10.3402C33.4224 10.3402 31.9924 10.6402 30.1524 11.2402C28.3124 11.8202 26.9324 12.1402 26.0124 12.2002V22.0702H34.9224V21.1102L37.7424 20.6602V22.5202L34.9224 23.0002V22.5202H26.0124L23.1924 23.0002V1.40019L26.0124 0.950195V1.40019H34.9224Z" fill="white"/>
<path d="M56.5735 1.40019L59.3935 0.950195V22.5202L56.5735 23.0002V1.88019H43.9135V22.5202L41.0935 23.0002V1.40019L43.9135 0.950195V1.40019H56.5735Z" fill="white"/>
<path d="M73.7843 0.950195C75.0643 0.950195 76.2543 1.1502 77.3543 1.55019C78.4743 1.95019 79.4143 2.59019 80.1743 3.4702C80.9343 4.35019 81.3143 5.38019 81.3143 6.56019C81.3143 7.76019 80.9443 8.80019 80.2043 9.68019C79.4843 10.5602 78.5943 11.2002 77.5343 11.6002C76.4943 12.0002 75.4043 12.2002 74.2643 12.2002H66.7643V22.5202L63.9443 23.0002V1.40019L66.7643 0.950195H73.7843ZM74.2643 11.7502C75.0443 11.7502 75.7243 11.6002 76.3043 11.3002C76.8843 10.9802 77.3243 10.5602 77.6243 10.0402C77.9243 9.5202 78.1443 8.98019 78.2843 8.42019C78.4243 7.84019 78.4943 7.22019 78.4943 6.56019C78.4943 5.14019 77.9843 3.9302 76.9643 2.93019C75.9643 1.91019 74.7543 1.40019 73.3343 1.40019H66.7643V11.7502H74.2643Z" fill="white"/>
<path d="M90.48 1.61019C91.82 1.17019 93.27 0.950195 94.83 0.950195C96.41 0.950195 97.86 1.17019 99.18 1.61019C100.52 2.03019 101.71 2.67019 102.75 3.53019C103.79 4.37019 104.61 5.50019 105.21 6.9202C105.81 8.3202 106.11 9.93019 106.11 11.7502C106.11 13.5702 105.81 15.2102 105.21 16.6702C104.61 18.1102 103.79 19.2902 102.75 20.2102C101.71 21.1102 100.52 21.8002 99.18 22.2802C97.84 22.7602 96.39 23.0002 94.83 23.0002C93.29 23.0002 91.85 22.7602 90.51 22.2802C89.17 21.8002 87.98 21.1102 86.94 20.2102C85.9 19.2902 85.08 18.1102 84.48 16.6702C83.88 15.2102 83.58 13.5702 83.58 11.7502C83.58 9.93019 83.88 8.3202 84.48 6.9202C85.08 5.50019 85.9 4.37019 86.94 3.53019C87.98 2.67019 89.16 2.03019 90.48 1.61019ZM95.79 22.5202C96.69 22.5202 97.52 22.3802 98.28 22.1002C99.04 21.8002 99.69 21.3902 100.23 20.8702C100.77 20.3502 101.24 19.7502 101.64 19.0702C102.04 18.3902 102.36 17.6402 102.6 16.8202C102.84 16.0002 103.01 15.1702 103.11 14.3302C103.23 13.4902 103.29 12.6302 103.29 11.7502C103.29 10.2902 103.1 8.9702 102.72 7.79019C102.34 6.61019 101.83 5.63019 101.19 4.8502C100.57 4.07019 99.85 3.42019 99.03 2.9002C98.21 2.3602 97.37 1.9802 96.51 1.7602C95.65 1.5202 94.78 1.40019 93.9 1.40019C92.82 1.40019 91.84 1.60019 90.96 2.00019C90.1 2.38019 89.39 2.90019 88.83 3.5602C88.27 4.20019 87.8 4.97019 87.42 5.87019C87.04 6.7702 86.77 7.7102 86.61 8.6902C86.47 9.6502 86.4 10.6702 86.4 11.7502C86.4 13.1902 86.59 14.5202 86.97 15.7402C87.35 16.9602 87.85 17.9802 88.47 18.8002C89.11 19.6202 89.84 20.3202 90.66 20.9002C91.48 21.4602 92.32 21.8702 93.18 22.1302C94.04 22.3902 94.91 22.5202 95.79 22.5202Z" fill="white"/>
<path d="M125.42 22.6702L127.76 22.6402V25.4602L124.94 25.9402V23.1202H108.05V25.4602L105.23 25.9402V22.6402H107.57C108.85 22.6402 109.87 22.2002 110.63 21.3202C111.41 20.4402 111.8 19.0102 111.8 17.0302C111.8 14.1102 111.88 11.3602 112.04 8.78019C112.2 6.20019 112.35 4.35019 112.49 3.23019L112.73 1.55019H122.6L125.42 1.0702V22.6702ZM109.91 22.6402H122.6V2.00019H113.12C112.56 5.86019 112.28 11.0202 112.28 17.4802C112.28 18.7802 112.07 19.8702 111.65 20.7502C111.23 21.6102 110.65 22.2402 109.91 22.6402Z" fill="white"/>
<path d="M147.007 0.950195L147.397 1.19019L135.877 21.1702C135.357 22.1102 134.567 22.7002 133.507 22.9402C132.467 23.1602 131.507 22.9602 130.627 22.3402L131.077 21.4102C131.457 21.7102 131.897 21.9502 132.397 22.1302C132.917 22.3102 133.477 22.3202 134.077 22.1602C134.677 22.0002 135.137 21.5902 135.457 20.9302L138.787 15.2002L136.897 16.7302L128.767 2.7502L130.987 0.950195L139.027 14.7802L147.007 0.950195Z" fill="white"/>
<path d="M165.316 10.2202C166.836 10.6002 168.046 11.3102 168.946 12.3502C169.866 13.3702 170.326 14.7302 170.326 16.4302C170.326 18.7902 169.426 20.4802 167.626 21.5002C165.846 22.5002 162.986 23.0002 159.046 23.0002C158.726 23.0002 158.366 22.9902 157.966 22.9702C157.566 22.9502 157.176 22.9302 156.796 22.9102C156.416 22.8902 156.036 22.8602 155.656 22.8202C155.276 22.7802 154.926 22.7502 154.606 22.7302C154.286 22.6902 153.996 22.6602 153.736 22.6402C153.496 22.6002 153.306 22.5702 153.166 22.5502L152.956 22.5202L150.136 23.0002V1.40019L152.956 0.950195H160.936C161.696 0.950195 162.426 1.0002 163.126 1.1002C163.826 1.2002 164.496 1.37019 165.136 1.61019C165.796 1.85019 166.366 2.15019 166.846 2.51019C167.326 2.8702 167.706 3.33019 167.986 3.89019C168.286 4.45019 168.436 5.0802 168.436 5.7802C168.436 7.1202 168.136 8.1502 167.536 8.8702C166.956 9.5702 166.216 10.0202 165.316 10.2202ZM160.456 1.40019H152.956V11.6902C153.996 11.6102 155.446 11.3002 157.306 10.7602C159.186 10.2002 160.726 9.9002 161.926 9.8602H161.866C163.046 9.8602 163.966 9.47019 164.626 8.6902C165.286 7.8902 165.616 6.87019 165.616 5.63019C165.616 4.9102 165.466 4.2702 165.166 3.7102C164.866 3.1502 164.456 2.7102 163.936 2.39019C163.436 2.0702 162.886 1.8302 162.286 1.67019C161.706 1.49019 161.096 1.40019 160.456 1.40019ZM159.526 22.5202C160.946 22.5202 162.186 22.3502 163.246 22.0102C164.326 21.6702 165.166 21.2002 165.766 20.6002C166.366 20.0002 166.806 19.3502 167.086 18.6502C167.366 17.9502 167.506 17.2102 167.506 16.4302C167.506 14.6502 167.006 13.2202 166.006 12.1402C165.026 11.0402 163.806 10.4402 162.346 10.3402C161.026 10.3402 159.386 10.6302 157.426 11.2102C155.466 11.7702 153.976 12.0902 152.956 12.1702V22.0702C155.736 22.3702 157.926 22.5202 159.526 22.5202Z" fill="white"/>
<path d="M189.83 23.0902L186.41 15.5902C185.11 15.6302 183.19 15.9402 180.65 16.5202C178.11 17.1002 176.14 17.4002 174.74 17.4202L172.19 23.1202L171.77 22.9102L180.68 2.93019L180.53 2.6302L180.92 2.3302L182.84 0.950195L192.14 21.4102L189.83 23.0902ZM174.95 16.9702C176.29 16.9302 178.19 16.6302 180.65 16.0702C183.11 15.5102 184.96 15.1902 186.2 15.1102L180.92 3.50019L174.95 16.9702Z" fill="white"/>
<path d="M206.778 1.40019L209.598 0.950195V3.77019L206.778 4.22019V1.88019H197.868V11.7202C198.788 11.6602 200.168 11.3402 202.008 10.7602C203.848 10.1602 205.278 9.8602 206.298 9.8602V10.3402C205.278 10.3402 203.848 10.6402 202.008 11.2402C200.168 11.8202 198.788 12.1402 197.868 12.2002V22.0702H206.778V21.1102L209.598 20.6602V22.5202L206.778 23.0002V22.5202H197.868L195.048 23.0002V1.40019L197.868 0.950195V1.40019H206.778Z" fill="white"/>
<path d="M220.299 14.9002H211.839V13.0102H220.299V14.9002Z" fill="white"/>
<path d="M19.6301 37.4002L22.4501 36.9502V58.5202L19.6301 59.0002V38.4802L11.7101 52.1902L12.0101 52.7002L11.2001 53.1802L3.22012 39.3502V58.5202L0.400117 59.0002V37.4002L3.22012 36.9502V37.4902L11.4401 51.7402L19.6301 37.5202V37.4002Z" fill="white"/>
<path d="M33.2046 37.6102C34.5446 37.1702 35.9946 36.9502 37.5546 36.9502C39.1347 36.9502 40.5846 37.1702 41.9046 37.6102C43.2446 38.0302 44.4347 38.6702 45.4747 39.5302C46.5147 40.3702 47.3347 41.5002 47.9347 42.9202C48.5347 44.3202 48.8346 45.9302 48.8346 47.7502C48.8346 49.5702 48.5347 51.2102 47.9347 52.6702C47.3347 54.1102 46.5147 55.2902 45.4747 56.2102C44.4347 57.1102 43.2446 57.8002 41.9046 58.2802C40.5646 58.7602 39.1147 59.0002 37.5546 59.0002C36.0146 59.0002 34.5746 58.7602 33.2346 58.2802C31.8946 57.8002 30.7046 57.1102 29.6646 56.2102C28.6246 55.2902 27.8046 54.1102 27.2046 52.6702C26.6046 51.2102 26.3046 49.5702 26.3046 47.7502C26.3046 45.9302 26.6046 44.3202 27.2046 42.9202C27.8046 41.5002 28.6246 40.3702 29.6646 39.5302C30.7046 38.6702 31.8846 38.0302 33.2046 37.6102ZM38.5146 58.5202C39.4146 58.5202 40.2447 58.3802 41.0047 58.1002C41.7647 57.8002 42.4146 57.3902 42.9547 56.8702C43.4947 56.3502 43.9646 55.7502 44.3647 55.0702C44.7646 54.3902 45.0846 53.6402 45.3246 52.8202C45.5646 52.0002 45.7346 51.1702 45.8346 50.3302C45.9547 49.4902 46.0146 48.6302 46.0146 47.7502C46.0146 46.2902 45.8246 44.9702 45.4446 43.7902C45.0646 42.6102 44.5546 41.6302 43.9146 40.8502C43.2947 40.0702 42.5746 39.4202 41.7547 38.9002C40.9347 38.3602 40.0947 37.9802 39.2346 37.7602C38.3746 37.5202 37.5047 37.4002 36.6246 37.4002C35.5446 37.4002 34.5647 37.6002 33.6847 38.0002C32.8246 38.3802 32.1146 38.9002 31.5546 39.5602C30.9946 40.2002 30.5246 40.9702 30.1446 41.8702C29.7646 42.7702 29.4946 43.7102 29.3346 44.6902C29.1946 45.6502 29.1246 46.6702 29.1246 47.7502C29.1246 49.1902 29.3146 50.5202 29.6946 51.7402C30.0746 52.9602 30.5746 53.9802 31.1946 54.8002C31.8346 55.6202 32.5646 56.3202 33.3846 56.9002C34.2046 57.4602 35.0446 57.8702 35.9046 58.1302C36.7646 58.3902 37.6346 58.5202 38.5146 58.5202Z" fill="white"/>
<path d="M70.4264 54.3202L71.2365 55.7902C70.1164 56.8702 68.8364 57.6902 67.3964 58.2502C65.9564 58.8102 64.4564 59.0602 62.8964 59.0002C61.3564 59.0002 59.9164 58.7602 58.5764 58.2802C57.2364 57.8002 56.0464 57.1102 55.0064 56.2102C53.9664 55.2902 53.1464 54.1102 52.5464 52.6702C51.9464 51.2102 51.6464 49.5702 51.6464 47.7502C51.6464 45.9302 51.9464 44.3202 52.5464 42.9202C53.1464 41.5002 53.9664 40.3702 55.0064 39.5302C56.0464 38.6702 57.2264 38.0302 58.5464 37.6102C59.8864 37.1702 61.3364 36.9502 62.8964 36.9502C65.4364 36.8902 67.7664 37.5702 69.8864 38.9902L69.0464 40.8802C68.2065 39.8002 67.1564 38.9602 65.8964 38.3602C64.6564 37.7402 63.3464 37.4202 61.9664 37.4002C60.8864 37.4002 59.9064 37.6002 59.0264 38.0002C58.1664 38.3802 57.4564 38.9002 56.8964 39.5602C56.3364 40.2002 55.8664 40.9702 55.4864 41.8702C55.1064 42.7702 54.8364 43.7102 54.6764 44.6902C54.5364 45.6502 54.4664 46.6702 54.4664 47.7502C54.4664 49.1902 54.6564 50.5202 55.0364 51.7402C55.4164 52.9602 55.9164 53.9802 56.5364 54.8002C57.1764 55.6202 57.9064 56.3202 58.7264 56.9002C59.5464 57.4602 60.3864 57.8702 61.2464 58.1302C62.1064 58.3902 62.9764 58.5202 63.8564 58.5202C65.2564 58.5002 66.5464 58.1102 67.7264 57.3502C68.9064 56.5902 69.8064 55.5802 70.4264 54.3202Z" fill="white"/>
<path d="M87.484 37.4002L90.274 36.9502V39.7702L87.484 40.2202V37.8802H82.774V58.5202L79.954 59.0002V37.8802H75.274V39.7702L72.454 40.2202V37.4002L75.274 36.9502V37.4002H79.954L82.774 36.9502V37.4002H87.484Z" fill="white"/>
<path d="M105.305 45.8602C106.385 45.8602 107.385 45.9802 108.305 46.2202C109.245 46.4602 110.085 46.8402 110.825 47.3602C111.585 47.8602 112.185 48.5402 112.625 49.4002C113.065 50.2602 113.285 51.2702 113.285 52.4302C113.285 54.0102 112.875 55.2902 112.055 56.2702C111.255 57.2302 110.035 57.9302 108.395 58.3702C106.775 58.7902 104.645 59.0002 102.005 59.0002C101.305 59.0002 100.445 58.9602 99.4247 58.8802C98.4047 58.8002 97.5647 58.7202 96.9047 58.6402L95.9147 58.5202L93.0947 59.0002V37.4002L95.9147 36.9502V47.6902C96.9347 47.6102 98.4247 47.2902 100.385 46.7302C102.345 46.1502 103.985 45.8602 105.305 45.8602ZM102.485 58.5202C103.905 58.5202 105.145 58.3502 106.205 58.0102C107.285 57.6702 108.125 57.2002 108.725 56.6002C109.325 56.0002 109.765 55.3502 110.045 54.6502C110.325 53.9502 110.465 53.2102 110.465 52.4302C110.465 50.6502 109.965 49.2202 108.965 48.1402C107.985 47.0402 106.765 46.4402 105.305 46.3402C103.985 46.3402 102.345 46.6302 100.385 47.2102C98.4247 47.7702 96.9347 48.0902 95.9147 48.1702V58.0702C98.6947 58.3702 100.885 58.5202 102.485 58.5202Z" fill="white"/>
</svg>
