<svg width="727" height="90" viewBox="0 0 727 90" fill="none" xmlns="http://www.w3.org/2000/svg">
<path d="M73.1391 0.000488281L74.7029 0.959205L28.5098 80.7728C26.4247 84.5278 23.2569 86.8846 19.0065 87.8434C14.8363 88.7222 10.9869 87.9233 7.45826 85.4466L9.26268 81.7315C10.7864 82.9299 12.5507 83.8886 14.5556 84.6077C16.6407 85.3267 18.8862 85.3667 21.2921 84.7275C23.698 84.0884 25.5425 82.4506 26.8257 79.8141L40.1784 56.9246L32.5998 63.0364L0 7.1909L8.9018 0.000488281L41.1407 55.2468L73.1391 0.000488281Z" fill="#CDD2C2"/>
<path d="M147.64 1.79809L158.948 0.000488281V86.1656L147.64 88.083V37.5105C141.705 37.5105 133.245 38.7488 122.258 41.2255C111.271 43.7022 102.81 44.9406 96.8756 44.9406V86.1656L85.5679 88.083V1.79809L96.8756 0.000488281V43.143C102.81 43.143 111.271 41.9046 122.258 39.4279C133.245 36.8713 141.705 35.593 147.64 35.593V1.79809Z" fill="#CDD2C2"/>
<path d="M239.273 1.79809L250.581 0.000488281V86.1656L239.273 88.083V20.7328L188.509 85.9259V86.1656L177.201 88.083V1.79809L188.509 0.000488281V82.8101L239.273 17.7368V1.79809Z" fill="#CDD2C2"/>
<path d="M322.094 1.79809L333.402 0.000488281V86.1656L322.094 88.083V59.9206C315.197 59.9206 309.022 59.641 303.569 59.0817C298.116 58.5225 292.943 57.6037 288.051 56.3254C283.239 55.0471 279.229 53.3693 276.021 51.2921C272.814 49.135 270.287 46.4585 268.443 43.2628C266.598 39.9872 265.676 36.1922 265.676 31.878V1.79809L276.984 0.000488281V29.9605C276.984 35.4732 277.866 40.0271 279.63 43.6223C281.395 47.2175 284.201 50.0937 288.051 52.2508C291.98 54.3281 296.632 55.8061 302.005 56.6849C307.378 57.5637 314.075 58.0431 322.094 58.123V1.79809Z" fill="#CDD2C2"/>
<path d="M405.04 1.79809L416.228 0.000488281V11.2655L405.04 13.0631V3.71553H386.154V86.1656L374.846 88.083V3.71553H356.08V11.2655L344.773 13.0631V1.79809L356.08 0.000488281V1.79809H374.846L386.154 0.000488281V1.79809H405.04Z" fill="#CDD2C2"/>
<path d="M521.368 56.6849C518.24 59.4812 514.872 61.6383 511.263 63.1563C507.734 64.6743 504.326 65.4332 501.038 65.4332C497.269 65.4332 493.86 64.874 490.813 63.7555C488.247 66.9512 485.4 70.147 482.272 73.3427C479.144 76.4585 475.776 79.2548 472.167 81.7315C468.639 84.2082 464.869 86.2056 460.86 87.7235C456.85 89.2415 452.68 90.0005 448.349 90.0005C444.339 90.0005 440.971 89.4013 438.244 88.2029C435.598 87.0045 433.432 85.4066 431.748 83.4093C430.144 81.332 428.982 79.0151 428.26 76.4585C427.618 73.8221 427.297 71.0657 427.297 68.1896C427.297 63.7954 427.979 59.2814 429.342 54.6476C430.786 50.0138 432.751 45.5398 435.237 41.2255C437.803 36.8314 440.811 32.6769 444.259 28.7621C447.707 24.7675 451.437 21.2522 455.446 18.2162C459.456 15.1802 463.666 12.6636 468.077 10.6663C472.568 8.66893 477.059 7.47053 481.55 7.07106C484.117 4.67425 486.442 3.15628 488.527 2.51713C490.693 1.87798 492.738 1.55841 494.662 1.55841C499.474 1.55841 503.003 3.35601 505.248 6.95122C507.574 10.5464 508.737 15.1403 508.737 20.7328C508.737 24.2482 508.216 27.9233 507.173 31.7581C506.211 35.5131 504.928 39.2282 503.324 42.9033C501.72 46.4985 499.915 50.0138 497.91 53.4492C495.905 56.8048 493.901 59.8407 491.896 62.5571C493.259 63.1962 494.662 63.5957 496.106 63.7555C497.63 63.9153 499.193 63.9952 500.797 63.9952C502.722 63.9952 504.607 63.7555 506.451 63.2761C508.376 62.7968 510.22 62.1576 511.985 61.3587C513.749 60.5597 515.353 59.6809 516.797 58.7222C518.32 57.7635 519.603 56.8048 520.646 55.846L521.368 56.6849ZM470.002 33.9153C470.002 29.2814 470.884 24.8074 472.648 20.4932C474.493 16.099 476.979 12.2242 480.107 8.86866L479.866 8.62898C475.856 9.42791 472.087 10.9858 468.558 13.3028C465.03 15.5398 461.742 18.2961 458.694 21.5717C455.727 24.7675 453.04 28.3627 450.635 32.3573C448.309 36.352 446.304 40.4665 444.62 44.7009C443.016 48.9352 441.773 53.1696 440.891 57.4039C440.009 61.5584 439.567 65.5131 439.567 69.2681C439.567 71.6649 439.768 73.9818 440.169 76.2189C440.57 78.4559 441.211 80.4532 442.094 82.2109C443.056 83.8886 444.299 85.2468 445.823 86.2854C447.427 87.3241 449.392 87.8434 451.717 87.8434C455.246 87.8434 458.734 87.0045 462.183 85.3267C465.631 83.5691 468.879 81.4119 471.927 78.8554C475.054 76.2988 477.821 73.5025 480.227 70.4665C482.713 67.3507 484.718 64.4346 486.242 61.7182C483.756 60.36 481.51 58.7222 479.505 56.8047C477.5 54.8074 475.776 52.6103 474.333 50.2135C472.969 47.7368 471.887 45.1403 471.085 42.4239C470.363 39.6277 470.002 36.7914 470.002 33.9153ZM490.693 21.332C490.853 20.8527 490.973 20.1736 491.054 19.2948C491.134 18.4159 491.174 17.617 491.174 16.898C491.174 15.7794 491.013 14.7009 490.693 13.6623C490.372 12.5438 489.851 11.625 489.129 10.9059C488.407 10.107 487.445 9.50781 486.242 9.10834C485.119 8.62898 483.675 8.42925 481.911 8.50914C480.708 9.78744 479.666 11.3454 478.783 13.1829C477.901 14.9406 477.139 16.858 476.498 18.9352C475.937 20.9326 475.495 23.0098 475.175 25.1669C474.934 27.2442 474.814 29.2016 474.814 31.0391C474.814 33.6756 475.014 36.4319 475.415 39.3081C475.816 42.1842 476.498 44.9805 477.46 47.6969C478.423 50.3334 479.666 52.7701 481.189 55.0071C482.793 57.2442 484.798 59.0418 487.204 60.4C488.968 57.5238 490.572 54.4079 492.016 51.0524C493.54 47.617 494.823 44.1416 495.865 40.6263C496.908 37.0311 497.71 33.4759 498.271 29.9605C498.833 26.3653 499.113 22.9299 499.113 19.6543C499.113 17.5771 498.953 15.6197 498.632 13.7821C498.311 11.9446 497.79 10.3467 497.068 8.9885C496.347 7.55042 495.384 6.43191 494.181 5.63298C492.978 4.83404 491.495 4.43458 489.73 4.43458C488.287 4.43458 487.044 4.67426 486.001 5.15362C484.959 5.63297 484.036 6.27212 483.234 7.07106C484.999 7.15095 486.482 7.47053 487.685 8.02978C488.888 8.58904 489.851 9.34802 490.572 10.3067C491.294 11.1856 491.815 12.2242 492.136 13.4226C492.457 14.621 492.617 15.8194 492.617 17.0178C492.617 17.9765 492.537 18.8154 492.377 19.5344C492.297 20.1736 492.176 20.8127 492.016 21.4519L490.693 21.332Z" fill="#CDD2C2"/>
<path d="M589.841 37.5105C595.374 37.6703 600.507 38.9486 605.238 41.3454C610.05 43.7422 614.02 46.7382 617.148 50.3334C620.355 53.8487 623.082 57.8034 625.328 62.1976C627.573 66.5118 629.177 70.7462 630.139 74.9006C631.182 78.9752 631.703 82.7302 631.703 86.1656L624.245 88.083C624.245 86.0857 624.044 83.8487 623.643 81.372C623.242 78.8154 622.601 76.0191 621.719 72.9832C620.837 69.8673 619.754 66.7914 618.471 63.7555C617.188 60.7195 615.544 57.7635 613.539 54.8873C611.534 51.9312 609.288 49.3347 606.802 47.0977C604.396 44.8607 601.509 43.0631 598.141 41.7049C594.853 40.2668 591.324 39.5078 587.555 39.4279L577.21 48.0564V86.1656L565.902 88.083V47.5771L556.158 39.4279C551.747 39.5078 547.657 40.5065 543.888 42.4239C540.119 44.2615 536.951 46.6583 534.385 49.6143C531.819 52.4905 529.533 55.6862 527.528 59.2016C525.523 62.637 523.959 66.1922 522.837 69.8673C521.714 73.5424 520.872 76.9379 520.31 80.0538C519.749 83.0897 519.468 85.7661 519.468 88.083L512.01 86.1656C512.01 82.7302 512.491 78.9752 513.454 74.9006C514.496 70.7462 516.14 66.5118 518.386 62.1976C520.631 57.8034 523.318 53.8487 526.445 50.3334C529.653 46.7382 533.623 43.7422 538.355 41.3454C543.166 38.9486 548.339 37.6703 553.873 37.5105L510.687 1.43857L511.89 0.000488281L565.902 45.0604V1.79809L577.21 0.000488281V45.6596L631.823 0.000488281L633.026 1.43857L589.841 37.5105Z" fill="#CDD2C2"/>
<path d="M695.002 35.593C699.332 35.593 703.342 36.0724 707.031 37.0311C710.8 37.9898 714.169 39.5078 717.136 41.585C720.183 43.5824 722.589 46.2988 724.353 49.7342C726.118 53.1696 727 57.2042 727 61.838C727 68.1496 725.356 73.2628 722.068 77.1776C718.86 81.0125 713.968 83.8087 707.392 85.5664C700.896 87.2442 692.355 88.083 681.769 88.083C678.962 88.083 675.514 87.9233 671.424 87.6037C667.334 87.2841 663.966 86.9645 661.319 86.645L657.349 86.1656L646.042 88.083V1.79809L657.349 0.000488281V42.9033C661.439 42.5837 667.414 41.3054 675.273 39.0684C683.133 36.7515 689.709 35.593 695.002 35.593ZM683.694 86.1656C689.388 86.1656 694.36 85.4865 698.61 84.1283C702.941 82.7701 706.309 80.8926 708.715 78.4958C711.121 76.099 712.885 73.5025 714.008 70.7062C715.131 67.9099 715.692 64.9539 715.692 61.838C715.692 54.7275 713.687 49.0151 709.678 44.7009C705.748 40.3067 700.856 37.9099 695.002 37.5105C689.709 37.5105 683.133 38.6689 675.273 40.9858C667.414 43.2229 661.439 44.5012 657.349 44.8207V84.368C668.497 85.5664 677.278 86.1656 683.694 86.1656Z" fill="#CDD2C2"/>
</svg>
