<svg width="106" height="23" viewBox="0 0 106 23" fill="none" xmlns="http://www.w3.org/2000/svg">
<path d="M19.1902 18.3199L20.0002 19.7899C18.8802 20.8699 17.6002 21.6899 16.1602 22.2499C14.7202 22.8099 13.2202 23.0599 11.6602 22.9999C10.1202 22.9999 8.68016 22.7599 7.34016 22.2799C6.00016 21.7999 4.81016 21.1099 3.77016 20.2099C2.73016 19.2899 1.91016 18.1099 1.31016 16.6699C0.710156 15.2099 0.410156 13.5699 0.410156 11.7499C0.410156 9.92994 0.710156 8.31994 1.31016 6.91994C1.91016 5.49994 2.73016 4.36994 3.77016 3.52994C4.81016 2.66994 5.99016 2.02994 7.31016 1.60994C8.65016 1.16994 10.1002 0.949938 11.6602 0.949938C14.2002 0.889937 16.5302 1.56994 18.6502 2.98994L17.8102 4.87994C16.9702 3.79994 15.9202 2.95994 14.6602 2.35994C13.4202 1.73994 12.1102 1.41994 10.7302 1.39994C9.65016 1.39994 8.67016 1.59994 7.79016 1.99994C6.93016 2.37994 6.22016 2.89994 5.66016 3.55994C5.10016 4.19994 4.63016 4.96994 4.25016 5.86994C3.87016 6.76994 3.60016 7.70994 3.44016 8.68994C3.30016 9.64994 3.23016 10.6699 3.23016 11.7499C3.23016 13.1899 3.42016 14.5199 3.80016 15.7399C4.18016 16.9599 4.68016 17.9799 5.30016 18.7999C5.94016 19.6199 6.67016 20.3199 7.49016 20.8999C8.31016 21.4599 9.15016 21.8699 10.0102 22.1299C10.8702 22.3899 11.7402 22.5199 12.6202 22.5199C14.0202 22.4999 15.3102 22.1099 16.4902 21.3499C17.6702 20.5899 18.5702 19.5799 19.1902 18.3199Z" fill="white"/>
<path d="M36.2477 1.39994L39.0377 0.949938V3.76994L36.2477 4.21994V1.87994H31.5377V22.5199L28.7177 22.9999V1.87994H24.0377V3.76994L21.2177 4.21994V1.39994L24.0377 0.949938V1.39994H28.7177L31.5377 0.949938V1.39994H36.2477Z" fill="white"/>
<path d="M57.3684 1.39994L60.1884 0.949938V22.5199L57.3684 22.9999V6.13994L44.7084 22.4599V22.5199L41.8884 22.9999V1.39994L44.7084 0.949938V21.6799L57.3684 5.38994V1.39994Z" fill="white"/>
<path d="M77.753 1.39994L80.543 0.949938V22.5199L77.753 22.9999V1.87994H68.273C67.693 5.73994 67.403 10.8999 67.403 17.3599C67.403 19.1799 67.003 20.5799 66.203 21.5599C65.423 22.5199 64.423 22.9999 63.203 22.9999L62.723 22.5199C64.003 22.5199 65.023 22.0799 65.783 21.1999C66.563 20.3199 66.953 18.8899 66.953 16.9099C66.953 13.9899 67.023 11.2399 67.163 8.65994C67.323 6.07994 67.483 4.21994 67.643 3.07994L67.883 1.39994H77.753Z" fill="white"/>
<path d="M97.2813 9.85994C98.3613 9.85994 99.3613 9.97994 100.281 10.2199C101.221 10.4599 102.061 10.8399 102.801 11.3599C103.561 11.8599 104.161 12.5399 104.601 13.3999C105.041 14.2599 105.261 15.2699 105.261 16.4299C105.261 18.0099 104.851 19.2899 104.031 20.2699C103.231 21.2299 102.011 21.9299 100.371 22.3699C98.7513 22.7899 96.6213 22.9999 93.9813 22.9999C93.2813 22.9999 92.4213 22.9599 91.4013 22.8799C90.3813 22.7999 89.5413 22.7199 88.8813 22.6399L87.8913 22.5199L85.0713 22.9999V1.39994L87.8913 0.949938V11.6899C88.9113 11.6099 90.4013 11.2899 92.3613 10.7299C94.3213 10.1499 95.9613 9.85994 97.2813 9.85994ZM94.4613 22.5199C95.8813 22.5199 97.1213 22.3499 98.1813 22.0099C99.2613 21.6699 100.101 21.1999 100.701 20.5999C101.301 19.9999 101.741 19.3499 102.021 18.6499C102.301 17.9499 102.441 17.2099 102.441 16.4299C102.441 14.6499 101.941 13.2199 100.941 12.1399C99.9613 11.0399 98.7413 10.4399 97.2813 10.3399C95.9613 10.3399 94.3213 10.6299 92.3613 11.2099C90.4013 11.7699 88.9113 12.0899 87.8913 12.1699V22.0699C90.6713 22.3699 92.8613 22.5199 94.4613 22.5199Z" fill="white"/>
</svg>
