<svg width="240" height="83" viewBox="0 0 240 83" fill="none" xmlns="http://www.w3.org/2000/svg">
<path d="M46.9041 24.1C48.2841 24.14 49.5641 24.46 50.7441 25.06C51.9441 25.66 52.9341 26.41 53.7141 27.31C54.5141 28.19 55.1941 29.18 55.7541 30.28C56.3141 31.36 56.7241 32.42 56.9841 33.46C57.2441 34.48 57.3641 35.42 57.3441 36.28L55.4841 36.76C55.4841 36.26 55.4341 35.7 55.3341 35.08C55.2341 34.44 55.0741 33.74 54.8541 32.98C54.6341 32.2 54.3641 31.43 54.0441 30.67C53.7241 29.91 53.3141 29.17 52.8141 28.45C52.3141 27.71 51.7541 27.06 51.1341 26.5C50.5341 25.94 49.8141 25.49 48.9741 25.15C48.1541 24.79 47.2741 24.6 46.3341 24.58L43.7541 26.74V36.28L40.9341 36.76V15.16L43.7541 14.71V26.14L57.3741 14.71L57.6741 15.07L46.9041 24.1Z" fill="white"/>
<path d="M70.7838 14.71C72.0638 14.71 73.2538 14.91 74.3538 15.31C75.4738 15.71 76.4138 16.35 77.1738 17.23C77.9338 18.11 78.3139 19.14 78.3139 20.32C78.3139 21.52 77.9439 22.56 77.2038 23.44C76.4838 24.32 75.5938 24.96 74.5338 25.36C73.4938 25.76 72.4038 25.96 71.2638 25.96H63.7638V36.28L60.9438 36.76V15.16L63.7638 14.71H70.7838ZM71.2638 25.51C72.0438 25.51 72.7238 25.36 73.3038 25.06C73.8839 24.74 74.3238 24.32 74.6238 23.8C74.9238 23.28 75.1438 22.74 75.2838 22.18C75.4238 21.6 75.4938 20.98 75.4938 20.32C75.4938 18.9 74.9838 17.69 73.9638 16.69C72.9638 15.67 71.7538 15.16 70.3338 15.16H63.7638V25.51H71.2638Z" fill="white"/>
<path d="M87.4795 15.37C88.8195 14.93 90.2696 14.71 91.8296 14.71C93.4096 14.71 94.8596 14.93 96.1796 15.37C97.5196 15.79 98.7096 16.43 99.7496 17.29C100.79 18.13 101.61 19.26 102.21 20.68C102.81 22.08 103.11 23.69 103.11 25.51C103.11 27.33 102.81 28.97 102.21 30.43C101.61 31.87 100.79 33.05 99.7496 33.97C98.7096 34.87 97.5196 35.56 96.1796 36.04C94.8396 36.52 93.3896 36.76 91.8296 36.76C90.2896 36.76 88.8496 36.52 87.5096 36.04C86.1696 35.56 84.9796 34.87 83.9396 33.97C82.8996 33.05 82.0795 31.87 81.4795 30.43C80.8796 28.97 80.5796 27.33 80.5796 25.51C80.5796 23.69 80.8796 22.08 81.4795 20.68C82.0795 19.26 82.8996 18.13 83.9396 17.29C84.9796 16.43 86.1595 15.79 87.4795 15.37ZM92.7896 36.28C93.6896 36.28 94.5196 36.14 95.2796 35.86C96.0396 35.56 96.6896 35.15 97.2296 34.63C97.7696 34.11 98.2396 33.51 98.6396 32.83C99.0396 32.15 99.3596 31.4 99.5996 30.58C99.8396 29.76 100.01 28.93 100.11 28.09C100.23 27.25 100.29 26.39 100.29 25.51C100.29 24.05 100.1 22.73 99.7196 21.55C99.3396 20.37 98.8296 19.39 98.1896 18.61C97.5696 17.83 96.8496 17.18 96.0296 16.66C95.2096 16.12 94.3696 15.74 93.5096 15.52C92.6496 15.28 91.7796 15.16 90.8996 15.16C89.8195 15.16 88.8396 15.36 87.9596 15.76C87.0996 16.14 86.3896 16.66 85.8296 17.32C85.2696 17.96 84.7996 18.73 84.4196 19.63C84.0396 20.53 83.7696 21.47 83.6096 22.45C83.4696 23.41 83.3996 24.43 83.3996 25.51C83.3996 26.95 83.5896 28.28 83.9696 29.5C84.3496 30.72 84.8496 31.74 85.4696 32.56C86.1096 33.38 86.8396 34.08 87.6595 34.66C88.4795 35.22 89.3195 35.63 90.1796 35.89C91.0396 36.15 91.9095 36.28 92.7896 36.28Z" fill="white"/>
<path d="M119.571 10L120.051 11.89C117.551 12.27 115.051 12.43 112.551 12.37V11.41C113.511 11.41 114.411 11.37 115.251 11.29C116.091 11.19 116.761 11.07 117.261 10.93C117.761 10.79 118.191 10.65 118.551 10.51C118.931 10.37 119.201 10.25 119.361 10.15L119.571 10ZM122.391 15.16L125.211 14.71V36.28L122.391 36.76V19.9L109.731 36.22V36.28L106.911 36.76V15.16L109.731 14.71V35.44L122.391 19.15V15.16Z" fill="white"/>
<path d="M56.4441 51.16L59.2641 50.71V72.28L56.4441 72.76V55.9L43.7841 72.22V72.28L40.9641 72.76V51.16L43.7841 50.71V71.44L56.4441 55.15V51.16Z" fill="white"/>
<path d="M91.801 68.08L92.611 69.55C91.491 70.63 90.211 71.45 88.771 72.01C87.331 72.57 85.831 72.82 84.271 72.76C82.731 72.76 81.291 72.52 79.951 72.04C78.611 71.56 77.421 70.87 76.381 69.97C75.341 69.05 74.521 67.87 73.921 66.43C73.321 64.97 73.021 63.33 73.021 61.51C73.021 59.69 73.321 58.08 73.921 56.68C74.521 55.26 75.341 54.13 76.381 53.29C77.421 52.43 78.601 51.79 79.921 51.37C81.261 50.93 82.711 50.71 84.271 50.71C86.811 50.65 89.141 51.33 91.261 52.75L90.421 54.64C89.581 53.56 88.531 52.72 87.271 52.12C86.031 51.5 84.721 51.18 83.341 51.16C82.261 51.16 81.281 51.36 80.401 51.76C79.541 52.14 78.831 52.66 78.271 53.32C77.711 53.96 77.241 54.73 76.861 55.63C76.481 56.53 76.211 57.47 76.051 58.45C75.911 59.41 75.841 60.43 75.841 61.51C75.841 62.95 76.031 64.28 76.411 65.5C76.791 66.72 77.291 67.74 77.911 68.56C78.551 69.38 79.281 70.08 80.101 70.66C80.921 71.22 81.761 71.63 82.621 71.89C83.481 72.15 84.351 72.28 85.231 72.28C86.631 72.26 87.921 71.87 89.101 71.11C90.281 70.35 91.181 69.34 91.801 68.08Z" fill="white"/>
<path d="M100.605 51.37C101.945 50.93 103.395 50.71 104.955 50.71C106.535 50.71 107.985 50.93 109.305 51.37C110.645 51.79 111.835 52.43 112.875 53.29C113.915 54.13 114.735 55.26 115.335 56.68C115.935 58.08 116.235 59.69 116.235 61.51C116.235 63.33 115.935 64.97 115.335 66.43C114.735 67.87 113.915 69.05 112.875 69.97C111.835 70.87 110.645 71.56 109.305 72.04C107.965 72.52 106.515 72.76 104.955 72.76C103.415 72.76 101.975 72.52 100.635 72.04C99.2946 71.56 98.1046 70.87 97.0646 69.97C96.0246 69.05 95.2045 67.87 94.6045 66.43C94.0046 64.97 93.7046 63.33 93.7046 61.51C93.7046 59.69 94.0046 58.08 94.6045 56.68C95.2045 55.26 96.0246 54.13 97.0646 53.29C98.1046 52.43 99.2845 51.79 100.605 51.37ZM105.915 72.28C106.815 72.28 107.645 72.14 108.405 71.86C109.165 71.56 109.815 71.15 110.355 70.63C110.895 70.11 111.365 69.51 111.765 68.83C112.165 68.15 112.485 67.4 112.725 66.58C112.965 65.76 113.135 64.93 113.235 64.09C113.355 63.25 113.415 62.39 113.415 61.51C113.415 60.05 113.225 58.73 112.845 57.55C112.465 56.37 111.955 55.39 111.315 54.61C110.695 53.83 109.975 53.18 109.155 52.66C108.335 52.12 107.495 51.74 106.635 51.52C105.775 51.28 104.905 51.16 104.025 51.16C102.945 51.16 101.965 51.36 101.085 51.76C100.225 52.14 99.5146 52.66 98.9546 53.32C98.3946 53.96 97.9246 54.73 97.5446 55.63C97.1646 56.53 96.8946 57.47 96.7346 58.45C96.5946 59.41 96.5246 60.43 96.5246 61.51C96.5246 62.95 96.7146 64.28 97.0946 65.5C97.4746 66.72 97.9746 67.74 98.5946 68.56C99.2346 69.38 99.9646 70.08 100.785 70.66C101.605 71.22 102.445 71.63 103.305 71.89C104.165 72.15 105.035 72.28 105.915 72.28Z" fill="white"/>
<path d="M137.826 68.08L138.636 69.55C137.516 70.63 136.236 71.45 134.796 72.01C133.356 72.57 131.856 72.82 130.296 72.76C128.756 72.76 127.316 72.52 125.976 72.04C124.636 71.56 123.446 70.87 122.406 69.97C121.366 69.05 120.546 67.87 119.946 66.43C119.346 64.97 119.046 63.33 119.046 61.51C119.046 59.69 119.346 58.08 119.946 56.68C120.546 55.26 121.366 54.13 122.406 53.29C123.446 52.43 124.626 51.79 125.946 51.37C127.286 50.93 128.736 50.71 130.296 50.71C132.836 50.65 135.166 51.33 137.286 52.75L136.446 54.64C135.606 53.56 134.556 52.72 133.296 52.12C132.056 51.5 130.746 51.18 129.366 51.16C128.286 51.16 127.306 51.36 126.426 51.76C125.566 52.14 124.856 52.66 124.296 53.32C123.736 53.96 123.266 54.73 122.886 55.63C122.506 56.53 122.236 57.47 122.076 58.45C121.936 59.41 121.866 60.43 121.866 61.51C121.866 62.95 122.056 64.28 122.436 65.5C122.816 66.72 123.316 67.74 123.936 68.56C124.576 69.38 125.306 70.08 126.126 70.66C126.946 71.22 127.786 71.63 128.646 71.89C129.506 72.15 130.376 72.28 131.256 72.28C132.656 72.26 133.946 71.87 135.126 71.11C136.306 70.35 137.206 69.34 137.826 68.08Z" fill="white"/>
<path d="M154.884 51.16L157.674 50.71V53.53L154.884 53.98V51.64H150.174V72.28L147.354 72.76V51.64H142.674V53.53L139.854 53.98V51.16L142.674 50.71V51.16H147.354L150.174 50.71V51.16H154.884Z" fill="white"/>
<path d="M173.558 72.85L170.138 65.35C168.838 65.39 166.918 65.7 164.378 66.28C161.838 66.86 159.868 67.16 158.468 67.18L155.918 72.88L155.498 72.67L164.408 52.69L164.258 52.39L164.648 52.09L166.568 50.71L175.868 71.17L173.558 72.85ZM158.678 66.73C160.018 66.69 161.918 66.39 164.378 65.83C166.838 65.27 168.688 64.95 169.928 64.87L164.648 53.26L158.678 66.73Z" fill="white"/>
<path d="M193.986 59.98C195.506 60.36 196.716 61.07 197.616 62.11C198.536 63.13 198.996 64.49 198.996 66.19C198.996 68.55 198.096 70.24 196.296 71.26C194.516 72.26 191.656 72.76 187.716 72.76C187.396 72.76 187.036 72.75 186.636 72.73C186.236 72.71 185.846 72.69 185.466 72.67C185.086 72.65 184.706 72.62 184.326 72.58C183.946 72.54 183.596 72.51 183.276 72.49C182.956 72.45 182.666 72.42 182.406 72.4C182.166 72.36 181.976 72.33 181.836 72.31L181.626 72.28L178.806 72.76V51.16L181.626 50.71H189.606C190.366 50.71 191.096 50.76 191.796 50.86C192.496 50.96 193.166 51.13 193.806 51.37C194.466 51.61 195.036 51.91 195.516 52.27C195.996 52.63 196.376 53.09 196.656 53.65C196.956 54.21 197.106 54.84 197.106 55.54C197.106 56.88 196.806 57.91 196.206 58.63C195.626 59.33 194.886 59.78 193.986 59.98ZM189.126 51.16H181.626V61.45C182.666 61.37 184.116 61.06 185.976 60.52C187.856 59.96 189.396 59.66 190.596 59.62H190.536C191.716 59.62 192.636 59.23 193.296 58.45C193.956 57.65 194.286 56.63 194.286 55.39C194.286 54.67 194.136 54.03 193.836 53.47C193.536 52.91 193.126 52.47 192.606 52.15C192.106 51.83 191.556 51.59 190.956 51.43C190.376 51.25 189.766 51.16 189.126 51.16ZM188.196 72.28C189.616 72.28 190.856 72.11 191.916 71.77C192.996 71.43 193.836 70.96 194.436 70.36C195.036 69.76 195.476 69.11 195.756 68.41C196.036 67.71 196.176 66.97 196.176 66.19C196.176 64.41 195.676 62.98 194.676 61.9C193.696 60.8 192.476 60.2 191.016 60.1C189.696 60.1 188.056 60.39 186.096 60.97C184.136 61.53 182.646 61.85 181.626 61.93V71.83C184.406 72.13 186.596 72.28 188.196 72.28Z" fill="white"/>
</svg>
