<svg width="172" height="59" viewBox="0 0 172 59" fill="none" xmlns="http://www.w3.org/2000/svg">
<path d="M6.34012 10.3402C7.72012 10.3802 9.00012 10.7002 10.1801 11.3002C11.3801 11.9002 12.3701 12.6502 13.1501 13.5502C13.9501 14.4302 14.6301 15.4202 15.1901 16.5202C15.7501 17.6002 16.1601 18.6602 16.4201 19.7002C16.6801 20.7202 16.8001 21.6602 16.7801 22.5202L14.9201 23.0002C14.9201 22.5002 14.8701 21.9402 14.7701 21.3202C14.6701 20.6802 14.5101 19.9802 14.2901 19.2202C14.0701 18.4402 13.8001 17.6702 13.4801 16.9102C13.1601 16.1502 12.7501 15.4102 12.2501 14.6902C11.7501 13.9502 11.1901 13.3002 10.5701 12.7402C9.97012 12.1802 9.25012 11.7302 8.41012 11.3902C7.59012 11.0302 6.71012 10.8402 5.77012 10.8202L3.19012 12.9802V22.5202L0.370117 23.0002V1.40019L3.19012 0.950195V12.3802L16.8101 0.950195L17.1101 1.31019L6.34012 10.3402Z" fill="white"/>
<path d="M33.1299 1.40019L35.9199 0.950195V22.5202L33.1299 23.0002V1.88019H23.6499C23.0699 5.74019 22.7799 10.9002 22.7799 17.3602C22.7799 19.1802 22.3799 20.5802 21.5799 21.5602C20.7999 22.5202 19.7999 23.0002 18.5799 23.0002L18.0999 22.5202C19.3799 22.5202 20.3999 22.0802 21.1599 21.2002C21.9399 20.3202 22.3299 18.8902 22.3299 16.9102C22.3299 13.9902 22.3999 11.2402 22.5399 8.6602C22.6999 6.08019 22.8599 4.22019 23.0199 3.08019L23.2599 1.40019H33.1299Z" fill="white"/>
<path d="M55.9582 1.40019L58.7782 0.950195V22.5202L55.9582 23.0002V6.14019L43.2982 22.4602V22.5202L40.4782 23.0002V1.40019L43.2982 0.950195V21.6802L55.9582 5.3902V1.40019Z" fill="white"/>
<path d="M82.5891 1.40019L85.4091 0.950195V22.5202L82.5891 23.0002V2.4802L74.6691 16.1902L74.9691 16.7002L74.1591 17.1802L66.1791 3.35019V22.5202L63.3591 23.0002V1.40019L66.1791 0.950195V1.4902L74.3991 15.7402L82.5891 1.5202V1.40019Z" fill="white"/>
<path d="M106.334 23.0902L102.914 15.5902C101.614 15.6302 99.6936 15.9402 97.1536 16.5202C94.6136 17.1002 92.6436 17.4002 91.2436 17.4202L88.6936 23.1202L88.2736 22.9102L97.1836 2.93019L97.0336 2.6302L97.4236 2.3302L99.3436 0.950195L108.644 21.4102L106.334 23.0902ZM91.4536 16.9702C92.7936 16.9302 94.6936 16.6302 97.1536 16.0702C99.6136 15.5102 101.464 15.1902 102.704 15.1102L97.4236 3.50019L91.4536 16.9702Z" fill="white"/>
<path d="M121.703 1.40019L124.493 0.950195V3.77019L121.703 4.22019V1.88019H116.993V22.5202L114.173 23.0002V1.88019H109.493V3.77019L106.673 4.22019V1.40019L109.493 0.950195V1.40019H114.173L116.993 0.950195V1.40019H121.703Z" fill="white"/>
<path d="M134.693 14.9002H126.233V13.0102H134.693V14.9002Z" fill="white"/>
<path d="M6.34012 46.3402C7.72012 46.3802 9.00012 46.7002 10.1801 47.3002C11.3801 47.9002 12.3701 48.6502 13.1501 49.5502C13.9501 50.4302 14.6301 51.4202 15.1901 52.5202C15.7501 53.6002 16.1601 54.6602 16.4201 55.7002C16.6801 56.7202 16.8001 57.6602 16.7801 58.5202L14.9201 59.0002C14.9201 58.5002 14.8701 57.9402 14.7701 57.3202C14.6701 56.6802 14.5101 55.9802 14.2901 55.2202C14.0701 54.4402 13.8001 53.6702 13.4801 52.9102C13.1601 52.1502 12.7501 51.4102 12.2501 50.6902C11.7501 49.9502 11.1901 49.3002 10.5701 48.7402C9.97012 48.1802 9.25012 47.7302 8.41012 47.3902C7.59012 47.0302 6.71012 46.8402 5.77012 46.8202L3.19012 48.9802V58.5202L0.370117 59.0002V37.4002L3.19012 36.9502V48.3802L16.8101 36.9502L17.1101 37.3102L6.34012 46.3402Z" fill="white"/>
<path d="M25.4117 37.6102C26.7517 37.1702 28.2017 36.9502 29.7617 36.9502C31.3417 36.9502 32.7917 37.1702 34.1117 37.6102C35.4517 38.0302 36.6417 38.6702 37.6817 39.5302C38.7217 40.3702 39.5417 41.5002 40.1417 42.9202C40.7417 44.3202 41.0417 45.9302 41.0417 47.7502C41.0417 49.5702 40.7417 51.2102 40.1417 52.6702C39.5417 54.1102 38.7217 55.2902 37.6817 56.2102C36.6417 57.1102 35.4517 57.8002 34.1117 58.2802C32.7717 58.7602 31.3217 59.0002 29.7617 59.0002C28.2217 59.0002 26.7817 58.7602 25.4417 58.2802C24.1017 57.8002 22.9117 57.1102 21.8717 56.2102C20.8317 55.2902 20.0117 54.1102 19.4117 52.6702C18.8117 51.2102 18.5117 49.5702 18.5117 47.7502C18.5117 45.9302 18.8117 44.3202 19.4117 42.9202C20.0117 41.5002 20.8317 40.3702 21.8717 39.5302C22.9117 38.6702 24.0917 38.0302 25.4117 37.6102ZM30.7217 58.5202C31.6217 58.5202 32.4517 58.3802 33.2117 58.1002C33.9717 57.8002 34.6217 57.3902 35.1617 56.8702C35.7017 56.3502 36.1717 55.7502 36.5717 55.0702C36.9717 54.3902 37.2917 53.6402 37.5317 52.8202C37.7717 52.0002 37.9417 51.1702 38.0417 50.3302C38.1617 49.4902 38.2217 48.6302 38.2217 47.7502C38.2217 46.2902 38.0317 44.9702 37.6517 43.7902C37.2717 42.6102 36.7617 41.6302 36.1217 40.8502C35.5017 40.0702 34.7817 39.4202 33.9617 38.9002C33.1417 38.3602 32.3017 37.9802 31.4417 37.7602C30.5817 37.5202 29.7117 37.4002 28.8317 37.4002C27.7517 37.4002 26.7717 37.6002 25.8917 38.0002C25.0317 38.3802 24.3217 38.9002 23.7617 39.5602C23.2017 40.2002 22.7317 40.9702 22.3517 41.8702C21.9717 42.7702 21.7017 43.7102 21.5417 44.6902C21.4017 45.6502 21.3317 46.6702 21.3317 47.7502C21.3317 49.1902 21.5217 50.5202 21.9017 51.7402C22.2817 52.9602 22.7817 53.9802 23.4017 54.8002C24.0417 55.6202 24.7717 56.3202 25.5917 56.9002C26.4117 57.4602 27.2517 57.8702 28.1117 58.1302C28.9717 58.3902 29.8417 58.5202 30.7217 58.5202Z" fill="white"/>
<path d="M60.2935 37.4002L63.1135 36.9502V58.5202L60.2935 59.0002V46.3402C58.8135 46.3402 56.7035 46.6502 53.9635 47.2702C51.2235 47.8902 49.1135 48.2002 47.6335 48.2002V58.5202L44.8135 59.0002V37.4002L47.6335 36.9502V47.7502C49.1135 47.7502 51.2235 47.4402 53.9635 46.8202C56.7035 46.1802 58.8135 45.8602 60.2935 45.8602V37.4002Z" fill="white"/>
<path d="M80.9801 37.4002L83.7701 36.9502V39.7702L80.9801 40.2202V37.8802H76.2701V58.5202L73.4501 59.0002V37.8802H68.7701V39.7702L65.9501 40.2202V37.4002L68.7701 36.9502V37.4002H73.4501L76.2701 36.9502V37.4002H80.9801Z" fill="white"/>
<path d="M96.4308 36.9502C97.7108 36.9502 98.9008 37.1502 100.001 37.5502C101.121 37.9502 102.061 38.5902 102.821 39.4702C103.581 40.3502 103.961 41.3802 103.961 42.5602C103.961 43.7602 103.591 44.8002 102.851 45.6802C102.131 46.5602 101.241 47.2002 100.181 47.6002C99.1408 48.0002 98.0508 48.2002 96.9108 48.2002H89.4108V58.5202L86.5908 59.0002V37.4002L89.4108 36.9502H96.4308ZM96.9108 47.7502C97.6908 47.7502 98.3708 47.6002 98.9508 47.3002C99.5308 46.9802 99.9708 46.5602 100.271 46.0402C100.571 45.5202 100.791 44.9802 100.931 44.4202C101.071 43.8402 101.141 43.2202 101.141 42.5602C101.141 41.1402 100.631 39.9302 99.6108 38.9302C98.6108 37.9102 97.4008 37.4002 95.9808 37.4002H89.4108V47.7502H96.9108Z" fill="white"/>
<path d="M113.127 37.6102C114.467 37.1702 115.917 36.9502 117.477 36.9502C119.057 36.9502 120.507 37.1702 121.827 37.6102C123.167 38.0302 124.357 38.6702 125.397 39.5302C126.437 40.3702 127.257 41.5002 127.857 42.9202C128.457 44.3202 128.757 45.9302 128.757 47.7502C128.757 49.5702 128.457 51.2102 127.857 52.6702C127.257 54.1102 126.437 55.2902 125.397 56.2102C124.357 57.1102 123.167 57.8002 121.827 58.2802C120.487 58.7602 119.037 59.0002 117.477 59.0002C115.937 59.0002 114.497 58.7602 113.157 58.2802C111.817 57.8002 110.627 57.1102 109.587 56.2102C108.547 55.2902 107.727 54.1102 107.127 52.6702C106.527 51.2102 106.227 49.5702 106.227 47.7502C106.227 45.9302 106.527 44.3202 107.127 42.9202C107.727 41.5002 108.547 40.3702 109.587 39.5302C110.627 38.6702 111.807 38.0302 113.127 37.6102ZM118.437 58.5202C119.337 58.5202 120.167 58.3802 120.927 58.1002C121.687 57.8002 122.337 57.3902 122.877 56.8702C123.417 56.3502 123.887 55.7502 124.287 55.0702C124.687 54.3902 125.007 53.6402 125.247 52.8202C125.487 52.0002 125.657 51.1702 125.757 50.3302C125.877 49.4902 125.937 48.6302 125.937 47.7502C125.937 46.2902 125.747 44.9702 125.367 43.7902C124.987 42.6102 124.477 41.6302 123.837 40.8502C123.217 40.0702 122.497 39.4202 121.677 38.9002C120.857 38.3602 120.017 37.9802 119.157 37.7602C118.297 37.5202 117.427 37.4002 116.547 37.4002C115.467 37.4002 114.487 37.6002 113.607 38.0002C112.747 38.3802 112.037 38.9002 111.477 39.5602C110.917 40.2002 110.447 40.9702 110.067 41.8702C109.687 42.7702 109.417 43.7102 109.257 44.6902C109.117 45.6502 109.047 46.6702 109.047 47.7502C109.047 49.1902 109.237 50.5202 109.617 51.7402C109.997 52.9602 110.497 53.9802 111.117 54.8002C111.757 55.6202 112.487 56.3202 113.307 56.9002C114.127 57.4602 114.967 57.8702 115.827 58.1302C116.687 58.3902 117.557 58.5202 118.437 58.5202Z" fill="white"/>
<path d="M143.608 37.4002L146.398 36.9502V58.5202L143.608 59.0002V37.8802H134.128C133.548 41.7402 133.258 46.9002 133.258 53.3602C133.258 55.1802 132.858 56.5802 132.058 57.5602C131.278 58.5202 130.278 59.0002 129.058 59.0002L128.578 58.5202C129.858 58.5202 130.878 58.0802 131.638 57.2002C132.418 56.3202 132.808 54.8902 132.808 52.9102C132.808 49.9902 132.878 47.2402 133.018 44.6602C133.178 42.0802 133.338 40.2202 133.498 39.0802L133.738 37.4002H143.608Z" fill="white"/>
<path d="M163.137 45.8602C164.217 45.8602 165.217 45.9802 166.137 46.2202C167.077 46.4602 167.917 46.8402 168.657 47.3602C169.417 47.8602 170.017 48.5402 170.457 49.4002C170.897 50.2602 171.117 51.2702 171.117 52.4302C171.117 54.0102 170.707 55.2902 169.887 56.2702C169.087 57.2302 167.867 57.9302 166.227 58.3702C164.607 58.7902 162.477 59.0002 159.837 59.0002C159.137 59.0002 158.277 58.9602 157.257 58.8802C156.237 58.8002 155.397 58.7202 154.737 58.6402L153.747 58.5202L150.927 59.0002V37.4002L153.747 36.9502V47.6902C154.767 47.6102 156.257 47.2902 158.217 46.7302C160.177 46.1502 161.817 45.8602 163.137 45.8602ZM160.317 58.5202C161.737 58.5202 162.977 58.3502 164.037 58.0102C165.117 57.6702 165.957 57.2002 166.557 56.6002C167.157 56.0002 167.597 55.3502 167.877 54.6502C168.157 53.9502 168.297 53.2102 168.297 52.4302C168.297 50.6502 167.797 49.2202 166.797 48.1402C165.817 47.0402 164.597 46.4402 163.137 46.3402C161.817 46.3402 160.177 46.6302 158.217 47.2102C156.257 47.7702 154.767 48.0902 153.747 48.1702V58.0702C156.527 58.3702 158.717 58.5202 160.317 58.5202Z" fill="white"/>
</svg>
