<svg width="240" height="83" viewBox="0 0 240 83" fill="none" xmlns="http://www.w3.org/2000/svg">
<path d="M40.5618 20.1713C41.9418 20.2146 43.2218 20.5612 44.4018 21.2112C45.6018 21.8611 46.5918 22.6735 47.3718 23.6484C48.1718 24.6016 48.8518 25.674 49.4118 26.8655C49.9718 28.0353 50.3818 29.1835 50.6418 30.3101C50.9018 31.4149 51.0218 32.4332 51.0018 33.3647L49.1418 33.8847C49.1418 33.3431 49.0918 32.7365 48.9918 32.0649C48.8918 31.3716 48.7318 30.6134 48.5118 29.7901C48.2918 28.9452 48.0218 28.1112 47.7018 27.2879C47.3818 26.4647 46.9718 25.6631 46.4718 24.8832C45.9718 24.0817 45.4118 23.3776 44.7918 22.771C44.1918 22.1644 43.4718 21.6769 42.6318 21.3087C41.8118 20.9187 40.9318 20.7129 39.9918 20.6912L37.4118 23.0309V33.3647L34.5918 33.8847V10.4874L37.4118 10V22.381L51.0318 10L51.3318 10.39L40.5618 20.1713Z" fill="white"/>
<path d="M67.3516 10.4874L70.1416 10V33.3647L67.3516 33.8847V11.0074H57.8716C57.2916 15.1885 57.0016 20.7779 57.0016 27.7754C57.0016 29.7468 56.6016 31.2633 55.8016 32.3248C55.0216 33.3647 54.0216 33.8847 52.8016 33.8847L52.3216 33.3647C53.6016 33.3647 54.6216 32.8881 55.3816 31.9349C56.1616 30.9817 56.5516 29.4327 56.5516 27.2879C56.5516 24.125 56.6216 21.1462 56.7616 18.3515C56.9216 15.5568 57.0816 13.5421 57.2416 12.3072L57.4816 10.4874H67.3516Z" fill="white"/>
<path d="M90.1799 10.4874L92.9999 10V33.3647L90.1799 33.8847V15.6218L77.5199 33.2997V33.3647L74.6999 33.8847V10.4874L77.5199 10V32.4548L90.1799 14.8094V10.4874Z" fill="white"/>
<path d="M116.811 10.4874L119.631 10V33.3647L116.811 33.8847V11.6573L108.891 26.508L109.191 27.0605L108.381 27.5804L100.401 12.5997V33.3647L97.5808 33.8847V10.4874L100.401 10V10.5849L108.621 26.0206L116.811 10.6174V10.4874Z" fill="white"/>
<path d="M140.555 33.9821L137.135 25.8581C135.835 25.9014 133.915 26.2372 131.375 26.8655C128.835 27.4937 126.865 27.8187 125.465 27.8404L122.915 34.0146L122.495 33.7872L131.405 12.1447L131.255 11.8198L131.645 11.4948L133.565 10L142.865 32.1624L140.555 33.9821ZM125.675 27.3529C127.015 27.3096 128.915 26.9846 131.375 26.378C133.835 25.7715 135.685 25.4248 136.925 25.3382L131.645 12.7622L125.675 27.3529Z" fill="white"/>
<path d="M155.924 10.4874L158.714 10V13.0546L155.924 13.5421V11.0074H151.214V33.3647L148.394 33.8847V11.0074H143.714V13.0546L140.894 13.5421V10.4874L143.714 10V10.4874H148.394L151.214 10V10.4874H155.924Z" fill="white"/>
<path d="M168.915 25.1107H160.455V23.0634H168.915V25.1107Z" fill="white"/>
<path d="M40.5618 59.1666C41.9418 59.21 43.2218 59.5566 44.4018 60.2065C45.6018 60.8564 46.5918 61.6688 47.3718 62.6437C48.1718 63.5969 48.8518 64.6693 49.4118 65.8608C49.9718 67.0307 50.3818 68.1789 50.6418 69.3054C50.9018 70.4103 51.0218 71.4285 51.0018 72.3601L49.1418 72.88C49.1418 72.3384 49.0918 71.7318 48.9918 71.0602C48.8918 70.367 48.7318 69.6087 48.5118 68.7855C48.2918 67.9406 48.0218 67.1065 47.7018 66.2833C47.3818 65.4601 46.9718 64.6585 46.4718 63.8786C45.9718 63.077 45.4118 62.3729 44.7918 61.7663C44.1918 61.1597 43.4718 60.6723 42.6318 60.304C41.8118 59.914 40.9318 59.7082 39.9918 59.6866L37.4118 62.0263V72.3601L34.5918 72.88V49.4828L37.4118 48.9953V61.3764L51.0318 48.9953L51.3318 49.3853L40.5618 59.1666Z" fill="white"/>
<path d="M59.6334 49.7103C60.9734 49.2337 62.4234 48.9953 63.9834 48.9953C65.5634 48.9953 67.0134 49.2337 68.3334 49.7103C69.6734 50.1652 70.8634 50.8585 71.9034 51.79C72.9434 52.6999 73.7634 53.9239 74.3634 55.4621C74.9634 56.9786 75.2634 58.7225 75.2634 60.694C75.2634 62.6654 74.9634 64.4418 74.3634 66.0233C73.7634 67.5831 72.9434 68.8613 71.9034 69.8579C70.8634 70.8327 69.6734 71.5802 68.3334 72.1001C66.9934 72.62 65.5434 72.88 63.9834 72.88C62.4434 72.88 61.0034 72.62 59.6634 72.1001C58.3234 71.5802 57.1334 70.8327 56.0934 69.8579C55.0534 68.8613 54.2334 67.5831 53.6334 66.0233C53.0334 64.4418 52.7334 62.6654 52.7334 60.694C52.7334 58.7225 53.0334 56.9786 53.6334 55.4621C54.2334 53.9239 55.0534 52.6999 56.0934 51.79C57.1334 50.8585 58.3134 50.1652 59.6334 49.7103ZM64.9434 72.3601C65.8434 72.3601 66.6734 72.2084 67.4334 71.9051C68.1934 71.5802 68.8434 71.136 69.3834 70.5728C69.9234 70.0095 70.3934 69.3596 70.7934 68.623C71.1934 67.8864 71.5134 67.074 71.7534 66.1858C71.9934 65.2976 72.1634 64.3985 72.2634 63.4886C72.3834 62.5787 72.4434 61.6472 72.4434 60.694C72.4434 59.1125 72.2534 57.6826 71.8734 56.4045C71.4934 55.1263 70.9834 54.0647 70.3434 53.2198C69.7234 52.3749 69.0034 51.6709 68.1834 51.1076C67.3634 50.5227 66.5234 50.1111 65.6634 49.8727C64.8034 49.6128 63.9334 49.4828 63.0534 49.4828C61.9734 49.4828 60.9934 49.6994 60.1134 50.1327C59.2534 50.5443 58.5434 51.1076 57.9834 51.8225C57.4234 52.5158 56.9534 53.3498 56.5734 54.3247C56.1934 55.2996 55.9234 56.3178 55.7634 57.3793C55.6234 58.4192 55.5534 59.5241 55.5534 60.694C55.5534 62.2538 55.7434 63.6944 56.1234 65.0159C56.5034 66.3374 57.0034 67.4423 57.6234 68.3305C58.2634 69.2188 58.9934 69.977 59.8134 70.6053C60.6334 71.2119 61.4734 71.656 62.3334 71.9376C63.1934 72.2192 64.0634 72.3601 64.9434 72.3601Z" fill="white"/>
<path d="M94.5152 49.4828L97.3352 48.9953V72.3601L94.5152 72.88V59.1666C93.0352 59.1666 90.9252 59.5024 88.1852 60.174C85.4452 60.8456 83.3352 61.1814 81.8552 61.1814V72.3601L79.0352 72.88V49.4828L81.8552 48.9953V60.694C83.3352 60.694 85.4452 60.3582 88.1852 59.6866C90.9252 58.9933 93.0352 58.6467 94.5152 58.6467V49.4828Z" fill="white"/>
<path d="M115.202 49.4828L117.992 48.9953V52.05L115.202 52.5374V50.0027H110.492V72.3601L107.672 72.88V50.0027H102.992V52.05L100.172 52.5374V49.4828L102.992 48.9953V49.4828H107.672L110.492 48.9953V49.4828H115.202Z" fill="white"/>
<path d="M130.652 48.9953C131.932 48.9953 133.123 49.212 134.223 49.6453C135.343 50.0786 136.283 50.7718 137.043 51.725C137.803 52.6782 138.183 53.7939 138.183 55.0721C138.183 56.372 137.813 57.4985 137.073 58.4517C136.353 59.4049 135.462 60.0982 134.402 60.5315C133.362 60.9648 132.272 61.1814 131.132 61.1814H123.632V72.3601L120.812 72.88V49.4828L123.632 48.9953H130.652ZM131.132 60.694C131.912 60.694 132.593 60.5315 133.173 60.2065C133.753 59.8599 134.193 59.4049 134.493 58.8417C134.793 58.2784 135.013 57.6935 135.153 57.0869C135.293 56.4586 135.363 55.787 135.363 55.0721C135.363 53.534 134.852 52.2233 133.832 51.1401C132.832 50.0352 131.622 49.4828 130.202 49.4828H123.632V60.694H131.132Z" fill="white"/>
<path d="M147.348 49.7103C148.688 49.2337 150.138 48.9953 151.698 48.9953C153.278 48.9953 154.728 49.2337 156.048 49.7103C157.388 50.1652 158.578 50.8585 159.618 51.79C160.658 52.6999 161.478 53.9239 162.078 55.4621C162.678 56.9786 162.978 58.7225 162.978 60.694C162.978 62.6654 162.678 64.4418 162.078 66.0233C161.478 67.5831 160.658 68.8613 159.618 69.8579C158.578 70.8327 157.388 71.5802 156.048 72.1001C154.708 72.62 153.258 72.88 151.698 72.88C150.158 72.88 148.718 72.62 147.378 72.1001C146.038 71.5802 144.848 70.8327 143.808 69.8579C142.768 68.8613 141.948 67.5831 141.348 66.0233C140.748 64.4418 140.448 62.6654 140.448 60.694C140.448 58.7225 140.748 56.9786 141.348 55.4621C141.948 53.9239 142.768 52.6999 143.808 51.79C144.848 50.8585 146.028 50.1652 147.348 49.7103ZM152.658 72.3601C153.558 72.3601 154.388 72.2084 155.148 71.9051C155.908 71.5802 156.558 71.136 157.098 70.5728C157.638 70.0095 158.108 69.3596 158.508 68.623C158.908 67.8864 159.228 67.074 159.468 66.1858C159.708 65.2976 159.878 64.3985 159.978 63.4886C160.098 62.5787 160.158 61.6472 160.158 60.694C160.158 59.1125 159.968 57.6826 159.588 56.4045C159.208 55.1263 158.698 54.0647 158.058 53.2198C157.438 52.3749 156.718 51.6709 155.898 51.1076C155.078 50.5227 154.238 50.1111 153.378 49.8727C152.518 49.6128 151.648 49.4828 150.768 49.4828C149.688 49.4828 148.708 49.6994 147.828 50.1327C146.968 50.5443 146.258 51.1076 145.698 51.8225C145.138 52.5158 144.668 53.3498 144.288 54.3247C143.908 55.2996 143.638 56.3178 143.478 57.3793C143.338 58.4192 143.268 59.5241 143.268 60.694C143.268 62.2538 143.458 63.6944 143.838 65.0159C144.218 66.3374 144.718 67.4423 145.338 68.3305C145.978 69.2188 146.708 69.977 147.528 70.6053C148.348 71.2119 149.188 71.656 150.048 71.9376C150.908 72.2192 151.778 72.3601 152.658 72.3601Z" fill="white"/>
<path d="M177.83 49.4828L180.62 48.9953V72.3601L177.83 72.88V50.0027H168.35C167.77 54.1839 167.48 59.7732 167.48 66.7707C167.48 68.7422 167.08 70.2586 166.28 71.3202C165.5 72.3601 164.5 72.88 163.28 72.88L162.8 72.3601C164.08 72.3601 165.1 71.8835 165.86 70.9302C166.64 69.977 167.03 68.428 167.03 66.2833C167.03 63.1203 167.1 60.1415 167.24 57.3469C167.4 54.5522 167.56 52.5374 167.72 51.3026L167.96 49.4828H177.83Z" fill="white"/>
<path d="M197.358 58.6467C198.438 58.6467 199.438 58.7767 200.358 59.0367C201.298 59.2966 202.138 59.7082 202.878 60.2715C203.638 60.8131 204.238 61.5497 204.678 62.4812C205.118 63.4128 205.338 64.5068 205.338 65.7633C205.338 67.4748 204.928 68.8613 204.108 69.9229C203.308 70.9627 202.088 71.721 200.448 72.1976C198.828 72.6525 196.698 72.88 194.058 72.88C193.358 72.88 192.498 72.8367 191.478 72.75C190.458 72.6634 189.618 72.5767 188.958 72.49L187.968 72.3601L185.148 72.88V49.4828L187.968 48.9953V60.629C188.988 60.5423 190.478 60.1957 192.438 59.5891C194.398 58.9608 196.038 58.6467 197.358 58.6467ZM194.538 72.3601C195.958 72.3601 197.198 72.1759 198.258 71.8076C199.338 71.4393 200.178 70.9302 200.778 70.2803C201.378 69.6304 201.818 68.9263 202.098 68.1681C202.378 67.4098 202.518 66.6082 202.518 65.7633C202.518 63.8352 202.018 62.2863 201.018 61.1164C200.038 59.9249 198.818 59.275 197.358 59.1666C196.038 59.1666 194.398 59.4808 192.438 60.109C190.478 60.7156 188.988 61.0622 187.968 61.1489V71.8726C190.748 72.1976 192.938 72.3601 194.538 72.3601Z" fill="white"/>
</svg>
