<svg width="233" height="32" viewBox="0 0 233 32" fill="none" xmlns="http://www.w3.org/2000/svg">
<path d="M8.49109 13.628C10.4539 13.686 12.2744 14.1504 13.9527 15.0211C15.6595 15.8918 17.0675 16.9802 18.1769 18.2863C19.3147 19.5633 20.2819 21 21.0784 22.5963C21.8749 24.1636 22.458 25.7018 22.8278 27.2111C23.1976 28.6913 23.3683 30.0554 23.3398 31.3034L20.6944 32C20.6944 31.2744 20.6233 30.4617 20.481 29.562C20.3388 28.6332 20.1112 27.6174 19.7983 26.5145C19.4854 25.3826 19.1014 24.2652 18.6463 23.1623C18.1911 22.0594 17.608 20.9855 16.8968 19.9406C16.1857 18.8668 15.3892 17.9235 14.5074 17.1108C13.654 16.2982 12.63 15.6451 11.4352 15.1517C10.269 14.6293 9.01734 14.3536 7.68038 14.3245L4.01087 17.4591V31.3034L0 32V0.654353L4.01087 0.00131938V16.5884L23.3825 0.00131938L23.8092 0.523745L8.49109 13.628Z" fill="white"/>
<path d="M35.6164 0.959101C37.5223 0.32058 39.5846 0.00131938 41.8034 0.00131938C44.0507 0.00131938 46.113 0.32058 47.9904 0.959101C49.8963 1.5686 51.5888 2.49736 53.068 3.74538C54.5472 4.96438 55.7135 6.60422 56.5668 8.66491C57.4202 10.6966 57.8469 13.033 57.8469 15.6741C57.8469 18.3153 57.4202 20.6953 56.5668 22.814C55.7135 24.9037 54.5472 26.6161 53.068 27.9512C51.5888 29.2573 49.8963 30.2586 47.9904 30.9551C46.0845 31.6517 44.0222 32 41.8034 32C39.6131 32 37.565 31.6517 35.6591 30.9551C33.7532 30.2586 32.0607 29.2573 30.5815 27.9512C29.1023 26.6161 27.9361 24.9037 27.0827 22.814C26.2293 20.6953 25.8026 18.3153 25.8026 15.6741C25.8026 13.033 26.2293 10.6966 27.0827 8.66491C27.9361 6.60422 29.1023 4.96438 30.5815 3.74538C32.0607 2.49736 33.739 1.5686 35.6164 0.959101ZM43.1688 31.3034C44.4489 31.3034 45.6294 31.1003 46.7103 30.6939C47.7913 30.2586 48.7158 29.6636 49.4838 28.909C50.2519 28.1544 50.9203 27.2836 51.4892 26.2968C52.0582 25.31 52.5133 24.2216 52.8546 23.0317C53.196 21.8417 53.4378 20.6372 53.58 19.4182C53.7507 18.1992 53.836 16.9512 53.836 15.6741C53.836 13.5554 53.5658 11.6398 53.0253 9.92744C52.4848 8.21504 51.7595 6.79288 50.8492 5.66095C49.9674 4.52902 48.9433 3.58575 47.7771 2.83113C46.6108 2.04749 45.416 1.49604 44.1929 1.17678C42.9697 0.828496 41.7323 0.654353 40.4807 0.654353C38.9446 0.654353 37.5508 0.94459 36.2991 1.52506C35.076 2.07652 34.0662 2.83113 33.2697 3.78892C32.4732 4.71768 31.8047 5.83509 31.2642 7.14116C30.7238 8.44723 30.3397 9.81135 30.1122 11.2335C29.9131 12.6266 29.8135 14.1069 29.8135 15.6741C29.8135 17.7639 30.0837 19.6939 30.6242 21.4644C31.1647 23.2348 31.8758 24.715 32.7576 25.905C33.6679 27.095 34.7062 28.1108 35.8725 28.9525C37.0387 29.7652 38.2335 30.3602 39.4566 30.7375C40.6798 31.1148 41.9172 31.3034 43.1688 31.3034Z" fill="white"/>
<path d="M90.6049 0.654353L94.6157 0.00131938V31.3034L90.6049 32V2.22164L79.3403 22.1174L79.767 22.8575L78.6149 23.5541L67.265 3.48417V31.3034L63.2542 32V0.654353L67.265 0.00131938V0.784961L78.9563 21.4644L90.6049 0.828496V0.654353Z" fill="white"/>
<path d="M127.875 0.00131938C131.374 0.00131938 134.247 1.06069 136.494 3.17942C138.77 5.29815 139.908 8.31662 139.908 12.2348C139.908 14.876 139.353 17.1398 138.244 19.0264C137.163 20.9129 135.726 22.3061 133.934 23.2058C132.171 24.0765 130.151 24.5119 127.875 24.5119C125.77 24.5409 123.765 24.091 121.859 23.1623V31.3034L117.848 32V23.1623C115.971 24.091 113.98 24.5409 111.875 24.5119C109.599 24.5119 107.565 24.0765 105.773 23.2058C103.981 22.3061 102.544 20.9129 101.463 19.0264C100.382 17.1398 99.842 14.876 99.842 12.2348C99.842 8.31662 100.966 5.29815 103.213 3.17942C105.46 1.06069 108.347 0.00131938 111.875 0.00131938C113.98 -0.0277057 115.971 0.422162 117.848 1.35092V0.654353L121.859 0.00131938V1.35092C123.765 0.422162 125.77 -0.0277057 127.875 0.00131938ZM113.197 23.8153C114.933 23.7863 116.483 23.2203 117.848 22.1174V3.31003C115.658 1.6847 113.212 0.799472 110.509 0.654353C109.229 0.654353 108.134 1.00264 107.224 1.69921C106.313 2.36675 105.617 3.281 105.133 4.44195C104.678 5.6029 104.351 6.8219 104.152 8.09894C103.952 9.37599 103.853 10.7546 103.853 12.2348C103.853 14.1794 104.137 15.9354 104.706 17.5026C105.304 19.0409 106.072 20.2599 107.01 21.1596C107.978 22.0303 108.987 22.6979 110.04 23.1623C111.092 23.5976 112.145 23.8153 113.197 23.8153ZM129.198 23.8153C130.478 23.8153 131.573 23.4815 132.484 22.814C133.394 22.1464 134.077 21.2322 134.532 20.0712C135.015 18.8813 135.357 17.6623 135.556 16.4142C135.783 15.1372 135.897 13.7441 135.897 12.2348C135.897 10.2902 135.598 8.54881 135.001 7.01055C134.404 5.4723 133.636 4.26781 132.697 3.3971C131.758 2.49736 130.763 1.8153 129.71 1.35092C128.658 0.886543 127.605 0.654353 126.553 0.654353C124.789 0.683376 123.224 1.26385 121.859 2.39578V21.2032C124.049 22.8285 126.496 23.6992 129.198 23.8153Z" fill="white"/>
<path d="M153.497 0.959101C155.403 0.32058 157.466 0.00131938 159.684 0.00131938C161.932 0.00131938 163.994 0.32058 165.871 0.959101C167.777 1.5686 169.47 2.49736 170.949 3.74538C172.428 4.96438 173.594 6.60422 174.448 8.66491C175.301 10.6966 175.728 13.033 175.728 15.6741C175.728 18.3153 175.301 20.6953 174.448 22.814C173.594 24.9037 172.428 26.6161 170.949 27.9512C169.47 29.2573 167.777 30.2586 165.871 30.9551C163.965 31.6517 161.903 32 159.684 32C157.494 32 155.446 31.6517 153.54 30.9551C151.634 30.2586 149.942 29.2573 148.462 27.9512C146.983 26.6161 145.817 24.9037 144.964 22.814C144.11 20.6953 143.684 18.3153 143.684 15.6741C143.684 13.033 144.11 10.6966 144.964 8.66491C145.817 6.60422 146.983 4.96438 148.462 3.74538C149.942 2.49736 151.62 1.5686 153.497 0.959101ZM161.05 31.3034C162.33 31.3034 163.51 31.1003 164.591 30.6939C165.672 30.2586 166.597 29.6636 167.365 28.909C168.133 28.1544 168.801 27.2836 169.37 26.2968C169.939 25.31 170.394 24.2216 170.736 23.0317C171.077 21.8417 171.319 20.6372 171.461 19.4182C171.632 18.1992 171.717 16.9512 171.717 15.6741C171.717 13.5554 171.447 11.6398 170.906 9.92744C170.366 8.21504 169.64 6.79288 168.73 5.66095C167.848 4.52902 166.824 3.58575 165.658 2.83113C164.492 2.04749 163.297 1.49604 162.074 1.17678C160.851 0.828496 159.613 0.654353 158.362 0.654353C156.826 0.654353 155.432 0.94459 154.18 1.52506C152.957 2.07652 151.947 2.83113 151.151 3.78892C150.354 4.71768 149.686 5.83509 149.145 7.14116C148.605 8.44723 148.221 9.81135 147.993 11.2335C147.794 12.6266 147.694 14.1069 147.694 15.6741C147.694 17.7639 147.965 19.6939 148.505 21.4644C149.046 23.2348 149.757 24.715 150.639 25.905C151.549 27.095 152.587 28.1108 153.753 28.9525C154.92 29.7652 156.114 30.3602 157.338 30.7375C158.561 31.1148 159.798 31.3034 161.05 31.3034Z" fill="white"/>
<path d="M195.088 0.00131938C196.908 0.00131938 198.601 0.291557 200.165 0.872031C201.758 1.45251 203.095 2.38127 204.176 3.65831C205.257 4.93536 205.798 6.43008 205.798 8.14248C205.798 9.8839 205.271 11.3931 204.219 12.6702C203.195 13.9472 201.929 14.876 200.421 15.4565C198.942 16.0369 197.392 16.3272 195.77 16.3272H185.103V31.3034L181.092 32V0.654353L185.103 0.00131938H195.088ZM195.77 15.6741C196.88 15.6741 197.847 15.4565 198.672 15.0211C199.497 14.5567 200.123 13.9472 200.549 13.1926C200.976 12.438 201.289 11.6544 201.488 10.8417C201.687 10 201.787 9.10026 201.787 8.14248C201.787 6.08179 201.061 4.32586 199.611 2.87467C198.188 1.39446 196.467 0.654353 194.448 0.654353H185.103V15.6741H195.77Z" fill="white"/>
<path d="M229.032 0.654353L233 0.00131938V4.09367L229.032 4.7467V1.35092H222.333V31.3034L218.322 32V1.35092H211.666V4.09367L207.655 4.7467V0.654353L211.666 0.00131938V0.654353H218.322L222.333 0.00131938V0.654353H229.032Z" fill="white"/>
</svg>
