<svg width="245" height="89" viewBox="0 0 245 89" fill="none" xmlns="http://www.w3.org/2000/svg">
<path d="M31.2475 0.000488281C37.4647 0.000488281 43.2782 0.969195 48.6879 2.90661C54.1785 4.84402 58.9827 7.66942 63.1005 11.3828C67.2992 15.0155 70.6096 19.7783 73.0319 25.6712C75.4542 31.4835 76.6653 38.0626 76.6653 45.4086C76.6653 52.7547 75.4542 59.2935 73.0319 65.025C70.6904 70.6758 67.3799 75.2368 63.1005 78.708C58.9019 82.0984 54.0977 84.6817 48.6879 86.4576C43.3589 88.1529 37.5454 89.0005 31.2475 89.0005C26.3222 89.0005 20.9528 87.9107 15.1393 85.7311C9.3258 83.4708 4.27937 80.8068 0 77.7393L3.27009 71.927C7.30723 76.5284 12.0711 80.161 17.5616 82.825C23.0521 85.4082 28.8656 86.8209 35.002 87.0631C38.7162 87.0631 42.067 86.5384 45.0545 85.4889C48.1227 84.4395 50.7469 82.9461 52.9269 81.0087C55.107 78.9905 57.0045 76.6898 58.6193 74.1066C60.2342 71.5234 61.5261 68.6576 62.495 65.5093C63.4639 62.2803 64.1502 59.0513 64.5539 55.8223C65.0384 52.5125 65.2806 49.0413 65.2806 45.4086C65.2806 42.9062 65.1191 40.4037 64.7961 37.9012C58.7404 37.9012 50.0202 39.1524 38.6355 41.6549C27.2507 44.1574 18.4497 45.4086 12.2325 45.4086V43.5923C18.4497 43.5923 27.2103 42.3411 38.5143 39.8386C49.8991 37.3361 58.5789 36.0445 64.5539 35.9638C63.585 30.313 61.8087 25.2676 59.2249 20.8277C56.7219 16.3071 53.694 12.7148 50.1413 10.0508C46.6694 7.38688 42.9956 5.36874 39.1199 3.99641C35.2443 2.54334 31.3282 1.81681 27.3718 1.81681C25.5147 1.81681 23.698 2.05899 21.9217 2.54334C20.2261 3.0277 18.692 3.67351 17.3193 4.48076C16.0275 5.28802 14.7759 6.176 13.5648 7.1447C12.4344 8.03269 11.4655 8.96103 10.6581 9.92973C9.85063 10.8984 9.12394 11.7864 8.478 12.5937C7.9128 13.4009 7.46871 14.0871 7.14574 14.6522C6.82277 15.1365 6.62091 15.3787 6.54017 15.3787L3.27009 9.44539C9.64877 3.14879 18.9746 0.000488281 31.2475 0.000488281Z" fill="#CDD2C2"/>
<path d="M140.59 1.81681L151.854 0.000488281V11.3828L140.59 13.1991V3.75422H121.575V87.0631L110.19 89.0005V3.75422H91.2965V11.3828L79.9118 13.1991V1.81681L91.2965 0.000488281V1.81681H110.19L121.575 0.000488281V1.81681H140.59Z" fill="#CDD2C2"/>
<path d="M181.899 2.66443C187.309 0.888468 193.163 0.000488281 199.461 0.000488281C205.84 0.000488281 211.694 0.888468 217.023 2.66443C222.432 4.35967 227.237 6.94289 231.435 10.4141C235.634 13.8046 238.944 18.3656 241.367 24.0971C243.789 29.7479 245 36.2463 245 43.5923C245 50.9384 243.789 57.5579 241.367 63.4508C238.944 69.2631 235.634 74.0259 231.435 77.7393C227.237 81.3719 222.432 84.157 217.023 86.0944C211.613 88.0318 205.759 89.0005 199.461 89.0005C193.244 89.0005 187.43 88.0318 182.021 86.0944C176.611 84.157 171.807 81.3719 167.608 77.7393C163.409 74.0259 160.099 69.2631 157.677 63.4508C155.254 57.5579 154.043 50.9384 154.043 43.5923C154.043 36.2463 155.254 29.7479 157.677 24.0971C160.099 18.3656 163.409 13.8046 167.608 10.4141C171.807 6.94289 176.57 4.35967 181.899 2.66443ZM203.337 87.0631C206.97 87.0631 210.321 86.498 213.389 85.3678C216.457 84.157 219.082 82.5021 221.262 80.4032C223.442 78.3043 225.339 75.8826 226.954 73.1379C228.569 70.3932 229.861 67.366 230.83 64.0563C231.799 60.7465 232.485 57.3964 232.889 54.0059C233.373 50.6155 233.615 47.1442 233.615 43.5923C233.615 37.6994 232.848 32.3715 231.314 27.6086C229.78 22.8458 227.721 18.8903 225.137 15.742C222.634 12.5937 219.727 9.9701 216.417 7.87124C213.107 5.69164 209.715 4.15786 206.243 3.26988C202.771 2.30117 199.259 1.81681 195.706 1.81681C191.346 1.81681 187.39 2.62407 183.837 4.23858C180.365 5.77237 177.499 7.87123 175.238 10.5352C172.977 13.1184 171.08 16.2263 169.546 19.859C168.012 23.4916 166.922 27.2857 166.276 31.2413C165.711 35.1161 165.428 39.2331 165.428 43.5923C165.428 49.4046 166.195 54.7728 167.729 59.6971C169.263 64.6213 171.282 68.7384 173.785 72.0481C176.369 75.3579 179.316 78.1833 182.626 80.5243C185.937 82.7846 189.328 84.4395 192.8 85.4889C196.272 86.5384 199.784 87.0631 203.337 87.0631Z" fill="#CDD2C2"/>
</svg>
