<svg width="239" height="70" viewBox="0 0 239 70" fill="none" xmlns="http://www.w3.org/2000/svg">
<path d="M16.7518 10.368C18.3732 10.7733 19.6638 11.5306 20.6238 12.64C21.6052 13.728 22.0958 15.1786 22.0958 16.992C22.0958 19.5093 21.1358 21.312 19.2158 22.4C17.3172 23.4666 14.2665 24 10.0638 24C9.7225 24 9.3385 23.9893 8.91183 23.968C8.48517 23.9466 8.06917 23.9253 7.66383 23.904C7.2585 23.8826 6.85317 23.8506 6.44783 23.808C6.0425 23.7653 5.66917 23.7333 5.32783 23.712C4.9865 23.6693 4.67717 23.6373 4.39983 23.616C4.14383 23.5733 3.94117 23.5413 3.79183 23.52L3.56783 23.488L0.559832 24V0.95998L3.56783 0.47998H12.0798C12.8905 0.47998 13.6692 0.533314 14.4158 0.63998C15.1625 0.746647 15.8772 0.92798 16.5598 1.18398C17.2638 1.43998 17.8718 1.75998 18.3838 2.14398C18.8958 2.52798 19.3012 3.01865 19.5998 3.61598C19.9198 4.21331 20.0798 4.88531 20.0798 5.63198C20.0798 7.06131 19.7598 8.15998 19.1198 8.92798C18.5012 9.67465 17.7118 10.1546 16.7518 10.368ZM11.5678 0.95998H3.56783V11.936C4.67717 11.8506 6.22383 11.52 8.20783 10.944C10.2132 10.3466 11.8558 10.0266 13.1358 9.98398H13.0718C14.3305 9.98398 15.3118 9.56798 16.0158 8.73598C16.7198 7.88265 17.0718 6.79465 17.0718 5.47198C17.0718 4.70398 16.9118 4.02131 16.5918 3.42398C16.2718 2.82665 15.8345 2.35731 15.2798 2.01598C14.7465 1.67465 14.1598 1.41865 13.5198 1.24798C12.9012 1.05598 12.2505 0.95998 11.5678 0.95998ZM10.5758 23.488C12.0905 23.488 13.4132 23.3066 14.5438 22.944C15.6958 22.5813 16.5918 22.08 17.2318 21.44C17.8718 20.8 18.3412 20.1066 18.6398 19.36C18.9385 18.6133 19.0878 17.824 19.0878 16.992C19.0878 15.0933 18.5545 13.568 17.4878 12.416C16.4425 11.2426 15.1412 10.6026 13.5838 10.496C12.1758 10.496 10.4265 10.8053 8.33583 11.424C6.24517 12.0213 4.65583 12.3626 3.56783 12.448V23.008C6.53317 23.328 8.86917 23.488 10.5758 23.488Z" fill="white"/>
<path d="M32.3638 1.18398C33.7932 0.714647 35.3398 0.47998 37.0038 0.47998C38.6892 0.47998 40.2358 0.714647 41.6438 1.18398C43.0732 1.63198 44.3425 2.31465 45.4518 3.23198C46.5612 4.12798 47.4358 5.33331 48.0758 6.84798C48.7158 8.34131 49.0358 10.0586 49.0358 12C49.0358 13.9413 48.7158 15.6906 48.0758 17.248C47.4358 18.784 46.5612 20.0426 45.4518 21.024C44.3425 21.984 43.0732 22.72 41.6438 23.232C40.2145 23.744 38.6678 24 37.0038 24C35.3612 24 33.8252 23.744 32.3958 23.232C30.9665 22.72 29.6972 21.984 28.5878 21.024C27.4785 20.0426 26.6038 18.784 25.9638 17.248C25.3238 15.6906 25.0038 13.9413 25.0038 12C25.0038 10.0586 25.3238 8.34131 25.9638 6.84798C26.6038 5.33331 27.4785 4.12798 28.5878 3.23198C29.6972 2.31465 30.9558 1.63198 32.3638 1.18398ZM38.0278 23.488C38.9878 23.488 39.8732 23.3386 40.6838 23.04C41.4945 22.72 42.1878 22.2826 42.7638 21.728C43.3398 21.1733 43.8412 20.5333 44.2678 19.808C44.6945 19.0826 45.0358 18.2826 45.2918 17.408C45.5478 16.5333 45.7292 15.648 45.8358 14.752C45.9638 13.856 46.0278 12.9386 46.0278 12C46.0278 10.4426 45.8252 9.03465 45.4198 7.77598C45.0145 6.51731 44.4705 5.47198 43.7878 4.63998C43.1265 3.80798 42.3585 3.11465 41.4838 2.55998C40.6092 1.98398 39.7132 1.57865 38.7958 1.34398C37.8785 1.08798 36.9505 0.95998 36.0118 0.95998C34.8598 0.95998 33.8145 1.17331 32.8758 1.59998C31.9585 2.00531 31.2012 2.55998 30.6038 3.26398C30.0065 3.94665 29.5052 4.76798 29.0998 5.72798C28.6945 6.68798 28.4065 7.69065 28.2358 8.73598C28.0865 9.75998 28.0118 10.848 28.0118 12C28.0118 13.536 28.2145 14.9546 28.6198 16.256C29.0252 17.5573 29.5585 18.6453 30.2198 19.52C30.9025 20.3946 31.6812 21.1413 32.5558 21.76C33.4305 22.3573 34.3265 22.7946 35.2438 23.072C36.1612 23.3493 37.0892 23.488 38.0278 23.488Z" fill="white"/>
<path d="M69.6333 23.648L72.1293 23.616V26.624L69.1213 27.136V24.128H51.1053V26.624L48.0973 27.136V23.616H50.5933C51.9587 23.616 53.0467 23.1466 53.8573 22.208C54.6893 21.2693 55.1053 19.744 55.1053 17.632C55.1053 14.5173 55.1907 11.584 55.3613 8.83198C55.532 6.07998 55.692 4.10665 55.8413 2.91198L56.0973 1.11998H66.6253L69.6333 0.607981V23.648ZM53.0893 23.616H66.6253V1.59998H56.5133C55.916 5.71731 55.6173 11.2213 55.6173 18.112C55.6173 19.4986 55.3933 20.6613 54.9453 21.6C54.4973 22.5173 53.8787 23.1893 53.0893 23.616Z" fill="white"/>
<path d="M81.2076 1.18398C82.6369 0.714647 84.1836 0.47998 85.8476 0.47998C87.5329 0.47998 89.0796 0.714647 90.4876 1.18398C91.9169 1.63198 93.1862 2.31465 94.2956 3.23198C95.4049 4.12798 96.2796 5.33331 96.9196 6.84798C97.5596 8.34131 97.8796 10.0586 97.8796 12C97.8796 13.9413 97.5596 15.6906 96.9196 17.248C96.2796 18.784 95.4049 20.0426 94.2956 21.024C93.1862 21.984 91.9169 22.72 90.4876 23.232C89.0582 23.744 87.5116 24 85.8476 24C84.2049 24 82.6689 23.744 81.2396 23.232C79.8102 22.72 78.5409 21.984 77.4316 21.024C76.3222 20.0426 75.4476 18.784 74.8076 17.248C74.1676 15.6906 73.8476 13.9413 73.8476 12C73.8476 10.0586 74.1676 8.34131 74.8076 6.84798C75.4476 5.33331 76.3222 4.12798 77.4316 3.23198C78.5409 2.31465 79.7996 1.63198 81.2076 1.18398ZM86.8716 23.488C87.8316 23.488 88.7169 23.3386 89.5276 23.04C90.3382 22.72 91.0316 22.2826 91.6076 21.728C92.1836 21.1733 92.6849 20.5333 93.1116 19.808C93.5382 19.0826 93.8796 18.2826 94.1356 17.408C94.3916 16.5333 94.5729 15.648 94.6796 14.752C94.8076 13.856 94.8716 12.9386 94.8716 12C94.8716 10.4426 94.6689 9.03465 94.2636 7.77598C93.8582 6.51731 93.3143 5.47198 92.6316 4.63998C91.9703 3.80798 91.2022 3.11465 90.3276 2.55998C89.4529 1.98398 88.5569 1.57865 87.6396 1.34398C86.7222 1.08798 85.7943 0.95998 84.8556 0.95998C83.7036 0.95998 82.6582 1.17331 81.7196 1.59998C80.8022 2.00531 80.0449 2.55998 79.4476 3.26398C78.8503 3.94665 78.3489 4.76798 77.9436 5.72798C77.5382 6.68798 77.2503 7.69065 77.0796 8.73598C76.9303 9.75998 76.8556 10.848 76.8556 12C76.8556 13.536 77.0583 14.9546 77.4636 16.256C77.8689 17.5573 78.4023 18.6453 79.0636 19.52C79.7462 20.3946 80.5249 21.1413 81.3996 21.76C82.2742 22.3573 83.1702 22.7946 84.0876 23.072C85.0049 23.3493 85.9329 23.488 86.8716 23.488Z" fill="white"/>
<path d="M118.415 0.95998L121.423 0.47998V23.488L118.415 24V10.496C116.836 10.496 114.586 10.8266 111.663 11.488C108.74 12.1493 106.49 12.48 104.911 12.48V23.488L101.903 24V0.95998L104.911 0.47998V12C106.49 12 108.74 11.6693 111.663 11.008C114.586 10.3253 116.836 9.98398 118.415 9.98398V0.95998Z" fill="white"/>
<path d="M138.759 0.95998L141.767 0.47998V3.48798L138.759 3.96798V1.47198H129.255V11.968C130.236 11.904 131.708 11.5626 133.671 10.944C135.633 10.304 137.159 9.98398 138.247 9.98398V10.496C137.159 10.496 135.633 10.816 133.671 11.456C131.708 12.0746 130.236 12.416 129.255 12.48V23.008H138.759V21.984L141.767 21.504V23.488L138.759 24V23.488H129.255L126.247 24V0.95998L129.255 0.47998V0.95998H138.759Z" fill="white"/>
<path d="M161.853 0.95998L164.861 0.47998V23.488L161.853 24V1.47198H148.349V23.488L145.341 24V0.95998L148.349 0.47998V0.95998H161.853Z" fill="white"/>
<path d="M180.211 0.47998C181.577 0.47998 182.846 0.693314 184.019 1.11998C185.214 1.54665 186.217 2.22931 187.027 3.16798C187.838 4.10665 188.243 5.20531 188.243 6.46398C188.243 7.74398 187.849 8.85331 187.059 9.79198C186.291 10.7306 185.342 11.4133 184.211 11.84C183.102 12.2666 181.939 12.48 180.723 12.48H172.723V23.488L169.715 24V0.95998L172.723 0.47998H180.211ZM180.723 12C181.555 12 182.281 11.84 182.899 11.52C183.518 11.1786 183.987 10.7306 184.307 10.176C184.627 9.62131 184.862 9.04531 185.011 8.44798C185.161 7.82931 185.235 7.16798 185.235 6.46398C185.235 4.94931 184.691 3.65865 183.603 2.59198C182.537 1.50398 181.246 0.95998 179.731 0.95998H172.723V12H180.723Z" fill="white"/>
<path d="M198.02 1.18398C199.449 0.714647 200.996 0.47998 202.66 0.47998C204.345 0.47998 205.892 0.714647 207.3 1.18398C208.729 1.63198 209.999 2.31465 211.108 3.23198C212.217 4.12798 213.092 5.33331 213.732 6.84798C214.372 8.34131 214.692 10.0586 214.692 12C214.692 13.9413 214.372 15.6906 213.732 17.248C213.092 18.784 212.217 20.0426 211.108 21.024C209.999 21.984 208.729 22.72 207.3 23.232C205.871 23.744 204.324 24 202.66 24C201.017 24 199.481 23.744 198.052 23.232C196.623 22.72 195.353 21.984 194.244 21.024C193.135 20.0426 192.26 18.784 191.62 17.248C190.98 15.6906 190.66 13.9413 190.66 12C190.66 10.0586 190.98 8.34131 191.62 6.84798C192.26 5.33331 193.135 4.12798 194.244 3.23198C195.353 2.31465 196.612 1.63198 198.02 1.18398ZM203.684 23.488C204.644 23.488 205.529 23.3386 206.34 23.04C207.151 22.72 207.844 22.2826 208.42 21.728C208.996 21.1733 209.497 20.5333 209.924 19.808C210.351 19.0826 210.692 18.2826 210.948 17.408C211.204 16.5333 211.385 15.648 211.492 14.752C211.62 13.856 211.684 12.9386 211.684 12C211.684 10.4426 211.481 9.03465 211.076 7.77598C210.671 6.51731 210.127 5.47198 209.444 4.63998C208.783 3.80798 208.015 3.11465 207.14 2.55998C206.265 1.98398 205.369 1.57865 204.452 1.34398C203.535 1.08798 202.607 0.95998 201.668 0.95998C200.516 0.95998 199.471 1.17331 198.532 1.59998C197.615 2.00531 196.857 2.55998 196.26 3.26398C195.663 3.94665 195.161 4.76798 194.756 5.72798C194.351 6.68798 194.063 7.69065 193.892 8.73598C193.743 9.75998 193.668 10.848 193.668 12C193.668 13.536 193.871 14.9546 194.276 16.256C194.681 17.5573 195.215 18.6453 195.876 19.52C196.559 20.3946 197.337 21.1413 198.212 21.76C199.087 22.3573 199.983 22.7946 200.9 23.072C201.817 23.3493 202.745 23.488 203.684 23.488Z" fill="white"/>
<path d="M17.0398 41.96L20.0478 41.48V64.488L17.0398 65V51.496C15.4612 51.496 13.2105 51.8266 10.2878 52.488C7.36517 53.1493 5.1145 53.48 3.53583 53.48V64.488L0.527832 65V41.96L3.53583 41.48V53C5.1145 53 7.36517 52.6693 10.2878 52.008C13.2105 51.3253 15.4612 50.984 17.0398 50.984V41.96Z" fill="white"/>
<path d="M41.4156 41.96L44.4236 41.48V64.488L41.4156 65V47.016L27.9116 64.424V64.488L24.9036 65V41.96L27.9116 41.48V63.592L41.4156 46.216V41.96Z" fill="white"/>
<path d="M68.8298 64.008H72.8298V64.488C72.1258 64.488 71.5285 64.6266 71.0378 64.904C70.5472 65.1813 70.1845 65.576 69.9498 66.088C69.7152 66.6 69.5552 67.1227 69.4698 67.656C69.3845 68.1893 69.3418 68.808 69.3418 69.512L67.8378 68.488C67.8378 66.4827 68.5525 65.1493 69.9818 64.488H52.3178L49.3098 65V41.96L52.3178 41.48V64.008H65.8218V41.96L68.8298 41.48V64.008Z" fill="white"/>
<path d="M92.9931 65.096L89.3451 57.096C87.9584 57.1386 85.9104 57.4693 83.2011 58.088C80.4917 58.7066 78.3904 59.0266 76.8971 59.048L74.1771 65.128L73.7291 64.904L83.2331 43.592L83.0731 43.272L83.4891 42.952L85.5371 41.48L95.4571 63.304L92.9931 65.096ZM77.1211 58.568C78.5504 58.5253 80.5771 58.2053 83.2011 57.608C85.8251 57.0106 87.7984 56.6693 89.1211 56.584L83.4891 44.2L77.1211 58.568Z" fill="white"/>
<path d="M111.071 41.96L114.079 41.48V44.488L111.071 44.968V42.472H101.567V52.968C102.548 52.904 104.02 52.5626 105.983 51.944C107.946 51.304 109.471 50.984 110.559 50.984V51.496C109.471 51.496 107.946 51.816 105.983 52.456C104.02 53.0746 102.548 53.416 101.567 53.48V64.008H111.071V62.984L114.079 62.504V64.488L111.071 65V64.488H101.567L98.5591 65V41.96L101.567 41.48V41.96H111.071Z" fill="white"/>
<path d="M138.166 41.96L141.174 41.48V64.488L138.166 65V43.112L129.718 57.736L130.038 58.28L129.174 58.792L120.662 44.04V64.488L117.654 65V41.96L120.662 41.48V42.056L129.43 57.256L138.166 42.088V41.96Z" fill="white"/>
<path d="M152.645 42.184C154.074 41.7146 155.621 41.48 157.285 41.48C158.97 41.48 160.517 41.7146 161.925 42.184C163.354 42.632 164.624 43.3146 165.733 44.232C166.842 45.128 167.717 46.3333 168.357 47.848C168.997 49.3413 169.317 51.0586 169.317 53C169.317 54.9413 168.997 56.6906 168.357 58.248C167.717 59.784 166.842 61.0426 165.733 62.024C164.624 62.984 163.354 63.72 161.925 64.232C160.496 64.744 158.949 65 157.285 65C155.642 65 154.106 64.744 152.677 64.232C151.248 63.72 149.978 62.984 148.869 62.024C147.76 61.0426 146.885 59.784 146.245 58.248C145.605 56.6906 145.285 54.9413 145.285 53C145.285 51.0586 145.605 49.3413 146.245 47.848C146.885 46.3333 147.76 45.128 148.869 44.232C149.978 43.3146 151.237 42.632 152.645 42.184ZM158.309 64.488C159.269 64.488 160.154 64.3386 160.965 64.04C161.776 63.72 162.469 63.2826 163.045 62.728C163.621 62.1733 164.122 61.5333 164.549 60.808C164.976 60.0826 165.317 59.2826 165.573 58.408C165.829 57.5333 166.01 56.648 166.117 55.752C166.245 54.856 166.309 53.9386 166.309 53C166.309 51.4426 166.106 50.0346 165.701 48.776C165.296 47.5173 164.752 46.472 164.069 45.64C163.408 44.808 162.64 44.1146 161.765 43.56C160.89 42.984 159.994 42.5786 159.077 42.344C158.16 42.088 157.232 41.96 156.293 41.96C155.141 41.96 154.096 42.1733 153.157 42.6C152.24 43.0053 151.482 43.56 150.885 44.264C150.288 44.9466 149.786 45.768 149.381 46.728C148.976 47.688 148.688 48.6906 148.517 49.736C148.368 50.76 148.293 51.848 148.293 53C148.293 54.536 148.496 55.9546 148.901 57.256C149.306 58.5573 149.84 59.6453 150.501 60.52C151.184 61.3946 151.962 62.1413 152.837 62.76C153.712 63.3573 154.608 63.7946 155.525 64.072C156.442 64.3493 157.37 64.488 158.309 64.488Z" fill="white"/>
<path d="M192.348 60.008L193.212 61.576C192.018 62.728 190.652 63.6026 189.116 64.2C187.58 64.7973 185.98 65.064 184.316 65C182.674 65 181.138 64.744 179.708 64.232C178.279 63.72 177.01 62.984 175.9 62.024C174.791 61.0426 173.916 59.784 173.276 58.248C172.636 56.6906 172.316 54.9413 172.316 53C172.316 51.0586 172.636 49.3413 173.276 47.848C173.916 46.3333 174.791 45.128 175.9 44.232C177.01 43.3146 178.268 42.632 179.676 42.184C181.106 41.7146 182.652 41.48 184.316 41.48C187.026 41.416 189.511 42.1413 191.772 43.656L190.876 45.672C189.98 44.52 188.86 43.624 187.516 42.984C186.194 42.3226 184.796 41.9813 183.324 41.96C182.172 41.96 181.127 42.1733 180.188 42.6C179.271 43.0053 178.514 43.56 177.916 44.264C177.319 44.9466 176.818 45.768 176.412 46.728C176.007 47.688 175.719 48.6906 175.548 49.736C175.399 50.76 175.324 51.848 175.324 53C175.324 54.536 175.527 55.9546 175.932 57.256C176.338 58.5573 176.871 59.6453 177.532 60.52C178.215 61.3946 178.994 62.1413 179.868 62.76C180.743 63.3573 181.639 63.7946 182.556 64.072C183.474 64.3493 184.402 64.488 185.34 64.488C186.834 64.4667 188.21 64.0506 189.468 63.24C190.727 62.4293 191.687 61.352 192.348 60.008Z" fill="white"/>
<path d="M210.543 41.96L213.519 41.48V44.488L210.543 44.968V42.472H205.519V64.488L202.511 65V42.472H197.519V44.488L194.511 44.968V41.96L197.519 41.48V41.96H202.511L205.519 41.48V41.96H210.543Z" fill="white"/>
<path d="M229.552 50.984C230.704 50.984 231.77 51.112 232.752 51.368C233.755 51.624 234.65 52.0293 235.44 52.584C236.251 53.1173 236.891 53.8426 237.36 54.76C237.829 55.6773 238.064 56.7546 238.064 57.992C238.064 59.6773 237.626 61.0426 236.752 62.088C235.898 63.112 234.597 63.8586 232.848 64.328C231.12 64.776 228.848 65 226.032 65C225.285 65 224.368 64.9573 223.28 64.872C222.192 64.7866 221.296 64.7013 220.592 64.616L219.536 64.488L216.528 65V41.96L219.536 41.48V52.936C220.624 52.8506 222.213 52.5093 224.304 51.912C226.395 51.2933 228.144 50.984 229.552 50.984ZM226.544 64.488C228.059 64.488 229.381 64.3066 230.512 63.944C231.664 63.5813 232.56 63.08 233.2 62.44C233.84 61.8 234.309 61.1066 234.608 60.36C234.906 59.6133 235.056 58.824 235.056 57.992C235.056 56.0933 234.522 54.568 233.456 53.416C232.41 52.2426 231.109 51.6026 229.552 51.496C228.144 51.496 226.395 51.8053 224.304 52.424C222.213 53.0213 220.624 53.3626 219.536 53.448V64.008C222.501 64.328 224.837 64.488 226.544 64.488Z" fill="white"/>
</svg>
