<svg width="224" height="64" viewBox="0 0 224 64" fill="none" xmlns="http://www.w3.org/2000/svg">
<path d="M15.5801 10.22C17.1001 10.6 18.3101 11.31 19.2101 12.35C20.1301 13.37 20.5901 14.73 20.5901 16.43C20.5901 18.79 19.6901 20.48 17.8901 21.5C16.1101 22.5 13.2501 23 9.31012 23C8.99012 23 8.63012 22.99 8.23012 22.97C7.83012 22.95 7.44012 22.93 7.06012 22.91C6.68012 22.89 6.30012 22.86 5.92012 22.82C5.54012 22.78 5.19012 22.75 4.87012 22.73C4.55012 22.69 4.26012 22.66 4.00012 22.64C3.76012 22.6 3.57012 22.57 3.43012 22.55L3.22012 22.52L0.400117 23V1.39995L3.22012 0.949951H11.2001C11.9601 0.949951 12.6901 0.999951 13.3901 1.09995C14.0901 1.19995 14.7601 1.36995 15.4001 1.60995C16.0601 1.84995 16.6301 2.14995 17.1101 2.50995C17.5901 2.86995 17.9701 3.32995 18.2501 3.88995C18.5501 4.44995 18.7001 5.07995 18.7001 5.77995C18.7001 7.11995 18.4001 8.14995 17.8001 8.86995C17.2201 9.56995 16.4801 10.02 15.5801 10.22ZM10.7201 1.39995H3.22012V11.69C4.26012 11.61 5.71012 11.3 7.57012 10.76C9.45012 10.2 10.9901 9.89995 12.1901 9.85995H12.1301C13.3101 9.85995 14.2301 9.46995 14.8901 8.68995C15.5501 7.88995 15.8801 6.86995 15.8801 5.62995C15.8801 4.90995 15.7301 4.26995 15.4301 3.70995C15.1301 3.14995 14.7201 2.70995 14.2001 2.38995C13.7001 2.06995 13.1501 1.82995 12.5501 1.66995C11.9701 1.48995 11.3601 1.39995 10.7201 1.39995ZM9.79012 22.52C11.2101 22.52 12.4501 22.35 13.5101 22.01C14.5901 21.67 15.4301 21.2 16.0301 20.6C16.6301 20 17.0701 19.35 17.3501 18.65C17.6301 17.95 17.7701 17.21 17.7701 16.43C17.7701 14.65 17.2701 13.22 16.2701 12.14C15.2901 11.04 14.0701 10.44 12.6101 10.34C11.2901 10.34 9.65012 10.63 7.69012 11.21C5.73012 11.77 4.24012 12.09 3.22012 12.17V22.07C6.00012 22.37 8.19012 22.52 9.79012 22.52Z" fill="white"/>
<path d="M30.2164 1.60995C31.5564 1.16995 33.0064 0.949951 34.5664 0.949951C36.1464 0.949951 37.5964 1.16995 38.9164 1.60995C40.2564 2.02995 41.4464 2.66995 42.4864 3.52995C43.5264 4.36995 44.3464 5.49995 44.9464 6.91995C45.5464 8.31995 45.8464 9.92995 45.8464 11.75C45.8464 13.57 45.5464 15.21 44.9464 16.67C44.3464 18.11 43.5264 19.29 42.4864 20.21C41.4464 21.11 40.2564 21.8 38.9164 22.28C37.5764 22.76 36.1264 23 34.5664 23C33.0264 23 31.5864 22.76 30.2464 22.28C28.9064 21.8 27.7164 21.11 26.6764 20.21C25.6364 19.29 24.8164 18.11 24.2164 16.67C23.6164 15.21 23.3164 13.57 23.3164 11.75C23.3164 9.92995 23.6164 8.31995 24.2164 6.91995C24.8164 5.49995 25.6364 4.36995 26.6764 3.52995C27.7164 2.66995 28.8964 2.02995 30.2164 1.60995ZM35.5264 22.52C36.4264 22.52 37.2564 22.38 38.0164 22.1C38.7764 21.8 39.4264 21.39 39.9664 20.87C40.5064 20.35 40.9764 19.75 41.3764 19.07C41.7764 18.39 42.0964 17.64 42.3364 16.82C42.5764 16 42.7464 15.17 42.8464 14.33C42.9664 13.49 43.0264 12.63 43.0264 11.75C43.0264 10.29 42.8364 8.96995 42.4564 7.78995C42.0764 6.60995 41.5664 5.62995 40.9264 4.84995C40.3064 4.06995 39.5864 3.41995 38.7664 2.89995C37.9464 2.35995 37.1064 1.97995 36.2464 1.75995C35.3864 1.51995 34.5164 1.39995 33.6364 1.39995C32.5564 1.39995 31.5764 1.59995 30.6964 1.99995C29.8364 2.37995 29.1264 2.89995 28.5664 3.55995C28.0064 4.19995 27.5364 4.96995 27.1564 5.86995C26.7764 6.76995 26.5064 7.70995 26.3464 8.68995C26.2064 9.64995 26.1364 10.67 26.1364 11.75C26.1364 13.19 26.3264 14.52 26.7064 15.74C27.0864 16.96 27.5864 17.98 28.2064 18.8C28.8464 19.62 29.5764 20.32 30.3964 20.9C31.2164 21.46 32.0564 21.87 32.9164 22.13C33.7764 22.39 34.6464 22.52 35.5264 22.52Z" fill="white"/>
<path d="M65.1565 22.67L67.4965 22.64V25.46L64.6765 25.94V23.12H47.7865V25.46L44.9665 25.94V22.64H47.3065C48.5865 22.64 49.6065 22.2 50.3665 21.32C51.1465 20.44 51.5365 19.01 51.5365 17.03C51.5365 14.11 51.6165 11.36 51.7765 8.77995C51.9365 6.19995 52.0865 4.34995 52.2265 3.22995L52.4665 1.54995H62.3365L65.1565 1.06995V22.67ZM49.6465 22.64H62.3365V1.99995H52.8565C52.2965 5.85995 52.0165 11.02 52.0165 17.48C52.0165 18.78 51.8065 19.87 51.3865 20.75C50.9665 21.61 50.3865 22.24 49.6465 22.64Z" fill="white"/>
<path d="M76.0074 1.60995C77.3474 1.16995 78.7974 0.949951 80.3574 0.949951C81.9374 0.949951 83.3874 1.16995 84.7074 1.60995C86.0474 2.02995 87.2374 2.66995 88.2774 3.52995C89.3174 4.36995 90.1374 5.49995 90.7374 6.91995C91.3374 8.31995 91.6374 9.92995 91.6374 11.75C91.6374 13.57 91.3374 15.21 90.7374 16.67C90.1374 18.11 89.3174 19.29 88.2774 20.21C87.2374 21.11 86.0474 21.8 84.7074 22.28C83.3674 22.76 81.9174 23 80.3574 23C78.8174 23 77.3774 22.76 76.0374 22.28C74.6974 21.8 73.5074 21.11 72.4674 20.21C71.4274 19.29 70.6074 18.11 70.0074 16.67C69.4074 15.21 69.1074 13.57 69.1074 11.75C69.1074 9.92995 69.4074 8.31995 70.0074 6.91995C70.6074 5.49995 71.4274 4.36995 72.4674 3.52995C73.5074 2.66995 74.6874 2.02995 76.0074 1.60995ZM81.3174 22.52C82.2174 22.52 83.0474 22.38 83.8074 22.1C84.5674 21.8 85.2174 21.39 85.7574 20.87C86.2974 20.35 86.7674 19.75 87.1674 19.07C87.5674 18.39 87.8874 17.64 88.1274 16.82C88.3674 16 88.5374 15.17 88.6374 14.33C88.7574 13.49 88.8174 12.63 88.8174 11.75C88.8174 10.29 88.6274 8.96995 88.2474 7.78995C87.8674 6.60995 87.3574 5.62995 86.7174 4.84995C86.0974 4.06995 85.3774 3.41995 84.5574 2.89995C83.7374 2.35995 82.8974 1.97995 82.0374 1.75995C81.1774 1.51995 80.3074 1.39995 79.4274 1.39995C78.3474 1.39995 77.3674 1.59995 76.4874 1.99995C75.6274 2.37995 74.9174 2.89995 74.3574 3.55995C73.7974 4.19995 73.3274 4.96995 72.9474 5.86995C72.5674 6.76995 72.2974 7.70995 72.1374 8.68995C71.9974 9.64995 71.9274 10.67 71.9274 11.75C71.9274 13.19 72.1174 14.52 72.4974 15.74C72.8774 16.96 73.3774 17.98 73.9974 18.8C74.6374 19.62 75.3674 20.32 76.1874 20.9C77.0074 21.46 77.8474 21.87 78.7074 22.13C79.5674 22.39 80.4374 22.52 81.3174 22.52Z" fill="white"/>
<path d="M110.889 1.39995L113.709 0.949951V22.52L110.889 23V10.34C109.409 10.34 107.299 10.65 104.559 11.27C101.819 11.89 99.7092 12.2 98.2292 12.2V22.52L95.4092 23V1.39995L98.2292 0.949951V11.75C99.7092 11.75 101.819 11.44 104.559 10.82C107.299 10.18 109.409 9.85995 110.889 9.85995V1.39995Z" fill="white"/>
<path d="M129.961 1.39995L132.781 0.949951V3.76995L129.961 4.21995V1.87995H121.051V11.72C121.971 11.66 123.351 11.34 125.191 10.76C127.031 10.16 128.461 9.85995 129.481 9.85995V10.34C128.461 10.34 127.031 10.64 125.191 11.24C123.351 11.82 121.971 12.14 121.051 12.2V22.07H129.961V21.11L132.781 20.66V22.52L129.961 23V22.52H121.051L118.231 23V1.39995L121.051 0.949951V1.39995H129.961Z" fill="white"/>
<path d="M151.613 1.39995L154.433 0.949951V22.52L151.613 23V1.87995H138.953V22.52L136.133 23V1.39995L138.953 0.949951V1.39995H151.613Z" fill="white"/>
<path d="M168.823 0.949951C170.103 0.949951 171.293 1.14995 172.393 1.54995C173.513 1.94995 174.453 2.58995 175.213 3.46995C175.973 4.34995 176.353 5.37995 176.353 6.55995C176.353 7.75995 175.983 8.79995 175.243 9.67995C174.523 10.56 173.633 11.2 172.573 11.6C171.533 12 170.443 12.2 169.303 12.2H161.803V22.52L158.983 23V1.39995L161.803 0.949951H168.823ZM169.303 11.75C170.083 11.75 170.763 11.6 171.343 11.3C171.923 10.98 172.363 10.56 172.663 10.04C172.963 9.51995 173.183 8.97995 173.323 8.41995C173.463 7.83995 173.533 7.21995 173.533 6.55995C173.533 5.13995 173.023 3.92995 172.003 2.92995C171.003 1.90995 169.793 1.39995 168.373 1.39995H161.803V11.75H169.303Z" fill="white"/>
<path d="M185.519 1.60995C186.859 1.16995 188.309 0.949951 189.869 0.949951C191.449 0.949951 192.899 1.16995 194.219 1.60995C195.559 2.02995 196.749 2.66995 197.789 3.52995C198.829 4.36995 199.649 5.49995 200.249 6.91995C200.849 8.31995 201.149 9.92995 201.149 11.75C201.149 13.57 200.849 15.21 200.249 16.67C199.649 18.11 198.829 19.29 197.789 20.21C196.749 21.11 195.559 21.8 194.219 22.28C192.879 22.76 191.429 23 189.869 23C188.329 23 186.889 22.76 185.549 22.28C184.209 21.8 183.019 21.11 181.979 20.21C180.939 19.29 180.119 18.11 179.519 16.67C178.919 15.21 178.619 13.57 178.619 11.75C178.619 9.92995 178.919 8.31995 179.519 6.91995C180.119 5.49995 180.939 4.36995 181.979 3.52995C183.019 2.66995 184.199 2.02995 185.519 1.60995ZM190.829 22.52C191.729 22.52 192.559 22.38 193.319 22.1C194.079 21.8 194.729 21.39 195.269 20.87C195.809 20.35 196.279 19.75 196.679 19.07C197.079 18.39 197.399 17.64 197.639 16.82C197.879 16 198.049 15.17 198.149 14.33C198.269 13.49 198.329 12.63 198.329 11.75C198.329 10.29 198.139 8.96995 197.759 7.78995C197.379 6.60995 196.869 5.62995 196.229 4.84995C195.609 4.06995 194.889 3.41995 194.069 2.89995C193.249 2.35995 192.409 1.97995 191.549 1.75995C190.689 1.51995 189.819 1.39995 188.939 1.39995C187.859 1.39995 186.879 1.59995 185.999 1.99995C185.139 2.37995 184.429 2.89995 183.869 3.55995C183.309 4.19995 182.839 4.96995 182.459 5.86995C182.079 6.76995 181.809 7.70995 181.649 8.68995C181.509 9.64995 181.439 10.67 181.439 11.75C181.439 13.19 181.629 14.52 182.009 15.74C182.389 16.96 182.889 17.98 183.509 18.8C184.149 19.62 184.879 20.32 185.699 20.9C186.519 21.46 187.359 21.87 188.219 22.13C189.079 22.39 189.949 22.52 190.829 22.52Z" fill="white"/>
<path d="M212.301 14.9H203.841V13.01H212.301V14.9Z" fill="white"/>
<path d="M15.8501 37.4L18.6701 36.95V58.52L15.8501 59V46.34C14.3701 46.34 12.2601 46.65 9.52012 47.27C6.78012 47.8899 4.67012 48.2 3.19012 48.2V58.52L0.370117 59V37.4L3.19012 36.95V47.75C4.67012 47.75 6.78012 47.4399 9.52012 46.82C12.2601 46.18 14.3701 45.86 15.8501 45.86V37.4Z" fill="white"/>
<path d="M38.7024 37.4L41.5224 36.95V58.52L38.7024 59V42.1399L26.0424 58.46V58.52L23.2224 59V37.4L26.0424 36.95V57.68L38.7024 41.3899V37.4Z" fill="white"/>
<path d="M64.4032 58.07H68.1532V58.52C67.4932 58.52 66.9332 58.65 66.4732 58.91C66.0132 59.1699 65.6732 59.54 65.4532 60.02C65.2332 60.5 65.0832 60.99 65.0032 61.49C64.9232 61.99 64.8832 62.57 64.8832 63.2299L63.4732 62.27C63.4732 60.3899 64.1432 59.1399 65.4832 58.52H48.9232L46.1032 59V37.4L48.9232 36.95V58.07H61.5832V37.4L64.4032 36.95V58.07Z" fill="white"/>
<path d="M87.0563 59.09L83.6363 51.59C82.3363 51.63 80.4163 51.9399 77.8763 52.52C75.3363 53.1 73.3663 53.4 71.9663 53.42L69.4163 59.12L68.9963 58.91L77.9063 38.93L77.7563 38.63L78.1463 38.33L80.0663 36.95L89.3663 57.41L87.0563 59.09ZM72.1763 52.97C73.5163 52.93 75.4163 52.63 77.8763 52.07C80.3363 51.5099 82.1863 51.19 83.4263 51.11L78.1463 39.5L72.1763 52.97Z" fill="white"/>
<path d="M104.004 37.4L106.824 36.95V39.77L104.004 40.22V37.88H95.0944V47.72C96.0144 47.66 97.3944 47.34 99.2344 46.76C101.074 46.16 102.504 45.86 103.524 45.86V46.34C102.504 46.34 101.074 46.64 99.2344 47.24C97.3944 47.82 96.0144 48.1399 95.0944 48.2V58.07H104.004V57.11L106.824 56.66V58.52L104.004 59V58.52H95.0944L92.2744 59V37.4L95.0944 36.95V37.4H104.004Z" fill="white"/>
<path d="M129.406 37.4L132.226 36.95V58.52L129.406 59V38.4799L121.486 52.19L121.786 52.7L120.976 53.18L112.996 39.3499V58.52L110.176 59V37.4L112.996 36.95V37.49L121.216 51.74L129.406 37.52V37.4Z" fill="white"/>
<path d="M142.98 37.61C144.32 37.17 145.77 36.95 147.33 36.95C148.91 36.95 150.36 37.17 151.68 37.61C153.02 38.03 154.21 38.6699 155.25 39.5299C156.29 40.3699 157.11 41.5 157.71 42.92C158.31 44.32 158.61 45.93 158.61 47.75C158.61 49.57 158.31 51.21 157.71 52.67C157.11 54.11 156.29 55.29 155.25 56.21C154.21 57.11 153.02 57.8 151.68 58.28C150.34 58.76 148.89 59 147.33 59C145.79 59 144.35 58.76 143.01 58.28C141.67 57.8 140.48 57.11 139.44 56.21C138.4 55.29 137.58 54.11 136.98 52.67C136.38 51.21 136.08 49.57 136.08 47.75C136.08 45.93 136.38 44.32 136.98 42.92C137.58 41.5 138.4 40.3699 139.44 39.5299C140.48 38.6699 141.66 38.03 142.98 37.61ZM148.29 58.52C149.19 58.52 150.02 58.38 150.78 58.1C151.54 57.8 152.19 57.39 152.73 56.87C153.27 56.35 153.74 55.75 154.14 55.07C154.54 54.3899 154.86 53.6399 155.1 52.82C155.34 52 155.51 51.17 155.61 50.33C155.73 49.49 155.79 48.63 155.79 47.75C155.79 46.29 155.6 44.97 155.22 43.79C154.84 42.61 154.33 41.63 153.69 40.85C153.07 40.07 152.35 39.42 151.53 38.9C150.71 38.36 149.87 37.98 149.01 37.76C148.15 37.52 147.28 37.4 146.4 37.4C145.32 37.4 144.34 37.6 143.46 38C142.6 38.38 141.89 38.9 141.33 39.56C140.77 40.2 140.3 40.9699 139.92 41.8699C139.54 42.77 139.27 43.7099 139.11 44.6899C138.97 45.6499 138.9 46.67 138.9 47.75C138.9 49.1899 139.09 50.52 139.47 51.74C139.85 52.96 140.35 53.98 140.97 54.8C141.61 55.62 142.34 56.32 143.16 56.9C143.98 57.46 144.82 57.87 145.68 58.13C146.54 58.3899 147.41 58.52 148.29 58.52Z" fill="white"/>
<path d="M180.202 54.32L181.012 55.79C179.892 56.87 178.612 57.6899 177.172 58.25C175.732 58.81 174.232 59.06 172.672 59C171.132 59 169.692 58.76 168.352 58.28C167.012 57.8 165.822 57.11 164.782 56.21C163.742 55.29 162.922 54.11 162.322 52.67C161.722 51.21 161.422 49.57 161.422 47.75C161.422 45.93 161.722 44.32 162.322 42.92C162.922 41.5 163.742 40.3699 164.782 39.5299C165.822 38.6699 167.002 38.03 168.322 37.61C169.662 37.17 171.112 36.95 172.672 36.95C175.212 36.8899 177.542 37.57 179.662 38.9899L178.822 40.88C177.982 39.7999 176.932 38.9599 175.672 38.36C174.432 37.74 173.122 37.42 171.742 37.4C170.662 37.4 169.682 37.6 168.802 38C167.942 38.38 167.232 38.9 166.672 39.56C166.112 40.2 165.642 40.9699 165.262 41.8699C164.882 42.77 164.612 43.7099 164.452 44.6899C164.312 45.6499 164.242 46.67 164.242 47.75C164.242 49.1899 164.432 50.52 164.812 51.74C165.192 52.96 165.692 53.98 166.312 54.8C166.952 55.62 167.682 56.32 168.502 56.9C169.322 57.46 170.162 57.87 171.022 58.13C171.882 58.3899 172.752 58.52 173.632 58.52C175.032 58.5 176.322 58.11 177.502 57.35C178.682 56.59 179.582 55.5799 180.202 54.32Z" fill="white"/>
<path d="M197.259 37.4L200.049 36.95V39.77L197.259 40.22V37.88H192.549V58.52L189.729 59V37.88H185.049V39.77L182.229 40.22V37.4L185.049 36.95V37.4H189.729L192.549 36.95V37.4H197.259Z" fill="white"/>
<path d="M215.08 45.86C216.16 45.86 217.16 45.9799 218.08 46.22C219.02 46.46 219.86 46.84 220.6 47.36C221.36 47.86 221.96 48.54 222.4 49.4C222.84 50.26 223.06 51.27 223.06 52.43C223.06 54.01 222.65 55.29 221.83 56.27C221.03 57.2299 219.81 57.93 218.17 58.37C216.55 58.79 214.42 59 211.78 59C211.08 59 210.22 58.96 209.2 58.88C208.18 58.7999 207.34 58.72 206.68 58.6399L205.69 58.52L202.87 59V37.4L205.69 36.95V47.69C206.71 47.61 208.2 47.29 210.16 46.7299C212.12 46.1499 213.76 45.86 215.08 45.86ZM212.26 58.52C213.68 58.52 214.92 58.35 215.98 58.01C217.06 57.67 217.9 57.2 218.5 56.6C219.1 56 219.54 55.35 219.82 54.65C220.1 53.95 220.24 53.2099 220.24 52.43C220.24 50.65 219.74 49.2199 218.74 48.1399C217.76 47.04 216.54 46.4399 215.08 46.34C213.76 46.34 212.12 46.63 210.16 47.21C208.2 47.77 206.71 48.09 205.69 48.17V58.07C208.47 58.3699 210.66 58.52 212.26 58.52Z" fill="white"/>
</svg>
