<svg width="225" height="70" viewBox="0 0 225 70" fill="none" xmlns="http://www.w3.org/2000/svg">
<path d="M16.512 0.95998L19.488 0.47998V3.48798L16.512 3.96798V1.47198H11.488V23.488L8.47998 24V1.47198H3.48798V3.48798L0.47998 3.96798V0.95998L3.48798 0.47998V0.95998H8.47998L11.488 0.47998V0.95998H16.512Z" fill="white"/>
<path d="M36.4307 24.096L32.7827 16.096C31.3961 16.1386 29.3481 16.4693 26.6387 17.088C23.9294 17.7066 21.8281 18.0266 20.3347 18.048L17.6147 24.128L17.1667 23.904L26.6707 2.59198L26.5107 2.27198L26.9267 1.95198L28.9747 0.47998L38.8947 22.304L36.4307 24.096ZM20.5587 17.568C21.9881 17.5253 24.0147 17.2053 26.6387 16.608C29.2627 16.0106 31.2361 15.6693 32.5587 15.584L26.9267 3.19998L20.5587 17.568Z" fill="white"/>
<path d="M48.3647 10.496C49.8367 10.5386 51.2021 10.88 52.4607 11.52C53.7407 12.16 54.7967 12.96 55.6287 13.92C56.4821 14.8586 57.2074 15.9146 57.8047 17.088C58.4021 18.24 58.8394 19.3706 59.1167 20.48C59.3941 21.568 59.5221 22.5706 59.5007 23.488L57.5167 24C57.5167 23.4666 57.4634 22.8693 57.3567 22.208C57.2501 21.5253 57.0794 20.7786 56.8447 19.968C56.6101 19.136 56.3221 18.3146 55.9807 17.504C55.6394 16.6933 55.2021 15.904 54.6687 15.136C54.1354 14.3466 53.5381 13.6533 52.8767 13.056C52.2367 12.4586 51.4687 11.9786 50.5727 11.616C49.6981 11.232 48.7594 11.0293 47.7567 11.008L45.0047 13.312V23.488L41.9967 24V0.95998L45.0047 0.47998V12.672L59.5327 0.47998L59.8527 0.863979L48.3647 10.496Z" fill="white"/>
<path d="M77.3245 0.95998L80.3005 0.47998V3.48798L77.3245 3.96798V1.47198H72.3005V23.488L69.2925 24V1.47198H64.3005V3.48798L61.2925 3.96798V0.95998L64.3005 0.47998V0.95998H69.2925L72.3005 0.47998V0.95998H77.3245Z" fill="white"/>
<path d="M99.8532 0.95998L102.861 0.47998V23.488L99.8532 24V6.01598L86.3492 23.424V23.488L83.3412 24V0.95998L86.3492 0.47998V22.592L99.8532 5.21598V0.95998Z" fill="white"/>
<path d="M121.597 0.95998L124.573 0.47998V23.488L121.597 24V1.47198H111.485C110.866 5.58931 110.557 11.0933 110.557 17.984C110.557 19.9253 110.13 21.4186 109.277 22.464C108.445 23.488 107.378 24 106.077 24L105.565 23.488C106.93 23.488 108.018 23.0186 108.829 22.08C109.661 21.1413 110.077 19.616 110.077 17.504C110.077 14.3893 110.151 11.456 110.301 8.70398C110.471 5.95198 110.642 3.96798 110.813 2.75198L111.069 0.95998H121.597Z" fill="white"/>
<path d="M142.427 9.98398C143.579 9.98398 144.646 10.112 145.627 10.368C146.63 10.624 147.526 11.0293 148.315 11.584C149.126 12.1173 149.766 12.8426 150.235 13.76C150.704 14.6773 150.939 15.7546 150.939 16.992C150.939 18.6773 150.502 20.0426 149.627 21.088C148.774 22.112 147.472 22.8586 145.723 23.328C143.995 23.776 141.723 24 138.907 24C138.16 24 137.243 23.9573 136.155 23.872C135.067 23.7866 134.171 23.7013 133.467 23.616L132.411 23.488L129.403 24V0.95998L132.411 0.47998V11.936C133.499 11.8506 135.088 11.5093 137.179 10.912C139.27 10.2933 141.019 9.98398 142.427 9.98398ZM139.419 23.488C140.934 23.488 142.256 23.3066 143.387 22.944C144.539 22.5813 145.435 22.08 146.075 21.44C146.715 20.8 147.184 20.1066 147.483 19.36C147.782 18.6133 147.931 17.824 147.931 16.992C147.931 15.0933 147.398 13.568 146.331 12.416C145.286 11.2426 143.984 10.6026 142.427 10.496C141.019 10.496 139.27 10.8053 137.179 11.424C135.088 12.0213 133.499 12.3626 132.411 12.448V23.008C135.376 23.328 137.712 23.488 139.419 23.488Z" fill="white"/>
<path d="M171.04 0.95998L174.048 0.47998V23.488L171.04 24V10.496C169.461 10.496 167.211 10.8266 164.288 11.488C161.365 12.1493 159.115 12.48 157.536 12.48V23.488L154.528 24V0.95998L157.536 0.47998V12C159.115 12 161.365 11.6693 164.288 11.008C167.211 10.3253 169.461 9.98398 171.04 9.98398V0.95998Z" fill="white"/>
<path d="M201.4 0.95998L204.408 0.47998V23.488L201.4 24V0.95998ZM191.896 9.98398C193.048 9.98398 194.114 10.112 195.096 10.368C196.098 10.624 196.994 11.0293 197.784 11.584C198.594 12.1173 199.234 12.8426 199.704 13.76C200.173 14.6773 200.408 15.7546 200.408 16.992C200.408 18.6773 199.97 20.0426 199.096 21.088C198.242 22.112 196.941 22.8586 195.192 23.328C193.464 23.776 191.192 24 188.376 24C187.629 24 186.712 23.9573 185.624 23.872C184.536 23.7866 183.64 23.7013 182.936 23.616L181.88 23.488L178.872 24V0.95998L181.88 0.47998V11.936C182.968 11.8506 184.557 11.5093 186.648 10.912C188.738 10.2933 190.488 9.98398 191.896 9.98398ZM188.888 23.488C190.402 23.488 191.725 23.3066 192.856 22.944C194.008 22.5813 194.904 22.08 195.544 21.44C196.184 20.8 196.653 20.1066 196.952 19.36C197.25 18.6133 197.4 17.824 197.4 16.992C197.4 15.0933 196.866 13.568 195.8 12.416C194.754 11.2426 193.453 10.6026 191.896 10.496C190.488 10.496 188.738 10.8053 186.648 11.424C184.557 12.0213 182.968 12.3626 181.88 12.448V23.008C184.845 23.328 187.181 23.488 188.888 23.488Z" fill="white"/>
<path d="M221.727 0.95998L224.735 0.47998V3.48798L221.727 3.96798V1.47198H212.223V11.968C213.205 11.904 214.677 11.5626 216.639 10.944C218.602 10.304 220.127 9.98398 221.215 9.98398V10.496C220.127 10.496 218.602 10.816 216.639 11.456C214.677 12.0746 213.205 12.416 212.223 12.48V23.008H221.727V21.984L224.735 21.504V23.488L221.727 24V23.488H212.223L209.215 24V0.95998L212.223 0.47998V0.95998H221.727Z" fill="white"/>
<path d="M8.86398 42.184C10.2933 41.7146 11.84 41.48 13.504 41.48C15.1893 41.48 16.736 41.7146 18.144 42.184C19.5733 42.632 20.8426 43.3146 21.952 44.232C23.0613 45.128 23.936 46.3333 24.576 47.848C25.216 49.3413 25.536 51.0586 25.536 53C25.536 54.9413 25.216 56.6906 24.576 58.248C23.936 59.784 23.0613 61.0426 21.952 62.024C20.8426 62.984 19.5733 63.72 18.144 64.232C16.7146 64.744 15.168 65 13.504 65C11.8613 65 10.3253 64.744 8.89598 64.232C7.46665 63.72 6.19731 62.984 5.08798 62.024C3.97865 61.0426 3.10398 59.784 2.46398 58.248C1.82398 56.6906 1.50398 54.9413 1.50398 53C1.50398 51.0586 1.82398 49.3413 2.46398 47.848C3.10398 46.3333 3.97865 45.128 5.08798 44.232C6.19731 43.3146 7.45598 42.632 8.86398 42.184ZM14.528 64.488C15.488 64.488 16.3733 64.3386 17.184 64.04C17.9946 63.72 18.688 63.2826 19.264 62.728C19.84 62.1733 20.3413 61.5333 20.768 60.808C21.1946 60.0826 21.536 59.2826 21.792 58.408C22.048 57.5333 22.2293 56.648 22.336 55.752C22.464 54.856 22.528 53.9386 22.528 53C22.528 51.4426 22.3253 50.0346 21.92 48.776C21.5146 47.5173 20.9706 46.472 20.288 45.64C19.6266 44.808 18.8586 44.1146 17.984 43.56C17.1093 42.984 16.2133 42.5786 15.296 42.344C14.3786 42.088 13.4506 41.96 12.512 41.96C11.36 41.96 10.3146 42.1733 9.37598 42.6C8.45865 43.0053 7.70131 43.56 7.10398 44.264C6.50665 44.9466 6.00531 45.768 5.59998 46.728C5.19465 47.688 4.90665 48.6906 4.73598 49.736C4.58665 50.76 4.51198 51.848 4.51198 53C4.51198 54.536 4.71465 55.9546 5.11998 57.256C5.52531 58.5573 6.05865 59.6453 6.71998 60.52C7.40265 61.3946 8.18131 62.1413 9.05598 62.76C9.93065 63.3573 10.8266 63.7946 11.744 64.072C12.6613 64.3493 13.5893 64.488 14.528 64.488Z" fill="white"/>
<path d="M58.6152 64.008H63.1272V64.488C62.4019 64.488 61.7939 64.6266 61.3032 64.904C60.8339 65.1813 60.4819 65.576 60.2472 66.088C60.0126 66.6 59.8526 67.1227 59.7672 67.656C59.6819 68.1893 59.6392 68.808 59.6392 69.512L58.1352 68.488C58.1352 66.4827 58.8499 65.1493 60.2792 64.488H32.5992L29.5912 65V41.96L32.5992 41.48V64.008H42.6152V41.96L45.6232 41.48V64.008H55.6072V41.96L58.6152 41.48V64.008Z" fill="white"/>
<path d="M83.5655 41.48L83.9815 41.736L71.6935 63.048C71.1388 64.0506 70.2962 64.68 69.1655 64.936C68.0561 65.1706 67.0322 64.9573 66.0935 64.296L66.5735 63.304C66.9788 63.624 67.4482 63.88 67.9815 64.072C68.5361 64.264 69.1335 64.2746 69.7735 64.104C70.4135 63.9333 70.9042 63.496 71.2455 62.792L74.7975 56.68L72.7815 58.312L64.1095 43.4L66.4775 41.48L75.0535 56.232L83.5655 41.48Z" fill="white"/>
<path d="M115.928 64.008H120.44V64.488C119.714 64.488 119.106 64.6266 118.616 64.904C118.146 65.1813 117.794 65.576 117.56 66.088C117.325 66.6 117.165 67.1227 117.08 67.656C116.994 68.1893 116.952 68.808 116.952 69.512L115.448 68.488C115.448 66.4827 116.162 65.1493 117.592 64.488H89.9117L86.9037 65V41.96L89.9117 41.48V64.008H99.9277V41.96L102.936 41.48V64.008H112.92V41.96L115.928 41.48V64.008Z" fill="white"/>
<path d="M135.79 41.96L138.798 41.48V44.488L135.79 44.968V42.472H126.286V52.968C127.267 52.904 128.739 52.5626 130.702 51.944C132.665 51.304 134.19 50.984 135.278 50.984V51.496C134.19 51.496 132.665 51.816 130.702 52.456C128.739 53.0746 127.267 53.416 126.286 53.48V64.008H135.79V62.984L138.798 62.504V64.488L135.79 65V64.488H126.286L123.278 65V41.96L126.286 41.48V41.96H135.79Z" fill="white"/>
<path d="M158.852 41.96L161.86 41.48V64.488L158.852 65V51.496C157.274 51.496 155.023 51.8266 152.1 52.488C149.178 53.1493 146.927 53.48 145.348 53.48V64.488L142.34 65V41.96L145.348 41.48V53C146.927 53 149.178 52.6693 152.1 52.008C155.023 51.3253 157.274 50.984 158.852 50.984V41.96Z" fill="white"/>
<path d="M183.228 41.96L186.236 41.48V64.488L183.228 65V47.016L169.724 64.424V64.488L166.716 65V41.96L169.724 41.48V63.592L183.228 46.216V41.96Z" fill="white"/>
<path d="M206.092 41.96L209.1 41.48V64.488L206.092 65V53.48H202.572C201.164 53.48 199.862 53.768 198.668 54.344C197.494 54.92 196.534 55.6453 195.788 56.52C195.062 57.3946 194.444 58.376 193.932 59.464C193.441 60.5306 193.089 61.5333 192.876 62.472C192.684 63.3893 192.588 64.232 192.588 65L190.572 64.488C190.572 63.5066 190.732 62.4826 191.052 61.416C191.393 60.328 191.873 59.2613 192.492 58.216C193.11 57.1706 193.942 56.2213 194.988 55.368C196.054 54.5146 197.249 53.8853 198.572 53.48H198.092C195.766 53.48 193.932 52.968 192.588 51.944C191.244 50.92 190.572 49.4266 190.572 47.464C190.572 46.376 190.796 45.4373 191.244 44.648C191.713 43.8586 192.364 43.24 193.196 42.792C194.049 42.3226 194.998 41.992 196.044 41.8C197.089 41.5866 198.273 41.48 199.596 41.48C201.772 41.416 203.937 41.576 206.092 41.96ZM198.092 53H206.092V42.472C204.108 42.088 202.102 41.9173 200.076 41.96C195.745 41.96 193.58 43.7946 193.58 47.464C193.58 48.168 193.654 48.8293 193.804 49.448C193.953 50.0453 194.188 50.6213 194.508 51.176C194.828 51.7306 195.286 52.1786 195.884 52.52C196.502 52.84 197.238 53 198.092 53Z" fill="white"/>
</svg>
