<svg width="240" height="83" viewBox="0 0 240 83" fill="none" xmlns="http://www.w3.org/2000/svg">
<path d="M25.21 19.27C26.73 19.65 27.94 20.36 28.84 21.4C29.76 22.42 30.22 23.78 30.22 25.48C30.22 27.84 29.32 29.53 27.52 30.55C25.74 31.55 22.88 32.05 18.94 32.05C18.62 32.05 18.26 32.04 17.86 32.02C17.46 32 17.07 31.98 16.69 31.96C16.31 31.94 15.93 31.91 15.55 31.87C15.17 31.83 14.82 31.8 14.5 31.78C14.18 31.74 13.89 31.71 13.63 31.69C13.39 31.65 13.2 31.62 13.06 31.6L12.85 31.57L10.03 32.05V10.45L12.85 10H20.83C21.59 10 22.32 10.05 23.02 10.15C23.72 10.25 24.39 10.42 25.03 10.66C25.69 10.9 26.26 11.2 26.74 11.56C27.22 11.92 27.6 12.38 27.88 12.94C28.18 13.5 28.33 14.13 28.33 14.83C28.33 16.17 28.03 17.2 27.43 17.92C26.85 18.62 26.11 19.07 25.21 19.27ZM20.35 10.45H12.85V20.74C13.89 20.66 15.34 20.35 17.2 19.81C19.08 19.25 20.62 18.95 21.82 18.91H21.76C22.94 18.91 23.86 18.52 24.52 17.74C25.18 16.94 25.51 15.92 25.51 14.68C25.51 13.96 25.36 13.32 25.06 12.76C24.76 12.2 24.35 11.76 23.83 11.44C23.33 11.12 22.78 10.88 22.18 10.72C21.6 10.54 20.99 10.45 20.35 10.45ZM19.42 31.57C20.84 31.57 22.08 31.4 23.14 31.06C24.22 30.72 25.06 30.25 25.66 29.65C26.26 29.05 26.7 28.4 26.98 27.7C27.26 27 27.4 26.26 27.4 25.48C27.4 23.7 26.9 22.27 25.9 21.19C24.92 20.09 23.7 19.49 22.24 19.39C20.92 19.39 19.28 19.68 17.32 20.26C15.36 20.82 13.87 21.14 12.85 21.22V31.12C15.63 31.42 17.82 31.57 19.42 31.57Z" fill="white"/>
<path d="M39.8463 10.66C41.1863 10.22 42.6363 10 44.1963 10C45.7763 10 47.2262 10.22 48.5462 10.66C49.8862 11.08 51.0763 11.72 52.1163 12.58C53.1563 13.42 53.9763 14.55 54.5763 15.97C55.1763 17.37 55.4762 18.98 55.4762 20.8C55.4762 22.62 55.1763 24.26 54.5763 25.72C53.9763 27.16 53.1563 28.34 52.1163 29.26C51.0763 30.16 49.8862 30.85 48.5462 31.33C47.2062 31.81 45.7563 32.05 44.1963 32.05C42.6563 32.05 41.2163 31.81 39.8763 31.33C38.5363 30.85 37.3462 30.16 36.3062 29.26C35.2662 28.34 34.4463 27.16 33.8463 25.72C33.2463 24.26 32.9462 22.62 32.9462 20.8C32.9462 18.98 33.2463 17.37 33.8463 15.97C34.4463 14.55 35.2662 13.42 36.3062 12.58C37.3462 11.72 38.5263 11.08 39.8463 10.66ZM45.1562 31.57C46.0562 31.57 46.8863 31.43 47.6463 31.15C48.4063 30.85 49.0563 30.44 49.5963 29.92C50.1363 29.4 50.6063 28.8 51.0063 28.12C51.4063 27.44 51.7263 26.69 51.9663 25.87C52.2063 25.05 52.3762 24.22 52.4762 23.38C52.5963 22.54 52.6562 21.68 52.6562 20.8C52.6562 19.34 52.4663 18.02 52.0863 16.84C51.7062 15.66 51.1963 14.68 50.5563 13.9C49.9363 13.12 49.2163 12.47 48.3963 11.95C47.5763 11.41 46.7363 11.03 45.8763 10.81C45.0163 10.57 44.1463 10.45 43.2663 10.45C42.1863 10.45 41.2063 10.65 40.3263 11.05C39.4662 11.43 38.7563 11.95 38.1963 12.61C37.6363 13.25 37.1663 14.02 36.7863 14.92C36.4063 15.82 36.1362 16.76 35.9762 17.74C35.8362 18.7 35.7663 19.72 35.7663 20.8C35.7663 22.24 35.9563 23.57 36.3363 24.79C36.7163 26.01 37.2163 27.03 37.8363 27.85C38.4763 28.67 39.2063 29.37 40.0263 29.95C40.8463 30.51 41.6862 30.92 42.5462 31.18C43.4062 31.44 44.2763 31.57 45.1562 31.57Z" fill="white"/>
<path d="M74.7864 31.72L77.1264 31.69V34.51L74.3064 34.99V32.17H57.4164V34.51L54.5964 34.99V31.69H56.9364C58.2164 31.69 59.2364 31.25 59.9964 30.37C60.7764 29.49 61.1664 28.06 61.1664 26.08C61.1664 23.16 61.2464 20.41 61.4064 17.83C61.5664 15.25 61.7164 13.4 61.8564 12.28L62.0964 10.6H71.9664L74.7864 10.12V31.72ZM59.2764 31.69H71.9664V11.05H62.4864C61.9264 14.91 61.6464 20.07 61.6464 26.53C61.6464 27.83 61.4364 28.92 61.0164 29.8C60.5964 30.66 60.0164 31.29 59.2764 31.69Z" fill="white"/>
<path d="M85.6373 10.66C86.9773 10.22 88.4273 10 89.9873 10C91.5673 10 93.0173 10.22 94.3373 10.66C95.6773 11.08 96.8673 11.72 97.9073 12.58C98.9473 13.42 99.7673 14.55 100.367 15.97C100.967 17.37 101.267 18.98 101.267 20.8C101.267 22.62 100.967 24.26 100.367 25.72C99.7673 27.16 98.9473 28.34 97.9073 29.26C96.8673 30.16 95.6773 30.85 94.3373 31.33C92.9973 31.81 91.5473 32.05 89.9873 32.05C88.4473 32.05 87.0073 31.81 85.6673 31.33C84.3273 30.85 83.1373 30.16 82.0973 29.26C81.0573 28.34 80.2373 27.16 79.6373 25.72C79.0373 24.26 78.7373 22.62 78.7373 20.8C78.7373 18.98 79.0373 17.37 79.6373 15.97C80.2373 14.55 81.0573 13.42 82.0973 12.58C83.1373 11.72 84.3173 11.08 85.6373 10.66ZM90.9473 31.57C91.8473 31.57 92.6773 31.43 93.4373 31.15C94.1973 30.85 94.8473 30.44 95.3873 29.92C95.9273 29.4 96.3973 28.8 96.7973 28.12C97.1973 27.44 97.5173 26.69 97.7573 25.87C97.9973 25.05 98.1673 24.22 98.2673 23.38C98.3873 22.54 98.4473 21.68 98.4473 20.8C98.4473 19.34 98.2573 18.02 97.8773 16.84C97.4973 15.66 96.9873 14.68 96.3473 13.9C95.7273 13.12 95.0073 12.47 94.1873 11.95C93.3673 11.41 92.5273 11.03 91.6673 10.81C90.8073 10.57 89.9373 10.45 89.0573 10.45C87.9773 10.45 86.9973 10.65 86.1173 11.05C85.2573 11.43 84.5473 11.95 83.9873 12.61C83.4273 13.25 82.9573 14.02 82.5773 14.92C82.1973 15.82 81.9273 16.76 81.7673 17.74C81.6273 18.7 81.5573 19.72 81.5573 20.8C81.5573 22.24 81.7473 23.57 82.1273 24.79C82.5073 26.01 83.0073 27.03 83.6273 27.85C84.2673 28.67 84.9973 29.37 85.8173 29.95C86.6373 30.51 87.4773 30.92 88.3373 31.18C89.1973 31.44 90.0673 31.57 90.9473 31.57Z" fill="white"/>
<path d="M120.519 10.45L123.339 10V31.57L120.519 32.05V19.39C119.039 19.39 116.929 19.7 114.189 20.32C111.449 20.94 109.339 21.25 107.859 21.25V31.57L105.039 32.05V10.45L107.859 10V20.8C109.339 20.8 111.449 20.49 114.189 19.87C116.929 19.23 119.039 18.91 120.519 18.91V10.45Z" fill="white"/>
<path d="M139.591 10.45L142.411 10V12.82L139.591 13.27V10.93H130.681V20.77C131.601 20.71 132.981 20.39 134.821 19.81C136.661 19.21 138.091 18.91 139.111 18.91V19.39C138.091 19.39 136.661 19.69 134.821 20.29C132.981 20.87 131.601 21.19 130.681 21.25V31.12H139.591V30.16L142.411 29.71V31.57L139.591 32.05V31.57H130.681L127.861 32.05V10.45L130.681 10V10.45H139.591Z" fill="white"/>
<path d="M161.242 10.45L164.062 10V31.57L161.242 32.05V10.93H148.582V31.57L145.762 32.05V10.45L148.582 10V10.45H161.242Z" fill="white"/>
<path d="M178.453 10C179.733 10 180.923 10.2 182.023 10.6C183.143 11 184.083 11.64 184.843 12.52C185.603 13.4 185.983 14.43 185.983 15.61C185.983 16.81 185.613 17.85 184.873 18.73C184.153 19.61 183.263 20.25 182.203 20.65C181.163 21.05 180.073 21.25 178.933 21.25H171.433V31.57L168.613 32.05V10.45L171.433 10H178.453ZM178.933 20.8C179.713 20.8 180.393 20.65 180.973 20.35C181.553 20.03 181.993 19.61 182.293 19.09C182.593 18.57 182.813 18.03 182.953 17.47C183.093 16.89 183.163 16.27 183.163 15.61C183.163 14.19 182.653 12.98 181.633 11.98C180.633 10.96 179.423 10.45 178.003 10.45H171.433V20.8H178.933Z" fill="white"/>
<path d="M195.149 10.66C196.489 10.22 197.939 10 199.499 10C201.079 10 202.529 10.22 203.849 10.66C205.189 11.08 206.379 11.72 207.419 12.58C208.459 13.42 209.279 14.55 209.879 15.97C210.479 17.37 210.779 18.98 210.779 20.8C210.779 22.62 210.479 24.26 209.879 25.72C209.279 27.16 208.459 28.34 207.419 29.26C206.379 30.16 205.189 30.85 203.849 31.33C202.509 31.81 201.059 32.05 199.499 32.05C197.959 32.05 196.519 31.81 195.179 31.33C193.839 30.85 192.649 30.16 191.609 29.26C190.569 28.34 189.749 27.16 189.149 25.72C188.549 24.26 188.249 22.62 188.249 20.8C188.249 18.98 188.549 17.37 189.149 15.97C189.749 14.55 190.569 13.42 191.609 12.58C192.649 11.72 193.829 11.08 195.149 10.66ZM200.459 31.57C201.359 31.57 202.189 31.43 202.949 31.15C203.709 30.85 204.359 30.44 204.899 29.92C205.439 29.4 205.909 28.8 206.309 28.12C206.709 27.44 207.029 26.69 207.269 25.87C207.509 25.05 207.679 24.22 207.779 23.38C207.899 22.54 207.959 21.68 207.959 20.8C207.959 19.34 207.769 18.02 207.389 16.84C207.009 15.66 206.499 14.68 205.859 13.9C205.239 13.12 204.519 12.47 203.699 11.95C202.879 11.41 202.039 11.03 201.179 10.81C200.319 10.57 199.449 10.45 198.569 10.45C197.489 10.45 196.509 10.65 195.629 11.05C194.769 11.43 194.059 11.95 193.499 12.61C192.939 13.25 192.469 14.02 192.089 14.92C191.709 15.82 191.439 16.76 191.279 17.74C191.139 18.7 191.069 19.72 191.069 20.8C191.069 22.24 191.259 23.57 191.639 24.79C192.019 26.01 192.519 27.03 193.139 27.85C193.779 28.67 194.509 29.37 195.329 29.95C196.149 30.51 196.989 30.92 197.849 31.18C198.709 31.44 199.579 31.57 200.459 31.57Z" fill="white"/>
<path d="M221.931 23.95H213.471V22.06H221.931V23.95Z" fill="white"/>
<path d="M25.48 46.45L28.3 46V67.57L25.48 68.05V55.39C24 55.39 21.89 55.7 19.15 56.32C16.41 56.94 14.3 57.25 12.82 57.25V67.57L10 68.05V46.45L12.82 46V56.8C14.3 56.8 16.41 56.49 19.15 55.87C21.89 55.23 24 54.91 25.48 54.91V46.45Z" fill="white"/>
<path d="M48.3323 46.45L51.1523 46V67.57L48.3323 68.05V51.19L35.6723 67.51V67.57L32.8523 68.05V46.45L35.6723 46V66.73L48.3323 50.44V46.45Z" fill="white"/>
<path d="M74.0331 67.12H77.7831V67.57C77.1231 67.57 76.5631 67.7 76.1031 67.96C75.6431 68.22 75.3031 68.59 75.0831 69.07C74.8631 69.55 74.7131 70.04 74.6331 70.54C74.5531 71.04 74.5131 71.62 74.5131 72.28L73.1031 71.32C73.1031 69.44 73.7731 68.19 75.1131 67.57H58.5531L55.7331 68.05V46.45L58.5531 46V67.12H71.2131V46.45L74.0331 46V67.12Z" fill="white"/>
<path d="M96.6862 68.14L93.2662 60.64C91.9662 60.68 90.0462 60.99 87.5062 61.57C84.9662 62.15 82.9962 62.45 81.5962 62.47L79.0462 68.17L78.6262 67.96L87.5362 47.98L87.3862 47.68L87.7762 47.38L89.6962 46L98.9962 66.46L96.6862 68.14ZM81.8062 62.02C83.1462 61.98 85.0462 61.68 87.5062 61.12C89.9662 60.56 91.8162 60.24 93.0562 60.16L87.7762 48.55L81.8062 62.02Z" fill="white"/>
<path d="M113.634 46.45L116.454 46V48.82L113.634 49.27V46.93H104.724V56.77C105.644 56.71 107.024 56.39 108.864 55.81C110.704 55.21 112.134 54.91 113.154 54.91V55.39C112.134 55.39 110.704 55.69 108.864 56.29C107.024 56.87 105.644 57.19 104.724 57.25V67.12H113.634V66.16L116.454 65.71V67.57L113.634 68.05V67.57H104.724L101.904 68.05V46.45L104.724 46V46.45H113.634Z" fill="white"/>
<path d="M139.035 46.45L141.855 46V67.57L139.035 68.05V47.53L131.115 61.24L131.415 61.75L130.605 62.23L122.625 48.4V67.57L119.805 68.05V46.45L122.625 46V46.54L130.845 60.79L139.035 46.57V46.45Z" fill="white"/>
<path d="M152.61 46.66C153.95 46.22 155.4 46 156.96 46C158.54 46 159.99 46.22 161.31 46.66C162.65 47.08 163.84 47.72 164.88 48.58C165.92 49.42 166.74 50.55 167.34 51.97C167.94 53.37 168.24 54.98 168.24 56.8C168.24 58.62 167.94 60.26 167.34 61.72C166.74 63.16 165.92 64.34 164.88 65.26C163.84 66.16 162.65 66.85 161.31 67.33C159.97 67.81 158.52 68.05 156.96 68.05C155.42 68.05 153.98 67.81 152.64 67.33C151.3 66.85 150.11 66.16 149.07 65.26C148.03 64.34 147.21 63.16 146.61 61.72C146.01 60.26 145.71 58.62 145.71 56.8C145.71 54.98 146.01 53.37 146.61 51.97C147.21 50.55 148.03 49.42 149.07 48.58C150.11 47.72 151.29 47.08 152.61 46.66ZM157.92 67.57C158.82 67.57 159.65 67.43 160.41 67.15C161.17 66.85 161.82 66.44 162.36 65.92C162.9 65.4 163.37 64.8 163.77 64.12C164.17 63.44 164.49 62.69 164.73 61.87C164.97 61.05 165.14 60.22 165.24 59.38C165.36 58.54 165.42 57.68 165.42 56.8C165.42 55.34 165.23 54.02 164.85 52.84C164.47 51.66 163.96 50.68 163.32 49.9C162.7 49.12 161.98 48.47 161.16 47.95C160.34 47.41 159.5 47.03 158.64 46.81C157.78 46.57 156.91 46.45 156.03 46.45C154.95 46.45 153.97 46.65 153.09 47.05C152.23 47.43 151.52 47.95 150.96 48.61C150.4 49.25 149.93 50.02 149.55 50.92C149.17 51.82 148.9 52.76 148.74 53.74C148.6 54.7 148.53 55.72 148.53 56.8C148.53 58.24 148.72 59.57 149.1 60.79C149.48 62.01 149.98 63.03 150.6 63.85C151.24 64.67 151.97 65.37 152.79 65.95C153.61 66.51 154.45 66.92 155.31 67.18C156.17 67.44 157.04 67.57 157.92 67.57Z" fill="white"/>
<path d="M189.832 63.37L190.642 64.84C189.522 65.92 188.242 66.74 186.802 67.3C185.362 67.86 183.862 68.11 182.302 68.05C180.762 68.05 179.322 67.81 177.982 67.33C176.642 66.85 175.452 66.16 174.412 65.26C173.372 64.34 172.552 63.16 171.952 61.72C171.352 60.26 171.052 58.62 171.052 56.8C171.052 54.98 171.352 53.37 171.952 51.97C172.552 50.55 173.372 49.42 174.412 48.58C175.452 47.72 176.632 47.08 177.952 46.66C179.292 46.22 180.742 46 182.302 46C184.842 45.94 187.172 46.62 189.292 48.04L188.452 49.93C187.612 48.85 186.562 48.01 185.302 47.41C184.062 46.79 182.752 46.47 181.372 46.45C180.292 46.45 179.312 46.65 178.432 47.05C177.572 47.43 176.862 47.95 176.302 48.61C175.742 49.25 175.272 50.02 174.892 50.92C174.512 51.82 174.242 52.76 174.082 53.74C173.942 54.7 173.872 55.72 173.872 56.8C173.872 58.24 174.062 59.57 174.442 60.79C174.822 62.01 175.322 63.03 175.942 63.85C176.582 64.67 177.312 65.37 178.132 65.95C178.952 66.51 179.792 66.92 180.652 67.18C181.512 67.44 182.382 67.57 183.262 67.57C184.662 67.55 185.952 67.16 187.132 66.4C188.312 65.64 189.212 64.63 189.832 63.37Z" fill="white"/>
<path d="M206.889 46.45L209.679 46V48.82L206.889 49.27V46.93H202.179V67.57L199.359 68.05V46.93H194.679V48.82L191.859 49.27V46.45L194.679 46V46.45H199.359L202.179 46V46.45H206.889Z" fill="white"/>
<path d="M224.71 54.91C225.79 54.91 226.79 55.03 227.71 55.27C228.65 55.51 229.49 55.89 230.23 56.41C230.99 56.91 231.59 57.59 232.03 58.45C232.47 59.31 232.69 60.32 232.69 61.48C232.69 63.06 232.28 64.34 231.46 65.32C230.66 66.28 229.44 66.98 227.8 67.42C226.18 67.84 224.05 68.05 221.41 68.05C220.71 68.05 219.85 68.01 218.83 67.93C217.81 67.85 216.97 67.77 216.31 67.69L215.32 67.57L212.5 68.05V46.45L215.32 46V56.74C216.34 56.66 217.83 56.34 219.79 55.78C221.75 55.2 223.39 54.91 224.71 54.91ZM221.89 67.57C223.31 67.57 224.55 67.4 225.61 67.06C226.69 66.72 227.53 66.25 228.13 65.65C228.73 65.05 229.17 64.4 229.45 63.7C229.73 63 229.87 62.26 229.87 61.48C229.87 59.7 229.37 58.27 228.37 57.19C227.39 56.09 226.17 55.49 224.71 55.39C223.39 55.39 221.75 55.68 219.79 56.26C217.83 56.82 216.34 57.14 215.32 57.22V67.12C218.1 67.42 220.29 67.57 221.89 67.57Z" fill="white"/>
</svg>
