<svg width="241" height="83" viewBox="0 0 241 83" fill="none" xmlns="http://www.w3.org/2000/svg">
<path d="M25.8501 10.4874L28.6701 10V33.3612L25.8501 33.8811V20.1698C24.3701 20.1698 22.2601 20.5055 19.5201 21.177C16.7801 21.8485 14.6701 22.1842 13.1901 22.1842V33.3612L10.3701 33.8811V10.4874L13.1901 10V21.6968C14.6701 21.6968 16.7801 21.3611 19.5201 20.6896C22.2601 19.9965 24.3701 19.6499 25.8501 19.6499V10.4874Z" fill="white"/>
<path d="M44.9224 10.4874L47.7424 10V13.0542L44.9224 13.5415V11.0072H36.0124V21.6644C36.9324 21.5994 38.3124 21.2528 40.1524 20.6246C41.9924 19.9748 43.4224 19.6499 44.4424 19.6499V20.1698C43.4224 20.1698 41.9924 20.4947 40.1524 21.1445C38.3124 21.7727 36.9324 22.1192 36.0124 22.1842V32.8738H44.9224V31.8341L47.7424 31.3468V33.3612L44.9224 33.8811V33.3612H36.0124L33.1924 33.8811V10.4874L36.0124 10V10.4874H44.9224Z" fill="white"/>
<path d="M66.5735 10.4874L69.3935 10V33.3612L66.5735 33.8811V11.0072H53.9135V33.3612L51.0935 33.8811V10.4874L53.9135 10V10.4874H66.5735Z" fill="white"/>
<path d="M83.7843 10C85.0643 10 86.2543 10.2166 87.3543 10.6498C88.4743 11.083 89.4143 11.7762 90.1743 12.7293C90.9343 13.6823 91.3143 14.7979 91.3143 16.0759C91.3143 17.3755 90.9443 18.5019 90.2043 19.455C89.4843 20.408 88.5943 21.1012 87.5343 21.5344C86.4943 21.9676 85.4043 22.1842 84.2643 22.1842H76.7643V33.3612L73.9443 33.8811V10.4874L76.7643 10H83.7843ZM84.2643 21.6968C85.0443 21.6968 85.7243 21.5344 86.3043 21.2095C86.8843 20.8629 87.3243 20.408 87.6243 19.8448C87.9243 19.2817 88.1443 18.6968 88.2843 18.0903C88.4243 17.4622 88.4943 16.7907 88.4943 16.0759C88.4943 14.5379 87.9843 13.2275 86.9643 12.1444C85.9643 11.0397 84.7543 10.4874 83.3343 10.4874H76.7643V21.6968H84.2643Z" fill="white"/>
<path d="M100.48 10.7148C101.82 10.2383 103.27 10 104.83 10C106.41 10 107.86 10.2383 109.18 10.7148C110.52 11.1697 111.71 11.8628 112.75 12.7942C113.79 13.704 114.61 14.9278 115.21 16.4658C115.81 17.982 116.11 19.7257 116.11 21.6968C116.11 23.668 115.81 25.4442 115.21 27.0254C114.61 28.585 113.79 29.863 112.75 30.8594C111.71 31.8341 110.52 32.5814 109.18 33.1013C107.84 33.6211 106.39 33.8811 104.83 33.8811C103.29 33.8811 101.85 33.6211 100.51 33.1013C99.17 32.5814 97.98 31.8341 96.94 30.8594C95.9 29.863 95.08 28.585 94.48 27.0254C93.88 25.4442 93.58 23.668 93.58 21.6968C93.58 19.7257 93.88 17.982 94.48 16.4658C95.08 14.9278 95.9 13.704 96.94 12.7942C97.98 11.8628 99.16 11.1697 100.48 10.7148ZM105.79 33.3612C106.69 33.3612 107.52 33.2096 108.28 32.9063C109.04 32.5814 109.69 32.1374 110.23 31.5742C110.77 31.011 111.24 30.3612 111.64 29.6247C112.04 28.8882 112.36 28.076 112.6 27.1879C112.84 26.2998 113.01 25.4009 113.11 24.4911C113.23 23.5813 113.29 22.6499 113.29 21.6968C113.29 20.1156 113.1 18.686 112.72 17.408C112.34 16.13 111.83 15.0686 111.19 14.2239C110.57 13.3791 109.85 12.6751 109.03 12.1119C108.21 11.5271 107.37 11.1155 106.51 10.8773C105.65 10.6173 104.78 10.4874 103.9 10.4874C102.82 10.4874 101.84 10.704 100.96 11.1372C100.1 11.5487 99.39 12.1119 98.83 12.8267C98.27 13.5199 97.8 14.3538 97.42 15.3286C97.04 16.3033 96.77 17.3214 96.61 18.3827C96.47 19.4225 96.4 20.5272 96.4 21.6968C96.4 23.2564 96.59 24.6969 96.97 26.0182C97.35 27.3395 97.85 28.4442 98.47 29.3323C99.11 30.2204 99.84 30.9785 100.66 31.6067C101.48 32.2132 102.32 32.6572 103.18 32.9388C104.04 33.2204 104.91 33.3612 105.79 33.3612Z" fill="white"/>
<path d="M135.42 33.5237L137.76 33.4912V36.5454L134.94 37.0652V34.011H118.05V36.5454L115.23 37.0652V33.4912H117.57C118.85 33.4912 119.87 33.0146 120.63 32.0616C121.41 31.1085 121.8 29.5597 121.8 27.4153C121.8 24.2528 121.88 21.2745 122.04 18.4802C122.2 15.686 122.35 13.6823 122.49 12.4693L122.73 10.6498H132.6L135.42 10.13V33.5237ZM119.91 33.4912H132.6V11.1372H123.12C122.56 15.3177 122.28 20.9062 122.28 27.9027C122.28 29.3106 122.07 30.4911 121.65 31.4442C121.23 32.3756 120.65 33.058 119.91 33.4912Z" fill="white"/>
<path d="M157.007 10L157.397 10.2599L145.877 31.8991C145.357 32.9172 144.567 33.5562 143.507 33.8161C142.467 34.0544 141.507 33.8377 140.627 33.1663L141.077 32.159C141.457 32.4839 141.897 32.7439 142.397 32.9388C142.917 33.1338 143.477 33.1446 144.077 32.9713C144.677 32.798 145.137 32.354 145.457 31.6392L148.787 25.4333L146.897 27.0904L138.767 11.9495L140.987 10L149.027 24.9785L157.007 10Z" fill="white"/>
<path d="M175.316 20.0398C176.836 20.4514 178.046 21.2203 178.946 22.3467C179.866 23.4514 180.326 24.9243 180.326 26.7655C180.326 29.3215 179.426 31.1518 177.626 32.2565C175.846 33.3395 172.986 33.8811 169.046 33.8811C168.726 33.8811 168.366 33.8702 167.966 33.8486C167.566 33.8269 167.176 33.8053 166.796 33.7836C166.416 33.7619 166.036 33.7294 165.656 33.6861C165.276 33.6428 164.926 33.6103 164.606 33.5886C164.286 33.5453 163.996 33.5128 163.736 33.4912C163.496 33.4479 163.306 33.4154 163.166 33.3937L162.956 33.3612L160.136 33.8811V10.4874L162.956 10H170.936C171.696 10 172.426 10.0542 173.126 10.1625C173.826 10.2708 174.496 10.4549 175.136 10.7148C175.796 10.9747 176.366 11.2996 176.846 11.6895C177.326 12.0794 177.706 12.5776 177.986 13.1841C178.286 13.7906 178.436 14.473 178.436 15.2311C178.436 16.6824 178.136 17.7979 177.536 18.5777C176.956 19.3358 176.216 19.8232 175.316 20.0398ZM170.456 10.4874H162.956V21.6319C163.996 21.5452 165.446 21.2095 167.306 20.6246C169.186 20.0181 170.726 19.6932 171.926 19.6499H171.866C173.046 19.6499 173.966 19.2275 174.626 18.3827C175.286 17.5163 175.616 16.4116 175.616 15.0686C175.616 14.2888 175.466 13.5957 175.166 12.9892C174.866 12.3827 174.456 11.9062 173.936 11.5596C173.436 11.213 172.886 10.9531 172.286 10.7798C171.706 10.5848 171.096 10.4874 170.456 10.4874ZM169.526 33.3612C170.946 33.3612 172.186 33.1771 173.246 32.8089C174.326 32.4406 175.166 31.9316 175.766 31.2818C176.366 30.6319 176.806 29.928 177.086 29.1698C177.366 28.4117 177.506 27.6103 177.506 26.7655C177.506 24.8377 177.006 23.2889 176.006 22.1192C175.026 20.9279 173.806 20.2781 172.346 20.1698C171.026 20.1698 169.386 20.4838 167.426 21.112C165.466 21.7185 163.976 22.0651 162.956 22.1517V32.8738C165.736 33.1988 167.926 33.3612 169.526 33.3612Z" fill="white"/>
<path d="M199.83 33.9785L196.41 25.8557C195.11 25.8991 193.19 26.2348 190.65 26.863C188.11 27.4911 186.14 27.816 184.74 27.8377L182.19 34.011L181.77 33.7836L190.68 12.1444L190.53 11.8195L190.92 11.4946L192.84 10L202.14 32.159L199.83 33.9785ZM184.95 27.3503C186.29 27.307 188.19 26.9821 190.65 26.3756C193.11 25.7691 194.96 25.4225 196.2 25.3359L190.92 12.7618L184.95 27.3503Z" fill="white"/>
<path d="M216.778 10.4874L219.598 10V13.0542L216.778 13.5415V11.0072H207.868V21.6644C208.788 21.5994 210.168 21.2528 212.008 20.6246C213.848 19.9748 215.278 19.6499 216.298 19.6499V20.1698C215.278 20.1698 213.848 20.4947 212.008 21.1445C210.168 21.7727 208.788 22.1192 207.868 22.1842V32.8738H216.778V31.8341L219.598 31.3468V33.3612L216.778 33.8811V33.3612H207.868L205.048 33.8811V10.4874L207.868 10V10.4874H216.778Z" fill="white"/>
<path d="M230.299 25.1084H221.839V23.0615H230.299V25.1084Z" fill="white"/>
<path d="M29.6301 49.4769L32.4501 48.9895V72.3507L29.6301 72.8706V50.6466L21.7101 65.4951L22.0101 66.0474L21.2001 66.5673L13.2201 51.5888V72.3507L10.4001 72.8706V49.4769L13.2201 48.9895V49.5743L21.4401 65.0077L29.6301 49.6068V49.4769Z" fill="white"/>
<path d="M43.2046 49.7043C44.5446 49.2278 45.9946 48.9895 47.5546 48.9895C49.1346 48.9895 50.5846 49.2278 51.9046 49.7043C53.2446 50.1592 54.4347 50.8523 55.4747 51.7837C56.5147 52.6935 57.3347 53.9173 57.9347 55.4553C58.5347 56.9715 58.8346 58.7152 58.8346 60.6863C58.8346 62.6575 58.5347 64.4337 57.9347 66.0149C57.3347 67.5745 56.5147 68.8525 55.4747 69.8489C54.4347 70.8236 53.2446 71.5709 51.9046 72.0908C50.5646 72.6106 49.1146 72.8706 47.5546 72.8706C46.0146 72.8706 44.5746 72.6106 43.2346 72.0908C41.8946 71.5709 40.7046 70.8236 39.6646 69.8489C38.6246 68.8525 37.8046 67.5745 37.2046 66.0149C36.6046 64.4337 36.3046 62.6575 36.3046 60.6863C36.3046 58.7152 36.6046 56.9715 37.2046 55.4553C37.8046 53.9173 38.6246 52.6935 39.6646 51.7837C40.7046 50.8523 41.8846 50.1592 43.2046 49.7043ZM48.5146 72.3507C49.4146 72.3507 50.2447 72.1991 51.0047 71.8958C51.7647 71.5709 52.4147 71.1269 52.9547 70.5637C53.4946 70.0005 53.9646 69.3507 54.3647 68.6142C54.7647 67.8777 55.0846 67.0655 55.3246 66.1774C55.5646 65.2893 55.7346 64.3904 55.8346 63.4806C55.9546 62.5708 56.0146 61.6394 56.0146 60.6863C56.0146 59.1051 55.8246 57.6755 55.4446 56.3975C55.0646 55.1195 54.5547 54.0581 53.9146 53.2134C53.2947 52.3686 52.5747 51.6646 51.7547 51.1014C50.9346 50.5166 50.0946 50.105 49.2346 49.8668C48.3747 49.6068 47.5046 49.4769 46.6246 49.4769C45.5446 49.4769 44.5647 49.6935 43.6847 50.1267C42.8247 50.5382 42.1146 51.1014 41.5546 51.8162C40.9946 52.5094 40.5246 53.3433 40.1446 54.3181C39.7646 55.2928 39.4946 56.3109 39.3346 57.3722C39.1946 58.412 39.1246 59.5167 39.1246 60.6863C39.1246 62.2459 39.3146 63.6864 39.6946 65.0077C40.0746 66.329 40.5746 67.4337 41.1946 68.3218C41.8346 69.2099 42.5646 69.968 43.3846 70.5962C44.2046 71.2027 45.0446 71.6467 45.9046 71.9283C46.7646 72.2099 47.6346 72.3507 48.5146 72.3507Z" fill="white"/>
<path d="M80.4264 67.8019L81.2365 69.394C80.1165 70.5637 78.8364 71.4518 77.3964 72.0583C75.9564 72.6648 74.4564 72.9356 72.8964 72.8706C71.3564 72.8706 69.9164 72.6106 68.5764 72.0908C67.2364 71.5709 66.0464 70.8236 65.0064 69.8489C63.9664 68.8525 63.1464 67.5745 62.5464 66.0149C61.9464 64.4337 61.6464 62.6575 61.6464 60.6863C61.6464 58.7152 61.9464 56.9715 62.5464 55.4553C63.1464 53.9173 63.9664 52.6935 65.0064 51.7837C66.0464 50.8523 67.2264 50.1592 68.5464 49.7043C69.8864 49.2278 71.3364 48.9895 72.8964 48.9895C75.4364 48.9245 77.7664 49.661 79.8864 51.1989L79.0464 53.2459C78.2064 52.0762 77.1564 51.1664 75.8964 50.5166C74.6564 49.8451 73.3464 49.4985 71.9664 49.4769C70.8864 49.4769 69.9064 49.6935 69.0264 50.1267C68.1664 50.5382 67.4564 51.1014 66.8964 51.8162C66.3364 52.5094 65.8664 53.3433 65.4864 54.3181C65.1064 55.2928 64.8364 56.3109 64.6764 57.3722C64.5364 58.412 64.4664 59.5167 64.4664 60.6863C64.4664 62.2459 64.6564 63.6864 65.0364 65.0077C65.4164 66.329 65.9164 67.4337 66.5364 68.3218C67.1764 69.2099 67.9064 69.968 68.7264 70.5962C69.5464 71.2027 70.3864 71.6467 71.2464 71.9283C72.1064 72.2099 72.9764 72.3507 73.8564 72.3507C75.2564 72.329 76.5464 71.9067 77.7264 71.0836C78.9064 70.2604 79.8064 69.1666 80.4264 67.8019Z" fill="white"/>
<path d="M97.484 49.4769L100.274 48.9895V52.0437L97.484 52.531V49.9967H92.774V72.3507L89.954 72.8706V49.9967H85.274V52.0437L82.454 52.531V49.4769L85.274 48.9895V49.4769H89.954L92.774 48.9895V49.4769H97.484Z" fill="white"/>
<path d="M115.305 58.6394C116.385 58.6394 117.385 58.7694 118.305 59.0293C119.245 59.2892 120.085 59.7008 120.825 60.264C121.585 60.8055 122.185 61.542 122.625 62.4734C123.065 63.4048 123.285 64.4987 123.285 65.755C123.285 67.4662 122.875 68.8525 122.055 69.9139C121.255 70.9536 120.035 71.7117 118.395 72.1883C116.775 72.6431 114.645 72.8706 112.005 72.8706C111.305 72.8706 110.445 72.8272 109.425 72.7406C108.405 72.654 107.565 72.5673 106.905 72.4807L105.915 72.3507L103.095 72.8706V49.4769L105.915 48.9895V60.6214C106.935 60.5347 108.425 60.1881 110.385 59.5816C112.345 58.9535 113.985 58.6394 115.305 58.6394ZM112.485 72.3507C113.905 72.3507 115.145 72.1666 116.205 71.7984C117.285 71.4301 118.125 70.9211 118.725 70.2713C119.325 69.6214 119.765 68.9175 120.045 68.1593C120.325 67.4012 120.465 66.5998 120.465 65.755C120.465 63.8272 119.965 62.2784 118.965 61.1087C117.985 59.9174 116.765 59.2676 115.305 59.1593C113.985 59.1593 112.345 59.4733 110.385 60.1015C108.425 60.708 106.935 61.0546 105.915 61.1412V71.8633C108.695 72.1883 110.885 72.3507 112.485 72.3507Z" fill="white"/>
</svg>
