<svg width="242" height="143" viewBox="0 0 242 143" fill="none" xmlns="http://www.w3.org/2000/svg">
<path d="M11.3152 120.773L13.1631 119.297L21.9732 134.843L20.1376 136.341L14.9667 127.217C13.9005 127.821 12.507 128.907 10.7862 130.473C9.06544 132.04 7.67193 133.125 6.60569 133.73L10.8208 141.168L8.98522 142.666L0.162888 127.098L2.01072 125.621L6.42189 133.405C7.48813 132.801 8.88164 131.715 10.6024 130.149C12.315 128.568 13.7044 127.475 14.7707 126.871L11.3152 120.773Z" fill="white"/>
<path d="M25.0556 112.98L26.9034 111.504L28.0552 113.536L26.2074 115.013L25.2517 113.326L18.8326 116.967L22.8516 124.059C23.4899 123.64 24.3534 122.846 25.4421 121.676C26.5227 120.491 27.4304 119.691 28.1652 119.274L28.3613 119.62C27.6264 120.037 26.7187 120.837 25.6382 122.022C24.5495 123.191 23.686 123.986 23.0477 124.405L27.079 131.519L33.4981 127.879L33.106 127.187L34.9538 125.71L35.7135 127.051L33.8779 128.549L33.6819 128.203L27.2628 131.843L25.4272 133.341L16.6049 117.773L18.4527 116.297L18.6365 116.621L25.0556 112.98Z" fill="white"/>
<path d="M40.6538 104.134L42.5017 102.658L51.3118 118.204L49.4762 119.703L40.8499 104.48L31.7292 109.653L40.1594 124.529L38.3238 126.027L29.5015 110.459L31.3493 108.983L31.5331 109.307L40.6538 104.134Z" fill="white"/>
<path d="M52.8694 96.7779C53.7915 96.2549 54.7306 95.9128 55.6864 95.7517C56.6567 95.5824 57.5953 95.6596 58.5022 95.9834C59.4092 96.3071 60.1037 96.8942 60.5856 97.7447C61.0758 98.6096 61.234 99.5104 61.0603 100.447C60.901 101.375 60.5212 102.2 59.9209 102.922C59.335 103.635 58.6315 104.225 57.8102 104.69L52.4069 107.755L56.622 115.193L54.7864 116.691L45.9641 101.123L47.8119 99.6461L52.8694 96.7779ZM57.6264 104.366C58.1883 104.047 58.6169 103.661 58.9123 103.208C59.1994 102.74 59.3449 102.258 59.3486 101.761C59.3523 101.263 59.2903 100.784 59.1624 100.323C59.0264 99.8481 58.8236 99.3726 58.554 98.8969C57.974 97.8734 57.1124 97.2097 55.9691 96.9057C54.832 96.5791 53.752 96.7059 52.729 97.2861L47.9957 99.9705L52.2231 107.43L57.6264 104.366Z" fill="white"/>
<path d="M65.1672 90.432C65.9528 89.5674 66.9076 88.8164 68.0315 88.179C69.1698 87.5335 70.3043 87.0996 71.435 86.8774C72.5719 86.6326 73.6906 86.6077 74.7911 86.8026C75.8835 86.9831 76.9358 87.4625 77.948 88.2409C78.9521 89.0048 79.8258 90.0426 80.5692 91.3544C81.3125 92.6662 81.7662 93.9708 81.9303 95.2683C82.0862 96.5513 81.9774 97.7368 81.6039 98.8248C81.2223 99.8984 80.6468 100.882 79.8774 101.775C79.1081 102.669 78.1615 103.434 77.0376 104.072C75.9281 104.701 74.7927 105.116 73.6312 105.318C72.4698 105.519 71.3307 105.508 70.2138 105.284C69.0888 105.046 68.0161 104.531 66.9957 103.738C65.9671 102.931 65.0811 101.871 64.3377 100.56C63.5944 99.2479 63.1529 97.965 63.0134 96.7108C62.8656 95.4421 62.9948 94.2926 63.401 93.2623C63.799 92.2175 64.3877 91.2741 65.1672 90.432ZM77.5332 103.333C78.1816 102.966 78.7224 102.526 79.1555 102.013C79.5805 101.487 79.8813 100.926 80.058 100.33C80.2346 99.7347 80.3282 99.1102 80.3386 98.4567C80.349 97.8031 80.2733 97.1318 80.1112 96.4428C79.9492 95.7537 79.7327 95.086 79.4616 94.4397C79.205 93.7852 78.897 93.1409 78.5375 92.5066C77.9412 91.4543 77.2652 90.5805 76.5095 89.8853C75.7537 89.1901 74.986 88.6921 74.2064 88.3914C73.4411 88.0825 72.6569 87.9082 71.8538 87.8685C71.0425 87.8143 70.2821 87.8836 69.5726 88.0764C68.8551 88.2548 68.1793 88.5238 67.5453 88.8833C66.7672 89.3246 66.1429 89.8692 65.6722 90.517C65.2079 91.1423 64.9088 91.8072 64.7749 92.5117C64.6328 93.2018 64.6087 93.9488 64.7026 94.7527C64.7964 95.5567 64.9858 96.3445 65.2708 97.1162C65.5621 97.8653 65.9282 98.6291 66.3694 99.4075C66.9575 100.445 67.6376 101.326 68.4097 102.05C69.1818 102.775 69.9586 103.305 70.7402 103.643C71.5362 103.973 72.348 104.179 73.1757 104.262C73.9952 104.33 74.7678 104.283 75.4935 104.119C76.2193 103.955 76.8992 103.693 77.5332 103.333Z" fill="white"/>
<path d="M98.9411 91.3353L100.615 90.3576L101.766 92.3901L99.9309 93.8883L98.7791 91.8558L86.6109 98.7567L87.5667 100.443L85.7311 101.941L84.3832 99.5629L86.069 98.6068C86.9912 98.0839 87.5463 97.35 87.7344 96.4052C87.937 95.4522 87.6339 94.2622 86.8251 92.8351C85.6325 90.7305 84.5669 88.7157 83.6284 86.7908C82.6899 84.8659 82.0423 83.4712 81.6857 82.6067L81.1725 81.2978L88.2832 77.2651L90.1188 75.767L98.9411 91.3353ZM87.7549 97.6508L96.8972 92.4659L88.467 77.5895L81.6372 81.4628C82.8104 84.4737 84.7162 88.3072 87.3547 92.9633C87.8857 93.9003 88.1796 94.7717 88.2365 95.5776C88.2852 96.3691 88.1246 97.0601 87.7549 97.6508Z" fill="white"/>
<path d="M105.622 66.8606L106.001 66.8742L105.862 85.9818C105.871 86.8718 105.543 87.6198 104.877 88.2259C104.218 88.8094 103.445 89.0574 102.557 88.9701L102.502 88.116C102.898 88.1769 103.313 88.1701 103.747 88.0956C104.195 88.0128 104.602 87.7913 104.969 87.4308C105.336 87.0703 105.5 86.5869 105.461 85.9804L105.52 80.4899L104.783 82.3649L93.216 75.6105L94.0802 73.406L105.521 80.0891L105.622 66.8606Z" fill="white"/>
<path d="M122.599 66.061C123.849 65.7139 125.011 65.7312 126.084 66.1131C127.163 66.4724 128.05 67.2647 128.745 68.4899C129.708 70.1909 129.75 71.7767 128.87 73.2474C127.996 74.6954 126.14 76.2243 123.301 77.8341C123.071 77.9649 122.807 78.1047 122.511 78.2538C122.215 78.4028 121.926 78.5477 121.644 78.6886C121.362 78.8294 121.076 78.963 120.786 79.0895C120.496 79.2159 120.231 79.3373 119.992 79.4536C119.746 79.5555 119.524 79.6524 119.329 79.7442C119.14 79.8134 118.991 79.8694 118.881 79.9122L118.718 79.9764L116.882 81.4746L108.06 65.9062L109.908 64.4297L115.657 61.1692C116.204 60.8587 116.751 60.5965 117.296 60.3825C117.841 60.1686 118.393 60.0174 118.952 59.9289C119.526 59.8322 120.059 59.8155 120.552 59.8789C121.045 59.9422 121.506 60.1185 121.937 60.4077C122.382 60.6888 122.747 61.0816 123.033 61.5861C123.58 62.5519 123.785 63.4169 123.647 64.181C123.515 64.9225 123.165 65.5492 122.599 66.061ZM115.495 61.6897L110.092 64.754L114.295 72.1706C115.011 71.688 115.929 70.8722 117.049 69.723C118.174 68.5512 119.161 67.7058 120.009 67.1867L119.966 67.2112C120.816 66.729 121.32 66.0721 121.477 65.2402C121.625 64.3939 121.447 63.5239 120.94 62.6302C120.646 62.1112 120.277 61.7113 119.832 61.4302C119.387 61.1492 118.912 60.9995 118.406 60.9814C117.916 60.955 117.421 61.0067 116.924 61.1366C116.432 61.2438 115.956 61.4282 115.495 61.6897ZM123.451 77.292C124.474 76.7118 125.298 76.0827 125.923 75.4045C126.562 74.7182 126.975 74.0362 127.163 73.3586C127.35 72.681 127.401 72.0328 127.317 71.4138C127.233 70.7949 127.031 70.2043 126.713 69.6421C125.986 68.3592 125.042 67.5328 123.88 67.163C122.725 66.7706 121.601 66.8366 120.508 67.361C119.557 67.9003 118.494 68.7794 117.319 69.9983C116.136 71.2027 115.193 72.0422 114.491 72.5166L118.534 79.6521C120.659 78.7324 122.299 77.9458 123.451 77.292Z" fill="white"/>
<path d="M145.516 65.3215L139.988 61.3132C139.068 61.8732 137.812 62.8811 136.219 64.3369C134.626 65.7928 133.329 66.8139 132.328 67.4003L132.819 72.5505L132.431 72.5708L130.689 54.5296L130.459 54.3746L130.617 53.9991L131.437 52.22L146.494 63.1668L145.516 65.3215ZM132.296 66.9902C133.245 66.4138 134.491 65.4213 136.035 64.0126C137.578 62.6039 138.78 61.6173 139.641 61.053L131.095 54.8424L132.296 66.9902Z" fill="white"/>
<path d="M148.867 42.7636L150.714 41.2871L151.866 43.3196L150.018 44.7962L149.063 43.1096L142.644 46.7501L146.663 53.8423C147.301 53.4232 148.164 52.6287 149.253 51.4588C150.334 50.2746 151.241 49.4741 151.976 49.0574L152.172 49.4033C151.437 49.8201 150.53 50.6206 149.449 51.8048C148.36 52.9746 147.497 53.7691 146.859 54.1883L150.89 61.3021L157.309 57.6617L156.917 56.9697L158.765 55.4932L159.524 56.8338L157.689 58.332L157.493 57.986L151.074 61.6265L149.238 63.1246L140.416 47.5563L142.264 46.0797L142.447 46.4041L148.867 42.7636Z" fill="white"/>
<path d="M167.166 32.3852L169.014 30.9087L177.824 46.4554L175.989 47.9536L167.608 33.1637L167.501 46.2812L167.926 46.5262L167.538 47.2031L156.141 40.4955L163.97 54.3124L162.135 55.8106L153.312 40.2422L155.16 38.7657L155.381 39.1549L167.123 46.0672L167.215 32.4717L167.166 32.3852Z" fill="white"/>
<path d="M177.032 26.9903C177.817 26.1257 178.772 25.3747 179.896 24.7373C181.034 24.0917 182.169 23.6578 183.3 23.4356C184.437 23.1909 185.555 23.1659 186.656 23.3609C187.748 23.5414 188.8 24.0208 189.813 24.7991C190.817 25.563 191.69 26.6009 192.434 27.9127C193.177 29.2244 193.631 30.529 193.795 31.8265C193.951 33.1095 193.842 34.2951 193.469 35.3831C193.087 36.4567 192.511 37.4402 191.742 38.3337C190.973 39.2271 190.026 39.9926 188.902 40.63C187.793 41.2592 186.657 41.6745 185.496 41.8761C184.334 42.0776 183.195 42.0665 182.079 41.8427C180.953 41.6046 179.881 41.0891 178.86 40.2964C177.832 39.4892 176.946 38.4298 176.202 37.118C175.459 35.8062 175.018 34.5232 174.878 33.269C174.73 32.0004 174.86 30.8509 175.266 29.8205C175.664 28.7758 176.252 27.8323 177.032 26.9903ZM189.398 39.8918C190.046 39.524 190.587 39.084 191.02 38.5717C191.445 38.0449 191.746 37.4838 191.923 36.8884C192.099 36.293 192.193 35.6685 192.203 35.0149C192.214 34.3614 192.138 33.6901 191.976 33.001C191.814 32.3119 191.597 31.6442 191.326 30.9979C191.07 30.3435 190.762 29.6991 190.402 29.0649C189.806 28.0125 189.13 27.1388 188.374 26.4435C187.618 25.7483 186.851 25.2504 186.071 24.9497C185.306 24.6408 184.522 24.4665 183.718 24.4267C182.907 24.3725 182.147 24.4419 181.437 24.6347C180.72 24.8131 180.044 25.082 179.41 25.4416C178.632 25.8829 178.008 26.4274 177.537 27.0753C177.073 27.7005 176.773 28.3654 176.64 29.0699C176.498 29.76 176.473 30.507 176.567 31.311C176.661 32.1149 176.85 32.9028 177.136 33.6745C177.427 34.4236 177.793 35.1874 178.234 35.9658C178.822 37.0037 179.502 37.8846 180.274 38.6087C181.046 39.3328 181.823 39.8637 182.605 40.2014C183.401 40.5309 184.213 40.7372 185.04 40.8202C185.86 40.8887 186.632 40.841 187.358 40.6771C188.084 40.5131 188.764 40.2513 189.398 39.8918Z" fill="white"/>
<path d="M210.673 23.826L211.857 24.5546C211.491 25.7906 210.904 26.9046 210.095 27.8966C209.286 28.8886 208.308 29.6816 207.159 30.2758C206.05 30.905 204.915 31.3204 203.753 31.5219C202.592 31.7234 201.453 31.7123 200.336 31.4886C199.211 31.2504 198.138 30.7349 197.117 29.9422C196.089 29.1351 195.203 28.0756 194.46 26.7638C193.716 25.452 193.275 24.169 193.135 22.9148C192.987 21.6462 193.117 20.4967 193.523 19.4664C193.921 18.4216 194.51 17.4782 195.289 16.6361C196.075 15.7715 197.029 15.0205 198.153 14.3831C199.959 13.3021 201.915 12.8402 204.022 12.9975L204.189 14.7029C203.143 14.2677 202.043 14.0913 200.891 14.1736C199.744 14.2334 198.669 14.538 197.667 15.0874C196.889 15.5287 196.265 16.0733 195.794 16.7211C195.33 17.3464 195.031 18.0113 194.897 18.7158C194.755 19.4059 194.731 20.1529 194.824 20.9568C194.918 21.7608 195.108 22.5486 195.393 23.3203C195.684 24.0694 196.05 24.8332 196.491 25.6116C197.079 26.6495 197.759 27.5305 198.532 28.2545C199.304 28.9786 200.08 29.5095 200.862 29.8472C201.658 30.1767 202.47 30.383 203.297 30.466C204.117 30.5346 204.89 30.4869 205.615 30.3229C206.341 30.1589 207.021 29.8971 207.655 29.5376C208.655 28.9512 209.426 28.143 209.965 27.1131C210.505 26.0832 210.741 24.9875 210.673 23.826Z" fill="white"/>
<path d="M216.051 4.66143L217.877 3.19715L219.029 5.22968L217.203 6.69397L216.247 5.00739L212.854 6.93181L221.284 21.8082L219.448 23.3064L210.822 8.08401L207.45 9.99617L208.222 11.3584L206.375 12.8349L205.223 10.8024L207.071 9.32586L207.254 9.6502L210.626 7.73805L212.474 6.26151L212.658 6.58585L216.051 4.66143Z" fill="white"/>
<path d="M232.345 3.47783C233.123 3.03657 233.893 2.71448 234.653 2.51156C235.429 2.30048 236.189 2.23116 236.934 2.3036C237.686 2.35346 238.396 2.59843 239.064 3.0385C239.733 3.47858 240.304 4.11665 240.778 4.95273C241.423 6.09153 241.65 7.18161 241.46 8.22299C241.276 9.24178 240.683 10.2448 239.681 11.232C238.685 12.1966 237.236 13.2182 235.334 14.2969C234.83 14.5829 234.194 14.9054 233.427 15.2645C232.659 15.6236 232.021 15.9092 231.513 16.1212L230.751 16.4392L228.915 17.9373L220.093 2.36901L221.941 0.892468L226.328 8.63339C227.03 8.15898 227.972 7.31955 229.156 6.11511C230.331 4.89625 231.394 4.01716 232.345 3.47783ZM235.484 13.7548C236.507 13.1746 237.331 12.5455 237.956 11.8673C238.595 11.181 239.008 10.499 239.196 9.82141C239.383 9.14381 239.434 8.49554 239.35 7.87661C239.266 7.25768 239.065 6.66712 238.746 6.10493C238.019 4.82198 237.075 3.99559 235.913 3.62575C234.758 3.23333 233.634 3.29935 232.541 3.8238C231.59 4.36312 230.527 5.24222 229.352 6.46107C228.169 7.66552 227.226 8.50494 226.524 8.97936L230.567 16.1148C232.693 15.1952 234.332 14.4085 235.484 13.7548Z" fill="white"/>
</svg>
