<svg width="159" height="64" viewBox="0 0 159 64" fill="none" xmlns="http://www.w3.org/2000/svg">
<path d="M6.34012 14.34C7.72012 14.38 9.00012 14.7 10.1801 15.3C11.3801 15.9 12.3701 16.65 13.1501 17.55C13.9501 18.43 14.6301 19.42 15.1901 20.52C15.7501 21.6 16.1601 22.66 16.4201 23.7C16.6801 24.72 16.8001 25.66 16.7801 26.52L14.9201 27C14.9201 26.5 14.8701 25.94 14.7701 25.32C14.6701 24.68 14.5101 23.98 14.2901 23.22C14.0701 22.44 13.8001 21.67 13.4801 20.91C13.1601 20.15 12.7501 19.41 12.2501 18.69C11.7501 17.95 11.1901 17.3 10.5701 16.74C9.97012 16.18 9.25012 15.73 8.41012 15.39C7.59012 15.03 6.71012 14.84 5.77012 14.82L3.19012 16.98V26.52L0.370117 27V5.39999L3.19012 4.94999V16.38L16.8101 4.94999L17.1101 5.30999L6.34012 14.34Z" fill="white"/>
<path d="M30.2199 4.94999C31.4999 4.94999 32.6899 5.14999 33.7899 5.54999C34.9099 5.94999 35.8499 6.58999 36.6099 7.46999C37.3699 8.34999 37.7499 9.37999 37.7499 10.56C37.7499 11.76 37.3799 12.8 36.6399 13.68C35.9199 14.56 35.0299 15.2 33.9699 15.6C32.9299 16 31.8399 16.2 30.6999 16.2H23.1999V26.52L20.3799 27V5.39999L23.1999 4.94999H30.2199ZM30.6999 15.75C31.4799 15.75 32.1599 15.6 32.7399 15.3C33.3199 14.98 33.7599 14.56 34.0599 14.04C34.3599 13.52 34.5799 12.98 34.7199 12.42C34.8599 11.84 34.9299 11.22 34.9299 10.56C34.9299 9.13999 34.4199 7.92999 33.3999 6.92999C32.3999 5.90999 31.1899 5.39999 29.7699 5.39999H23.1999V15.75H30.6999Z" fill="white"/>
<path d="M46.9156 5.60999C48.2556 5.16999 49.7056 4.94999 51.2656 4.94999C52.8456 4.94999 54.2956 5.16999 55.6156 5.60999C56.9556 6.02999 58.1456 6.66999 59.1856 7.52999C60.2256 8.36999 61.0456 9.49999 61.6456 10.92C62.2456 12.32 62.5456 13.93 62.5456 15.75C62.5456 17.57 62.2456 19.21 61.6456 20.67C61.0456 22.11 60.2256 23.29 59.1856 24.21C58.1456 25.11 56.9556 25.8 55.6156 26.28C54.2756 26.76 52.8256 27 51.2656 27C49.7256 27 48.2856 26.76 46.9456 26.28C45.6056 25.8 44.4156 25.11 43.3756 24.21C42.3356 23.29 41.5156 22.11 40.9156 20.67C40.3156 19.21 40.0156 17.57 40.0156 15.75C40.0156 13.93 40.3156 12.32 40.9156 10.92C41.5156 9.49999 42.3356 8.36999 43.3756 7.52999C44.4156 6.66999 45.5956 6.02999 46.9156 5.60999ZM52.2256 26.52C53.1256 26.52 53.9556 26.38 54.7156 26.1C55.4756 25.8 56.1256 25.39 56.6656 24.87C57.2056 24.35 57.6756 23.75 58.0756 23.07C58.4756 22.39 58.7956 21.64 59.0356 20.82C59.2756 20 59.4456 19.17 59.5456 18.33C59.6656 17.49 59.7256 16.63 59.7256 15.75C59.7256 14.29 59.5356 12.97 59.1556 11.79C58.7756 10.61 58.2656 9.62999 57.6256 8.84999C57.0056 8.06999 56.2856 7.41999 55.4656 6.89999C54.6456 6.35999 53.8056 5.97999 52.9456 5.75999C52.0856 5.51999 51.2156 5.39999 50.3356 5.39999C49.2556 5.39999 48.2756 5.59999 47.3956 5.99999C46.5356 6.37999 45.8256 6.89999 45.2656 7.55999C44.7056 8.19999 44.2356 8.96999 43.8556 9.86999C43.4756 10.77 43.2056 11.71 43.0456 12.69C42.9056 13.65 42.8356 14.67 42.8356 15.75C42.8356 17.19 43.0256 18.52 43.4056 19.74C43.7856 20.96 44.2856 21.98 44.9056 22.8C45.5456 23.62 46.2756 24.32 47.0956 24.9C47.9156 25.46 48.7556 25.87 49.6156 26.13C50.4756 26.39 51.3456 26.52 52.2256 26.52Z" fill="white"/>
<path d="M79.0074 0.23999L79.4874 2.12999C76.9874 2.50999 74.4874 2.66999 71.9874 2.60999V1.64999C72.9474 1.64999 73.8474 1.60999 74.6874 1.52999C75.5274 1.42999 76.1974 1.30999 76.6974 1.16999C77.1974 1.02999 77.6274 0.88999 77.9874 0.749989C78.3674 0.60999 78.6374 0.48999 78.7974 0.38999L79.0074 0.23999ZM81.8274 5.39999L84.6474 4.94999V26.52L81.8274 27V10.14L69.1674 26.46V26.52L66.3474 27V5.39999L69.1674 4.94999V25.68L81.8274 9.38999V5.39999Z" fill="white"/>
<path d="M15.8801 41.4L18.7001 40.95V62.52L15.8801 63V46.14L3.22012 62.46V62.52L0.400117 63V41.4L3.22012 40.95V61.68L15.8801 45.39V41.4Z" fill="white"/>
<path d="M51.237 58.32L52.047 59.79C50.927 60.87 49.647 61.69 48.207 62.25C46.767 62.81 45.267 63.06 43.707 63C42.167 63 40.727 62.76 39.387 62.28C38.047 61.8 36.857 61.11 35.817 60.21C34.777 59.29 33.957 58.11 33.357 56.67C32.757 55.21 32.457 53.57 32.457 51.75C32.457 49.93 32.757 48.32 33.357 46.92C33.957 45.5 34.777 44.37 35.817 43.53C36.857 42.67 38.037 42.03 39.357 41.61C40.697 41.17 42.147 40.95 43.707 40.95C46.247 40.89 48.577 41.57 50.697 42.99L49.857 44.88C49.017 43.8 47.967 42.96 46.707 42.36C45.467 41.74 44.157 41.42 42.777 41.4C41.697 41.4 40.717 41.6 39.837 42C38.977 42.38 38.267 42.9 37.707 43.56C37.147 44.2 36.677 44.97 36.297 45.87C35.917 46.77 35.647 47.71 35.487 48.69C35.347 49.65 35.277 50.67 35.277 51.75C35.277 53.19 35.467 54.52 35.847 55.74C36.227 56.96 36.727 57.98 37.347 58.8C37.987 59.62 38.717 60.32 39.537 60.9C40.357 61.46 41.197 61.87 42.057 62.13C42.917 62.39 43.787 62.52 44.667 62.52C46.067 62.5 47.357 62.11 48.537 61.35C49.717 60.59 50.617 59.58 51.237 58.32Z" fill="white"/>
<path d="M60.0406 41.61C61.3806 41.17 62.8306 40.95 64.3906 40.95C65.9706 40.95 67.4206 41.17 68.7406 41.61C70.0806 42.03 71.2706 42.67 72.3106 43.53C73.3506 44.37 74.1706 45.5 74.7706 46.92C75.3706 48.32 75.6706 49.93 75.6706 51.75C75.6706 53.57 75.3706 55.21 74.7706 56.67C74.1706 58.11 73.3506 59.29 72.3106 60.21C71.2706 61.11 70.0806 61.8 68.7406 62.28C67.4006 62.76 65.9506 63 64.3906 63C62.8506 63 61.4106 62.76 60.0706 62.28C58.7306 61.8 57.5406 61.11 56.5006 60.21C55.4606 59.29 54.6406 58.11 54.0406 56.67C53.4406 55.21 53.1406 53.57 53.1406 51.75C53.1406 49.93 53.4406 48.32 54.0406 46.92C54.6406 45.5 55.4606 44.37 56.5006 43.53C57.5406 42.67 58.7206 42.03 60.0406 41.61ZM65.3506 62.52C66.2506 62.52 67.0806 62.38 67.8406 62.1C68.6006 61.8 69.2506 61.39 69.7906 60.87C70.3306 60.35 70.8006 59.75 71.2006 59.07C71.6006 58.39 71.9206 57.64 72.1606 56.82C72.4006 56 72.5706 55.17 72.6706 54.33C72.7906 53.49 72.8506 52.63 72.8506 51.75C72.8506 50.29 72.6606 48.97 72.2806 47.79C71.9006 46.61 71.3906 45.63 70.7506 44.85C70.1306 44.07 69.4106 43.42 68.5906 42.9C67.7706 42.36 66.9306 41.98 66.0706 41.76C65.2106 41.52 64.3406 41.4 63.4606 41.4C62.3806 41.4 61.4006 41.6 60.5206 42C59.6606 42.38 58.9506 42.9 58.3906 43.56C57.8306 44.2 57.3606 44.97 56.9806 45.87C56.6006 46.77 56.3306 47.71 56.1706 48.69C56.0306 49.65 55.9606 50.67 55.9606 51.75C55.9606 53.19 56.1506 54.52 56.5306 55.74C56.9106 56.96 57.4106 57.98 58.0306 58.8C58.6706 59.62 59.4006 60.32 60.2206 60.9C61.0406 61.46 61.8806 61.87 62.7406 62.13C63.6006 62.39 64.4706 62.52 65.3506 62.52Z" fill="white"/>
<path d="M97.2624 58.32L98.0724 59.79C96.9524 60.87 95.6724 61.69 94.2324 62.25C92.7924 62.81 91.2924 63.06 89.7324 63C88.1924 63 86.7524 62.76 85.4124 62.28C84.0724 61.8 82.8824 61.11 81.8424 60.21C80.8024 59.29 79.9824 58.11 79.3824 56.67C78.7824 55.21 78.4824 53.57 78.4824 51.75C78.4824 49.93 78.7824 48.32 79.3824 46.92C79.9824 45.5 80.8024 44.37 81.8424 43.53C82.8824 42.67 84.0624 42.03 85.3824 41.61C86.7224 41.17 88.1724 40.95 89.7324 40.95C92.2724 40.89 94.6024 41.57 96.7224 42.99L95.8824 44.88C95.0424 43.8 93.9924 42.96 92.7324 42.36C91.4924 41.74 90.1824 41.42 88.8024 41.4C87.7224 41.4 86.7424 41.6 85.8624 42C85.0024 42.38 84.2924 42.9 83.7324 43.56C83.1724 44.2 82.7024 44.97 82.3224 45.87C81.9424 46.77 81.6724 47.71 81.5124 48.69C81.3724 49.65 81.3024 50.67 81.3024 51.75C81.3024 53.19 81.4924 54.52 81.8724 55.74C82.2524 56.96 82.7524 57.98 83.3724 58.8C84.0124 59.62 84.7424 60.32 85.5624 60.9C86.3824 61.46 87.2224 61.87 88.0824 62.13C88.9424 62.39 89.8124 62.52 90.6924 62.52C92.0924 62.5 93.3824 62.11 94.5624 61.35C95.7424 60.59 96.6424 59.58 97.2624 58.32Z" fill="white"/>
<path d="M114.32 41.4L117.11 40.95V43.77L114.32 44.22V41.88H109.61V62.52L106.79 63V41.88H102.11V43.77L99.29 44.22V41.4L102.11 40.95V41.4H106.79L109.61 40.95V41.4H114.32Z" fill="white"/>
<path d="M132.994 63.09L129.574 55.59C128.274 55.63 126.354 55.94 123.814 56.52C121.274 57.1 119.304 57.4 117.904 57.42L115.354 63.12L114.934 62.91L123.844 42.93L123.694 42.63L124.084 42.33L126.004 40.95L135.304 61.41L132.994 63.09ZM118.114 56.97C119.454 56.93 121.354 56.63 123.814 56.07C126.274 55.51 128.124 55.19 129.364 55.11L124.084 43.5L118.114 56.97Z" fill="white"/>
<path d="M153.422 50.22C154.942 50.6 156.152 51.31 157.052 52.35C157.972 53.37 158.432 54.73 158.432 56.43C158.432 58.79 157.532 60.48 155.732 61.5C153.952 62.5 151.092 63 147.152 63C146.832 63 146.472 62.99 146.072 62.97C145.672 62.95 145.282 62.93 144.902 62.91C144.522 62.89 144.142 62.86 143.762 62.82C143.382 62.78 143.032 62.75 142.712 62.73C142.392 62.69 142.102 62.66 141.842 62.64C141.602 62.6 141.412 62.57 141.272 62.55L141.062 62.52L138.242 63V41.4L141.062 40.95H149.042C149.802 40.95 150.532 41 151.232 41.1C151.932 41.2 152.602 41.37 153.242 41.61C153.902 41.85 154.472 42.15 154.952 42.51C155.432 42.87 155.812 43.33 156.092 43.89C156.392 44.45 156.542 45.08 156.542 45.78C156.542 47.12 156.242 48.15 155.642 48.87C155.062 49.57 154.322 50.02 153.422 50.22ZM148.562 41.4H141.062V51.69C142.102 51.61 143.552 51.3 145.412 50.76C147.292 50.2 148.832 49.9 150.032 49.86H149.972C151.152 49.86 152.072 49.47 152.732 48.69C153.392 47.89 153.722 46.87 153.722 45.63C153.722 44.91 153.572 44.27 153.272 43.71C152.972 43.15 152.562 42.71 152.042 42.39C151.542 42.07 150.992 41.83 150.392 41.67C149.812 41.49 149.202 41.4 148.562 41.4ZM147.632 62.52C149.052 62.52 150.292 62.35 151.352 62.01C152.432 61.67 153.272 61.2 153.872 60.6C154.472 60 154.912 59.35 155.192 58.65C155.472 57.95 155.612 57.21 155.612 56.43C155.612 54.65 155.112 53.22 154.112 52.14C153.132 51.04 151.912 50.44 150.452 50.34C149.132 50.34 147.492 50.63 145.532 51.21C143.572 51.77 142.082 52.09 141.062 52.17V62.07C143.842 62.37 146.032 62.52 147.632 62.52Z" fill="white"/>
</svg>
